<svg id="Layer_1" data-name="Layer 1" xmlns="http://www.w3.org/2000/svg" viewBox="0 0 100 100"><g id="Layer_1-2" data-name="Layer 1"><g id="Layer_1-3" data-name="Layer 1"><path d="M100,84a16,16,0,0,1-16,16H16A16,16,0,0,1,0,84V16A16,16,0,0,1,16,0H84a16,16,0,0,1,16,16Z" style="fill:#242a30"/></g></g><g id="Layer_2" data-name="Layer 2"><path d="M28,48.4a2.36,2.36,0,0,0-.7,1.6v9.1a2,2,0,0,0,.7,1.6,2.36,2.36,0,0,0,1.6.7h2.3V47.7H29.6A2.36,2.36,0,0,0,28,48.4Zm32.2-9.7H52.3V34.2a2.3,2.3,0,1,0-4.6,0v4.5H39.8a5.7,5.7,0,0,0-5.7,5.7V63.6a4.48,4.48,0,0,0,4.5,4.5H61.2a4.48,4.48,0,0,0,4.5-4.5V44.3A5.44,5.44,0,0,0,60.2,38.7ZM45.4,61.3H40.9V59h4.5Zm-2.2-8.5A2.8,2.8,0,0,1,40.4,50a2.86,2.86,0,0,1,2.8-2.8,2.8,2.8,0,0,1,0,5.6Zm9,8.5H47.7V59h4.5Zm6.8,0H54.5V59H59Zm-2.2-8.5A2.8,2.8,0,0,1,54,50a2.8,2.8,0,1,1,2.8,2.8Zm15.1-4.4a2.36,2.36,0,0,0-1.6-.7H68V61.3h2.3a2,2,0,0,0,1.6-.7,2.36,2.36,0,0,0,.7-1.6V50A2,2,0,0,0,71.9,48.4Z" style="fill:#fff"/></g></svg>