<svg id="Layer_1" data-name="Layer 1" xmlns="http://www.w3.org/2000/svg" viewBox="0 0 665.7 225.3"><path d="M638.2,7.3A20.74,20.74,0,0,1,658.9,28V199.3A20.74,20.74,0,0,1,638.2,220H26.4A20.74,20.74,0,0,1,5.7,199.3V28A20.74,20.74,0,0,1,26.4,7.3H638.2m0-6.3H26.4A27,27,0,0,0-.6,28V199.3a27,27,0,0,0,27,27H638.1a27,27,0,0,0,27-27V28A26.87,26.87,0,0,0,638.2,1Z" transform="translate(0.6 -1)" style="fill:#2f2d2f"/><path d="M603.2,128.5l-9.9,25.3H593l-10.4-25.3h-9.4l15.5,35.3-8.9,19.7h9.1l23.9-55Zm-70.1-21h-8.7v58.3h8.7Zm-32.7,0H479.5v58.3h8.7V143.7h12.1a18.47,18.47,0,0,0,19.1-17.9v-.2a18.46,18.46,0,0,0-18.9-18.1Zm.3,28.1H488.4V115.7h12.4a9.86,9.86,0,0,1,9.9,9.9,10.09,10.09,0,0,1-10,10Zm53.7-8.4a16.2,16.2,0,0,0-15.5,8.9l7.7,3.3a8.13,8.13,0,0,1,7.9-4.2,8.25,8.25,0,0,1,9.1,7.5h0v.6a19.12,19.12,0,0,0-9-2.3c-8.3,0-16.8,4.6-16.8,13.2,0,7.8,6.8,12.8,14.5,12.8a12.13,12.13,0,0,0,11.1-5.7h.3v4.5h8.5V143.4c0-10.4-7.7-16.1-17.7-16.1Zm-1,32c-2.8,0-6.8-1.5-6.8-5,0-4.5,4.9-6.2,9.2-6.2a14.55,14.55,0,0,1,7.9,2,10.47,10.47,0,0,1-10.3,9.2Zm-313.8,7.9a30.81,30.81,0,1,1,0-61.6,29.44,29.44,0,0,1,21.2,8.5l-6,5.9a21.66,21.66,0,0,0-15.2-6.2,22.4,22.4,0,0,0,0,44.8,20.8,20.8,0,0,0,15.6-6.2,17.36,17.36,0,0,0,4.6-10.6H239.6v-8.2h28.5a23.25,23.25,0,0,1,.4,5.3,27.66,27.66,0,0,1-7.3,19.9A28.54,28.54,0,0,1,239.6,167.1Zm72.9-19.9a19.62,19.62,0,1,1-39.2,1.6v-1.6a19.62,19.62,0,1,1,39.2-1.6Zm-8.6,0a11.1,11.1,0,0,0-22.1-2.1,7.39,7.39,0,0,0,0,2.1,11.1,11.1,0,1,0,22.1,2.1A7.39,7.39,0,0,0,303.9,147.2Zm52.6,0a19.6,19.6,0,1,1-19.6-19.6A19.63,19.63,0,0,1,356.5,147.2Zm-8.5,0a11.1,11.1,0,1,0-22.1-2.1,7.39,7.39,0,0,0,0,2.1,11.1,11.1,0,0,0,22.1,2.1Zm51.5-18.6v35.6c0,14.6-8.7,20.7-19,20.7a19,19,0,0,1-17.7-11.6l7.5-3.3a11,11,0,0,0,9.9,7c6.6,0,10.7-4.1,10.7-11.6v-2.8h-.3a13.49,13.49,0,0,1-10.3,4.5,19.9,19.9,0,0,1,0-39.8,13.83,13.83,0,0,1,10.5,4.4h.3v-3.3l8.4.2Zm-7.7,18.7a11.22,11.22,0,0,0-10.3-12.1h-.3a11.45,11.45,0,0,0-11.1,11.9v.2A11.4,11.4,0,0,0,381,159.2h.2a11,11,0,0,0,10.6-11.5Zm23-39.7v58.3h-8.7V107.6Zm34.4,46.2,6.8,4.5a19.91,19.91,0,0,1-16.5,8.8,19.23,19.23,0,0,1-19.5-19v-.9a18.28,18.28,0,0,1,35.6-7.2l.9,2.3-26.5,11a10.08,10.08,0,0,0,9.7,6A11.49,11.49,0,0,0,449.2,153.8Zm-20.8-7.2,17.8-7.3a7.65,7.65,0,0,0-7.4-4.2,10.87,10.87,0,0,0-10.4,11.4C428.3,146.5,428.4,146.5,428.4,146.6Z" transform="translate(0.6 -1)" style="fill:#2f2d2f"/><path d="M108.5,110.7,52.1,169.8A15.33,15.33,0,0,0,71,180.4a12,12,0,0,0,3.5-1.5l63.4-36.1Z" transform="translate(0.6 -1)" style="fill:#ea4535"/><path d="M165.5,100.7,138,84.9,107.2,112l31,30.6,27.2-15.5a14.89,14.89,0,0,0,6.3-20.1,15.07,15.07,0,0,0-6.2-6.3Z" transform="translate(0.6 -1)" style="fill:#f9bc15"/><path d="M52.1,57.7a17.37,17.37,0,0,0-.5,3.9V165.9a17.37,17.37,0,0,0,.5,3.9l58.3-57.5Z" transform="translate(0.6 -1)" style="fill:#557ebf"/><path d="M108.9,113.7,138,84.9,74.7,48.7a15.57,15.57,0,0,0-7.9-2.1,15.09,15.09,0,0,0-14.7,11Z" transform="translate(0.6 -1)" style="fill:#36a852"/><path d="M222.9,85.5c-9,0-14.7-6.6-14.7-16.8,0-10,5.7-16.4,14.7-16.4,7,0,12.2,4.1,13.4,10.5h-4.2a9.14,9.14,0,0,0-9.2-6.8c-6.6,0-10.6,4.8-10.6,12.7,0,8.1,4.1,13.1,10.6,13.1,5.7,0,9.6-3.7,9.6-9.1v-.6h-9.1V68.6h13.1v3.1C236.6,80.3,231.5,85.5,222.9,85.5Z" transform="translate(0.6 -1)" style="fill:#2f2d2f"/><path d="M261.6,84.9H241.7V52.8h19.9v3.6H245.7V66.7h15.1v3.6H245.7V81.4h15.9Z" transform="translate(0.6 -1)" style="fill:#2f2d2f"/><path d="M275,84.9V56.4H264.9V52.8h24.3v3.6H279V84.9Z" transform="translate(0.6 -1)" style="fill:#2f2d2f"/><path d="M302.8,84.9V52.8h4V85h-4Z" transform="translate(0.6 -1)" style="fill:#2f2d2f"/><path d="M313,84.9V52.8h3.9L334.5,78h.2V52.8h4V85h-3.9L317.2,59.8H317V85h-4Z" transform="translate(0.6 -1)" style="fill:#2f2d2f"/><path d="M382.7,68.9c0,10.2-5.7,16.6-14.8,16.6s-14.8-6.4-14.8-16.6,5.7-16.6,14.8-16.6S382.7,58.7,382.7,68.9Zm-25.5,0c0,7.9,4.1,12.9,10.7,12.9s10.7-5,10.7-12.9S374.5,56,367.9,56,357.2,60.9,357.2,68.9Z" transform="translate(0.6 -1)" style="fill:#2f2d2f"/><path d="M387.7,84.9V52.8h3.9L409.2,78h.2V52.8h4V85h-3.9L391.9,59.8h-.2V85h-4Z" transform="translate(0.6 -1)" style="fill:#2f2d2f"/></svg>