<?xml version="1.0" encoding="utf-8"?>
<!-- Generator: Adobe Illustrator 24.3.0, SVG Export Plug-In . SVG Version: 6.00 Build 0)  -->
<svg version="1.1" xmlns="http://www.w3.org/2000/svg" xmlns:xlink="http://www.w3.org/1999/xlink" x="0px" y="0px"
	 viewBox="0 0 665 227" style="enable-background:new 0 0 665 227;" xml:space="preserve">
<style type="text/css">
	.st0{display:none;}
	.st1{display:inline;}
	.st2{fill:#2F2D2F;}
	.st3{fill:#EA4535;}
	.st4{fill:#F9BC15;}
	.st5{fill:#557EBF;}
	.st6{fill:#36A852;}
</style>
<g id="Layer_1" class="st0">
	<g class="st1">
		<path class="st2" d="M638.2,7.3c11.4,0,20.7,9.3,20.7,20.7v171.3c0,11.4-9.3,20.7-20.7,20.7H26.4c-11.4,0-20.7-9.3-20.7-20.7V28
			C5.7,16.6,15,7.3,26.4,7.3H638.2 M638.2,1H26.4c-14.9,0-27,12.1-27,27v171.3c0,14.9,12.1,27,27,27h611.7c14.9,0,27-12.1,27-27V28
			C665.2,13.1,653.1,1,638.2,1L638.2,1z"/>
		<path class="st2" d="M603.2,128.5l-9.9,25.3H593l-10.4-25.3h-9.4l15.5,35.3l-8.9,19.7h9.1l23.9-55H603.2z M533.1,107.5h-8.7v58.3
			h8.7V107.5z M500.4,107.5h-20.9v58.3h8.7v-22.1h12.1c10.2,0.3,18.8-7.6,19.1-17.9c0-0.1,0-0.2,0-0.2c-0.2-10.2-8.7-18.4-18.9-18.1
			C500.6,107.5,500.5,107.5,500.4,107.5z M500.7,135.6h-12.3v-19.9h12.4c5.5,0,9.9,4.4,9.9,9.9C510.6,131.1,506.2,135.6,500.7,135.6
			L500.7,135.6z M554.4,127.2c-6.5-0.4-12.6,3.1-15.5,8.9l7.7,3.3c1.6-2.9,4.7-4.5,7.9-4.2c4.6-0.5,8.7,2.9,9.1,7.5c0,0,0,0,0,0v0.6
			c-2.8-1.5-5.9-2.3-9-2.3c-8.3,0-16.8,4.6-16.8,13.2c0,7.8,6.8,12.8,14.5,12.8c4.5,0.3,8.7-1.9,11.1-5.7h0.3v4.5h8.5v-22.4
			c0-10.4-7.7-16.1-17.7-16.1L554.4,127.2z M553.4,159.2c-2.8,0-6.8-1.5-6.8-5c0-4.5,4.9-6.2,9.2-6.2c2.8-0.1,5.5,0.6,7.9,2
			C563.1,155.2,558.7,159.1,553.4,159.2L553.4,159.2z M239.6,167.1c-17.1,0.1-31.1-13.7-31.4-30.8c0.3-17.1,14.3-30.9,31.4-30.8
			c7.9-0.1,15.6,2.9,21.2,8.5l-6,5.9c-4.1-4-9.5-6.2-15.2-6.2c-12.4,0-22.4,10-22.4,22.4s10,22.4,22.4,22.4c5.8,0.2,11.5-2,15.6-6.2
			c2.7-2.9,4.3-6.6,4.6-10.6h-20.2v-8.2h28.5c0.3,1.7,0.5,3.5,0.4,5.3c0.3,7.3-2.3,14.5-7.3,19.9
			C255.5,164.4,247.7,167.5,239.6,167.1z M312.5,147.2c0.4,10.8-8,20-18.8,20.4c-10.8,0.4-20-8-20.4-18.8c0-0.5,0-1.1,0-1.6
			c-0.4-10.8,8-20,18.8-20.4c10.8-0.4,20,8,20.4,18.8C312.5,146.1,312.5,146.7,312.5,147.2z M303.9,147.2c0.6-6.1-3.9-11.5-10-12.1
			c-6.1-0.6-11.5,3.9-12.1,10c-0.1,0.7-0.1,1.4,0,2.1c-0.6,6.1,3.9,11.5,10,12.1c6.1,0.6,11.5-3.9,12.1-10
			C304,148.6,304,147.9,303.9,147.2z M356.5,147.2c0,10.8-8.8,19.6-19.6,19.6s-19.6-8.8-19.6-19.6s8.8-19.6,19.6-19.6
			S356.5,136.4,356.5,147.2z M348,147.2c0.6-6.1-3.9-11.5-10-12.1c-6.1-0.6-11.5,3.9-12.1,10c-0.1,0.7-0.1,1.4,0,2.1
			c-0.6,6.1,3.9,11.5,10,12.1c6.1,0.6,11.5-3.9,12.1-10C348,148.6,348,147.9,348,147.2z M399.5,128.6v35.6c0,14.6-8.7,20.7-19,20.7
			c-7.7,0.1-14.7-4.5-17.7-11.6l7.5-3.3c1.6,4.1,5.5,6.9,9.9,7c6.6,0,10.7-4.1,10.7-11.6v-2.8h-0.3c-2.6,2.9-6.4,4.6-10.3,4.5
			c-11,0-19.9-8.9-19.9-19.9c0-11,8.9-19.9,19.9-19.9c4-0.1,7.8,1.5,10.5,4.4h0.3v-3.3L399.5,128.6L399.5,128.6z M391.8,147.3
			c0.5-6.2-4.1-11.6-10.3-12.1c-0.1,0-0.2,0-0.3,0c-6.4,0.2-11.3,5.5-11.1,11.9c0,0.1,0,0.1,0,0.2c-0.3,6.3,4.6,11.6,10.9,11.9
			c0.1,0,0.2,0,0.2,0c6.1-0.2,10.9-5.4,10.6-11.5C391.8,147.6,391.8,147.5,391.8,147.3z M414.8,107.6v58.3h-8.7v-58.3H414.8z
			 M449.2,153.8l6.8,4.5c-3.7,5.5-9.9,8.8-16.5,8.8c-10.6,0.2-19.3-8.3-19.5-19c0-0.3,0-0.6,0-0.9c-0.9-10.1,6.6-18.9,16.6-19.8
			c8.5-0.7,16.3,4.5,19,12.6l0.9,2.3l-26.5,11c1.7,3.8,5.5,6.2,9.7,6C443.6,159.2,447.2,157.1,449.2,153.8z M428.4,146.6l17.8-7.3
			c-1.4-2.8-4.3-4.4-7.4-4.2c-6,0.3-10.7,5.3-10.4,11.4C428.3,146.5,428.4,146.5,428.4,146.6z"/>
		<g>
			<path class="st3" d="M108.5,110.7l-56.4,59.1c2.3,8.1,10.7,12.9,18.9,10.6c1.2-0.3,2.4-0.8,3.5-1.5l63.4-36.1L108.5,110.7z"/>
			<path class="st4" d="M165.5,100.7L138,84.9L107.2,112l31,30.6l27.2-15.5c7.3-3.8,10.1-12.8,6.3-20.1
				C170.3,104.3,168.1,102.1,165.5,100.7L165.5,100.7z"/>
			<path class="st5" d="M52.1,57.7c-0.3,1.3-0.5,2.6-0.5,3.9v104.3c0,1.3,0.2,2.6,0.5,3.9l58.3-57.5L52.1,57.7z"/>
			<path class="st6" d="M108.9,113.7L138,84.9L74.7,48.7c-2.4-1.4-5.1-2.1-7.9-2.1C60,46.5,54,51,52.1,57.6L108.9,113.7z"/>
		</g>
		<g>
			<path class="st2" d="M222.9,85.5c-9,0-14.7-6.6-14.7-16.8c0-10,5.7-16.4,14.7-16.4c7,0,12.2,4.1,13.4,10.5h-4.2
				c-1.3-4.3-4.7-6.8-9.2-6.8c-6.6,0-10.6,4.8-10.6,12.7c0,8.1,4.1,13.1,10.6,13.1c5.7,0,9.6-3.7,9.6-9.1v-0.6h-9.1v-3.5h13.1v3.1
				C236.6,80.3,231.5,85.5,222.9,85.5z"/>
			<path class="st2" d="M261.6,84.9h-19.9V52.8h19.9v3.6h-15.9v10.3h15.1v3.6h-15.1v11.1h15.9V84.9z"/>
			<path class="st2" d="M275,84.9V56.4h-10.1v-3.6h24.3v3.6H279v28.5H275z"/>
			<path class="st2" d="M302.8,84.9V52.8h4v32.2H302.8z"/>
			<path class="st2" d="M313,84.9V52.8h3.9L334.5,78h0.2V52.8h4v32.2h-3.9l-17.6-25.2H317v25.2H313z"/>
			<path class="st2" d="M382.7,68.9c0,10.2-5.7,16.6-14.8,16.6c-9.1,0-14.8-6.4-14.8-16.6c0-10.2,5.7-16.6,14.8-16.6
				C377,52.3,382.7,58.7,382.7,68.9z M357.2,68.9c0,7.9,4.1,12.9,10.7,12.9c6.6,0,10.7-5,10.7-12.9c0-7.9-4.1-12.9-10.7-12.9
				C361.3,56,357.2,60.9,357.2,68.9z"/>
			<path class="st2" d="M387.7,84.9V52.8h3.9L409.2,78h0.2V52.8h4v32.2h-3.9l-17.6-25.2h-0.2v25.2H387.7z"/>
		</g>
	</g>
</g>
<g id="Layer_2">
	<g>
		<path class="st2" d="M638.2,7.3c11.4,0,20.7,9.3,20.7,20.7v171.3c0,11.4-9.3,20.7-20.7,20.7H26.4c-11.4,0-20.7-9.3-20.7-20.7V28
			C5.7,16.6,15,7.3,26.4,7.3H638.2 M638.2,1H26.4c-14.9,0-27,12.1-27,27v171.3c0,14.9,12.1,27,27,27h611.7c14.9,0,27-12.1,27-27V28
			C665.2,13.1,653.1,1,638.2,1L638.2,1z"/>
		<g>
			<g>
				<path class="st2" d="M109.3,71.7c-0.9-7.3,2.7-15,6.7-19.7c4.6-5.4,12.5-9.5,18.8-9.7c0.8,7.6-2.2,15-6.5,20.5
					C123.7,68.1,116.4,72.3,109.3,71.7z"/>
				<path class="st2" d="M161.4,136c-0.1,0.4-2.6,9.2-8.9,18.1c-5.3,7.8-10.7,15.5-19.5,15.6c-8.5,0.2-11.3-5-21.1-5
					c-9.8,0-12.8,4.9-21,5.2c-8.3,0.3-14.6-8.4-20.1-16.1c-10.9-15.9-19.3-44.7-8-64.3c5.5-9.6,15.5-15.8,26.2-16
					c8.3-0.1,16,5.6,21.1,5.6c5,0,14.6-6.9,24.4-5.9c4.1,0.1,15.8,1.7,23.4,12.7c-0.6,0.4-13.9,8.2-13.8,24.3
					C144.4,129.5,161.1,135.9,161.4,136z"/>
			</g>
			<g>
				<path class="st2" d="M234.4,102.2h-13.3l-21.4,66.6h11l5.9-19.6h21.6l6.2,19.6h11.4L234.4,102.2z M218.6,141l5.5-17.4
					c1.4-5.5,2.5-9.7,3.2-12.5h0.2c1.6,6.6,2.7,10.7,3.3,12.5l5.6,17.4H218.6z"/>
				<path class="st2" d="M305.2,126.5c-3.8-4.5-8.5-6.7-14.2-6.7c-7.2,0-12.6,2.9-16.2,8.6h-0.2l-0.6-7.6h-9.4
					c0.3,5.4,0.4,10.6,0.4,15.8v51.7h10.7v-25.2c2.8,4.6,7.3,6.8,13.7,6.8c5.9,0,10.8-2.1,14.8-6.3c4.5-4.7,6.7-11.2,6.7-19.3
					C311,136.9,309.1,131,305.2,126.5z M296.7,156.8c-2.3,3.1-5.4,4.6-9.4,4.6c-3.4,0-6.2-1.2-8.3-3.6c-2.1-2.4-3.2-5.4-3.2-8.8v-8
					c0-0.9,0.2-1.9,0.5-3.2c0.6-2.8,2.1-5.1,4.2-6.9c2.2-1.7,4.6-2.6,7.2-2.6c3.9,0,7,1.6,9.3,4.7c2.1,3,3.2,6.9,3.2,11.5
					C300.1,149.7,299,153.7,296.7,156.8z"/>
				<path class="st2" d="M360.4,126.5c-3.8-4.5-8.5-6.7-14.2-6.7c-7.2,0-12.6,2.9-16.2,8.6h-0.2l-0.6-7.6h-9.4
					c0.3,5.4,0.4,10.6,0.4,15.8v51.7H331v-25.2c2.8,4.6,7.4,6.8,13.7,6.8c5.9,0,10.8-2.1,14.8-6.3c4.5-4.7,6.7-11.2,6.7-19.3
					C366.2,136.9,364.3,131,360.4,126.5z M351.9,156.8c-2.2,3.1-5.4,4.6-9.4,4.6c-3.4,0-6.2-1.2-8.3-3.6c-2.1-2.4-3.2-5.4-3.2-8.8
					v-8c0-0.9,0.2-1.9,0.5-3.2c0.7-2.8,2.1-5.1,4.2-6.9c2.2-1.7,4.5-2.6,7.2-2.6c3.9,0,7,1.6,9.3,4.7c2.1,3,3.2,6.9,3.2,11.5
					C355.3,149.7,354.2,153.7,351.9,156.8z"/>
				<path class="st2" d="M423.8,138.5c2.7,3.1,4.1,7,4.1,11.6c0,5.7-2,10.3-5.9,13.8c-4.3,3.9-10.4,5.8-18.1,5.8
					c-7.2,0-12.9-1.4-17.2-4.1l2.5-8.9c4.7,2.7,9.8,4.1,15.4,4.1c4,0,7.2-0.9,9.4-2.7c2.3-1.8,3.4-4.2,3.4-7.3c0-2.7-1-5-2.7-6.8
					c-1.8-1.8-4.9-3.6-9.2-5.1c-11.8-4.4-17.6-10.7-17.6-19.1c0-5.5,2.1-9.9,6.2-13.4c4.1-3.5,9.6-5.2,16.4-5.2c6,0,11.1,1,15.1,3.2
					l-2.7,8.7c-3.8-2-8-3.1-12.8-3.1c-3.7,0-6.7,0.9-8.8,2.7c-1.8,1.7-2.7,3.7-2.7,6c0,2.6,1,4.8,3.1,6.5c1.8,1.6,5,3.3,9.7,5.1
					C416.9,132.7,421.1,135.4,423.8,138.5z"/>
				<path class="st2" d="M451.5,120.8h11.8v8h-11.8v23.3c0,5.9,2.1,8.9,6.2,8.9c1.9,0,3.5-0.2,4.7-0.5l0.3,8.1
					c-2.1,0.8-4.9,1.2-8.3,1.2c-4.2,0-7.5-1.3-9.9-3.9c-2.4-2.6-3.6-6.9-3.6-12.9v-24.2h-7v-8h7V112l10.5-3.2V120.8z"/>
				<path class="st2" d="M510.1,126.9c-4.3-4.7-10-7-17-7c-7.3,0-13.1,2.4-17.4,7.1c-4.3,4.7-6.4,10.8-6.4,18.3
					c0,7.1,2.1,13,6.3,17.7c4.2,4.6,9.8,7,16.9,7c7.3,0,13.2-2.4,17.6-7.3c4.2-4.7,6.3-10.8,6.3-18.2
					C516.2,137.2,514.2,131.4,510.1,126.9z M502.2,156.1c-2.3,3.9-5.5,5.8-9.6,5.8c-4.1,0-7.4-1.9-9.7-5.7
					c-1.9-3.1-2.8-6.9-2.8-11.3c0-4.5,0.9-8.4,2.8-11.5c2.2-3.8,5.5-5.7,9.8-5.7c4.1,0,7.3,1.9,9.6,5.7c1.9,3.2,2.8,6.9,2.8,11.3
					C505.1,149.1,504.1,152.8,502.2,156.1z"/>
				<path class="st2" d="M550.9,120l0,10.2c-1-0.2-2.2-0.3-3.4-0.3c-3.7,0-6.7,1.4-8.7,4.2c-1.8,2.5-2.7,5.7-2.7,9.5v25.2h-10.7
					v-32.9c0-5.5-0.1-10.6-0.3-15.1h9.3l0.4,9.2h0.3c1.1-3.2,2.9-5.7,5.3-7.6c2.4-1.7,5-2.6,7.7-2.6
					C549.2,119.8,550.1,119.9,550.9,120z"/>
				<path class="st2" d="M598.6,142.5c0-6-1.4-11-4.3-15.1c-3.5-5.1-8.8-7.7-15.7-7.7c-7,0-12.6,2.6-16.8,7.7
					c-4,4.8-5.9,10.9-5.9,18.1c0,7.3,2.1,13.3,6.4,17.6c4.2,4.4,10.1,6.6,17.5,6.6c6.2,0,11.5-1,16.1-3l-1.7-7.4
					c-3.9,1.5-8.2,2.3-12.9,2.3c-4.3,0-7.8-1.1-10.5-3.3c-3-2.5-4.5-6.1-4.6-10.9h32C598.5,146,598.6,144.4,598.6,142.5z
					 M566.2,139.7c0.3-3.2,1.4-6,3.2-8.3c2.2-2.9,5-4.3,8.5-4.3c3.8,0,6.6,1.5,8.5,4.5c1.4,2.3,2.2,5,2.1,8.2L566.2,139.7z"/>
			</g>
			<g>
				<path class="st2" d="M223,46c11.1,0,17.6,6.8,17.6,18.5c0,11.8-6.5,18.7-17.6,18.7h-13.1V46H223z M215.7,78.2h6.8
					c7.9,0,12.2-4.8,12.2-13.6c0-8.8-4.4-13.6-12.2-13.6h-6.8V78.2z"/>
				<path class="st2" d="M244.2,69.6c0-8.7,5.1-14,12.9-14c7.7,0,12.9,5.3,12.9,14c0,8.7-5.1,14.1-12.9,14.1
					C249.3,83.7,244.2,78.4,244.2,69.6z M264.3,69.6c0-6-2.8-9.5-7.2-9.5c-4.4,0-7.2,3.5-7.2,9.5c0,6,2.8,9.5,7.2,9.5
					C261.5,79.1,264.3,75.7,264.3,69.6z"/>
				<path class="st2" d="M302.5,83.2h-5.8L291,62.9h-0.1l-5.6,20.3h-5.7L272,56.1h5.6l4.9,21.3h0.1l5.6-21.3h5.4l5.7,21.3h0.1
					l4.9-21.3h5.5L302.5,83.2z"/>
				<path class="st2" d="M313.3,56.1h5.3v4.5h0.1c1.5-3.1,4.4-5,8.5-5c6,0,9.4,3.8,9.4,10v17.6h-5.6V66.7c0-4.1-1.9-6.3-5.8-6.3
					c-3.9,0-6.4,2.8-6.4,7v15.8h-5.6V56.1z"/>
				<path class="st2" d="M342.3,46h5.6v37.2h-5.6V46z"/>
				<path class="st2" d="M352.3,69.6c0-8.7,5.1-14,12.9-14c7.7,0,12.9,5.3,12.9,14c0,8.7-5.1,14.1-12.9,14.1
					C357.4,83.7,352.3,78.4,352.3,69.6z M372.4,69.6c0-6-2.8-9.5-7.2-9.5c-4.4,0-7.2,3.5-7.2,9.5c0,6,2.8,9.5,7.2,9.5
					C369.6,79.1,372.4,75.7,372.4,69.6z"/>
				<path class="st2" d="M381.3,75.5c0-4.7,3.6-7.7,10.1-8l7.4-0.4v-2.1c0-3-2-4.8-5.4-4.8c-3.2,0-5.2,1.5-5.7,4h-5.3
					c0.3-4.9,4.5-8.5,11.2-8.5c6.6,0,10.8,3.5,10.8,8.9v18.7H399v-4.5h-0.1c-1.6,3-5,4.9-8.6,4.9C385,83.6,381.3,80.3,381.3,75.5z
					 M398.8,73v-2.1l-6.7,0.4c-3.3,0.2-5.2,1.7-5.2,4c0,2.4,2,3.9,4.9,3.9C395.7,79.2,398.8,76.6,398.8,73z"/>
				<path class="st2" d="M408.5,69.6c0-8.6,4.5-14,11.3-14c3.9,0,7,2,8.5,4.9h0.1V46h5.6v37.2h-5.4v-4.6h-0.1
					c-1.6,3.1-4.7,5.1-8.6,5.1C413,83.6,408.5,78.2,408.5,69.6z M414.2,69.6c0,5.7,2.8,9.3,7.2,9.3c4.3,0,7.1-3.6,7.1-9.3
					c0-5.6-2.9-9.3-7.1-9.3C416.9,60.3,414.2,63.9,414.2,69.6z"/>
				<path class="st2" d="M449.2,69.6c0-8.7,5.1-14,12.9-14c7.7,0,12.9,5.3,12.9,14c0,8.7-5.1,14.1-12.9,14.1
					C454.3,83.7,449.2,78.4,449.2,69.6z M469.3,69.6c0-6-2.8-9.5-7.2-9.5c-4.4,0-7.2,3.5-7.2,9.5c0,6,2.8,9.5,7.2,9.5
					C466.5,79.1,469.3,75.7,469.3,69.6z"/>
				<path class="st2" d="M479.2,56.1h5.3v4.5h0.1c1.5-3.1,4.4-5,8.5-5c6,0,9.4,3.8,9.4,10v17.6H497V66.7c0-4.1-1.9-6.3-5.8-6.3
					c-3.9,0-6.4,2.8-6.4,7v15.8h-5.6V56.1z"/>
				<path class="st2" d="M525.9,49.7v6.4h5.2v4.4h-5.2v14.9c0,2.3,1,3.4,3.3,3.4c0.6,0,1.5-0.1,1.8-0.1v4.4
					c-0.6,0.2-1.9,0.3-3.1,0.3c-5.5,0-7.6-2.1-7.6-7.3V60.5h-3.9v-4.4h3.9v-6.4H525.9z"/>
				<path class="st2" d="M535.8,46h5.5v14.6h0.1c1.5-3.2,4.5-5,8.6-5c6,0,9.5,4,9.5,10.1v17.5h-5.6V66.8c0-4-2-6.4-5.9-6.4
					c-4.1,0-6.6,2.8-6.6,7.1v15.7h-5.6V46z"/>
				<path class="st2" d="M588.1,75.2c-0.8,4.9-5.5,8.5-11.7,8.5c-8,0-12.8-5.4-12.8-13.9c0-8.5,4.9-14.2,12.6-14.2
					c7.5,0,12.2,5.3,12.2,13.5V71h-19.1v0.3c0,4.7,2.8,7.8,7.3,7.8c3.2,0,5.5-1.6,6.3-4H588.1z M569.3,67.1h13.6
					c-0.1-4.1-2.8-7.1-6.6-7.1C572.3,60.1,569.6,63,569.3,67.1z"/>
			</g>
		</g>
	</g>
</g>
</svg>
