<?xml version="1.0" encoding="utf-8"?>
<!-- Generator: Adobe Illustrator 24.3.0, SVG Export Plug-In . SVG Version: 6.00 Build 0)  -->
<svg version="1.1" id="Layer_1" xmlns="http://www.w3.org/2000/svg" xmlns:xlink="http://www.w3.org/1999/xlink" x="0px" y="0px"
	 viewBox="0 0 665 227" style="enable-background:new 0 0 665 227;" xml:space="preserve">
<style type="text/css">
	.st0{fill:#2F2D2F;}
	.st1{fill:#EA4535;}
	.st2{fill:#F9BC15;}
	.st3{fill:#557EBF;}
	.st4{fill:#36A852;}
</style>
<g>
	<path class="st0" d="M638.2,7.3c11.4,0,20.7,9.3,20.7,20.7v171.3c0,11.4-9.3,20.7-20.7,20.7H26.4c-11.4,0-20.7-9.3-20.7-20.7V28
		C5.7,16.6,15,7.3,26.4,7.3H638.2 M638.2,1H26.4c-14.9,0-27,12.1-27,27v171.3c0,14.9,12.1,27,27,27h611.7c14.9,0,27-12.1,27-27V28
		C665.2,13.1,653.1,1,638.2,1L638.2,1z"/>
	<path class="st0" d="M603.2,128.5l-9.9,25.3H593l-10.4-25.3h-9.4l15.5,35.3l-8.9,19.7h9.1l23.9-55H603.2z M533.1,107.5h-8.7v58.3
		h8.7V107.5z M500.4,107.5h-20.9v58.3h8.7v-22.1h12.1c10.2,0.3,18.8-7.6,19.1-17.9c0-0.1,0-0.2,0-0.2c-0.2-10.2-8.7-18.4-18.9-18.1
		C500.6,107.5,500.5,107.5,500.4,107.5z M500.7,135.6h-12.3v-19.9h12.4c5.5,0,9.9,4.4,9.9,9.9C510.6,131.1,506.2,135.6,500.7,135.6
		L500.7,135.6z M554.4,127.2c-6.5-0.4-12.6,3.1-15.5,8.9l7.7,3.3c1.6-2.9,4.7-4.5,7.9-4.2c4.6-0.5,8.7,2.9,9.1,7.5c0,0,0,0,0,0v0.6
		c-2.8-1.5-5.9-2.3-9-2.3c-8.3,0-16.8,4.6-16.8,13.2c0,7.8,6.8,12.8,14.5,12.8c4.5,0.3,8.7-1.9,11.1-5.7h0.3v4.5h8.5v-22.4
		c0-10.4-7.7-16.1-17.7-16.1L554.4,127.2z M553.4,159.2c-2.8,0-6.8-1.5-6.8-5c0-4.5,4.9-6.2,9.2-6.2c2.8-0.1,5.5,0.6,7.9,2
		C563.1,155.2,558.7,159.1,553.4,159.2L553.4,159.2z M239.6,167.1c-17.1,0.1-31.1-13.7-31.4-30.8c0.3-17.1,14.3-30.9,31.4-30.8
		c7.9-0.1,15.6,2.9,21.2,8.5l-6,5.9c-4.1-4-9.5-6.2-15.2-6.2c-12.4,0-22.4,10-22.4,22.4s10,22.4,22.4,22.4c5.8,0.2,11.5-2,15.6-6.2
		c2.7-2.9,4.3-6.6,4.6-10.6h-20.2v-8.2h28.5c0.3,1.7,0.5,3.5,0.4,5.3c0.3,7.3-2.3,14.5-7.3,19.9
		C255.5,164.4,247.7,167.5,239.6,167.1z M312.5,147.2c0.4,10.8-8,20-18.8,20.4c-10.8,0.4-20-8-20.4-18.8c0-0.5,0-1.1,0-1.6
		c-0.4-10.8,8-20,18.8-20.4c10.8-0.4,20,8,20.4,18.8C312.5,146.1,312.5,146.7,312.5,147.2z M303.9,147.2c0.6-6.1-3.9-11.5-10-12.1
		c-6.1-0.6-11.5,3.9-12.1,10c-0.1,0.7-0.1,1.4,0,2.1c-0.6,6.1,3.9,11.5,10,12.1c6.1,0.6,11.5-3.9,12.1-10
		C304,148.6,304,147.9,303.9,147.2z M356.5,147.2c0,10.8-8.8,19.6-19.6,19.6s-19.6-8.8-19.6-19.6s8.8-19.6,19.6-19.6
		S356.5,136.4,356.5,147.2z M348,147.2c0.6-6.1-3.9-11.5-10-12.1c-6.1-0.6-11.5,3.9-12.1,10c-0.1,0.7-0.1,1.4,0,2.1
		c-0.6,6.1,3.9,11.5,10,12.1c6.1,0.6,11.5-3.9,12.1-10C348,148.6,348,147.9,348,147.2z M399.5,128.6v35.6c0,14.6-8.7,20.7-19,20.7
		c-7.7,0.1-14.7-4.5-17.7-11.6l7.5-3.3c1.6,4.1,5.5,6.9,9.9,7c6.6,0,10.7-4.1,10.7-11.6v-2.8h-0.3c-2.6,2.9-6.4,4.6-10.3,4.5
		c-11,0-19.9-8.9-19.9-19.9c0-11,8.9-19.9,19.9-19.9c4-0.1,7.8,1.5,10.5,4.4h0.3v-3.3L399.5,128.6L399.5,128.6z M391.8,147.3
		c0.5-6.2-4.1-11.6-10.3-12.1c-0.1,0-0.2,0-0.3,0c-6.4,0.2-11.3,5.5-11.1,11.9c0,0.1,0,0.1,0,0.2c-0.3,6.3,4.6,11.6,10.9,11.9
		c0.1,0,0.2,0,0.2,0c6.1-0.2,10.9-5.4,10.6-11.5C391.8,147.6,391.8,147.5,391.8,147.3z M414.8,107.6v58.3h-8.7v-58.3H414.8z
		 M449.2,153.8l6.8,4.5c-3.7,5.5-9.9,8.8-16.5,8.8c-10.6,0.2-19.3-8.3-19.5-19c0-0.3,0-0.6,0-0.9c-0.9-10.1,6.6-18.9,16.6-19.8
		c8.5-0.7,16.3,4.5,19,12.6l0.9,2.3l-26.5,11c1.7,3.8,5.5,6.2,9.7,6C443.6,159.2,447.2,157.1,449.2,153.8z M428.4,146.6l17.8-7.3
		c-1.4-2.8-4.3-4.4-7.4-4.2c-6,0.3-10.7,5.3-10.4,11.4C428.3,146.5,428.4,146.5,428.4,146.6z"/>
	<g>
		<path class="st1" d="M108.5,110.7l-56.4,59.1c2.3,8.1,10.7,12.9,18.9,10.6c1.2-0.3,2.4-0.8,3.5-1.5l63.4-36.1L108.5,110.7z"/>
		<path class="st2" d="M165.5,100.7L138,84.9L107.2,112l31,30.6l27.2-15.5c7.3-3.8,10.1-12.8,6.3-20.1
			C170.3,104.3,168.1,102.1,165.5,100.7L165.5,100.7z"/>
		<path class="st3" d="M52.1,57.7c-0.3,1.3-0.5,2.6-0.5,3.9v104.3c0,1.3,0.2,2.6,0.5,3.9l58.3-57.5L52.1,57.7z"/>
		<path class="st4" d="M108.9,113.7L138,84.9L74.7,48.7c-2.4-1.4-5.1-2.1-7.9-2.1C60,46.5,54,51,52.1,57.6L108.9,113.7z"/>
	</g>
	<g>
		<path class="st0" d="M222.9,85.5c-9,0-14.7-6.6-14.7-16.8c0-10,5.7-16.4,14.7-16.4c7,0,12.2,4.1,13.4,10.5h-4.2
			c-1.3-4.3-4.7-6.8-9.2-6.8c-6.6,0-10.6,4.8-10.6,12.7c0,8.1,4.1,13.1,10.6,13.1c5.7,0,9.6-3.7,9.6-9.1v-0.6h-9.1v-3.5h13.1v3.1
			C236.6,80.3,231.5,85.5,222.9,85.5z"/>
		<path class="st0" d="M261.6,84.9h-19.9V52.8h19.9v3.6h-15.9v10.3h15.1v3.6h-15.1v11.1h15.9V84.9z"/>
		<path class="st0" d="M275,84.9V56.4h-10.1v-3.6h24.3v3.6H279v28.5H275z"/>
		<path class="st0" d="M302.8,84.9V52.8h4v32.2H302.8z"/>
		<path class="st0" d="M313,84.9V52.8h3.9L334.5,78h0.2V52.8h4v32.2h-3.9l-17.6-25.2H317v25.2H313z"/>
		<path class="st0" d="M382.7,68.9c0,10.2-5.7,16.6-14.8,16.6c-9.1,0-14.8-6.4-14.8-16.6c0-10.2,5.7-16.6,14.8-16.6
			C377,52.3,382.7,58.7,382.7,68.9z M357.2,68.9c0,7.9,4.1,12.9,10.7,12.9c6.6,0,10.7-5,10.7-12.9c0-7.9-4.1-12.9-10.7-12.9
			C361.3,56,357.2,60.9,357.2,68.9z"/>
		<path class="st0" d="M387.7,84.9V52.8h3.9L409.2,78h0.2V52.8h4v32.2h-3.9l-17.6-25.2h-0.2v25.2H387.7z"/>
	</g>
</g>
</svg>
