<svg id="Layer_1" data-name="Layer 1" xmlns="http://www.w3.org/2000/svg" viewBox="0 0 665.7 225.3"><g id="Layer_2" data-name="Layer 2"><path d="M638.2,7.3A20.74,20.74,0,0,1,658.9,28V199.3A20.74,20.74,0,0,1,638.2,220H26.4A20.74,20.74,0,0,1,5.7,199.3V28A20.74,20.74,0,0,1,26.4,7.3H638.2m0-6.3H26.4A27,27,0,0,0-.6,28V199.3a27,27,0,0,0,27,27H638.1a27,27,0,0,0,27-27V28A26.87,26.87,0,0,0,638.2,1Z" transform="translate(0.6 -1)" style="fill:#2f2d2f"/><path d="M109.3,71.7c-.9-7.3,2.7-15,6.7-19.7,4.6-5.4,12.5-9.5,18.8-9.7.8,7.6-2.2,15-6.5,20.5C123.7,68.1,116.4,72.3,109.3,71.7Z" transform="translate(0.6 -1)" style="fill:#2f2d2f"/><path d="M161.4,136a64.14,64.14,0,0,1-8.9,18.1c-5.3,7.8-10.7,15.5-19.5,15.6-8.5.2-11.3-5-21.1-5s-12.8,4.9-21,5.2-14.6-8.4-20.1-16.1c-10.9-15.9-19.3-44.7-8-64.3,5.5-9.6,15.5-15.8,26.2-16,8.3-.1,16,5.6,21.1,5.6s14.6-6.9,24.4-5.9a29.89,29.89,0,0,1,23.4,12.7c-.6.4-13.9,8.2-13.8,24.3C144.4,129.5,161.1,135.9,161.4,136Z" transform="translate(0.6 -1)" style="fill:#2f2d2f"/><path d="M234.4,102.2H221.1l-21.4,66.6h11l5.9-19.6h21.6l6.2,19.6h11.4ZM218.6,141l5.5-17.4c1.4-5.5,2.5-9.7,3.2-12.5h.2c1.6,6.6,2.7,10.7,3.3,12.5l5.6,17.4Z" transform="translate(0.6 -1)" style="fill:#2f2d2f"/><path d="M305.2,126.5a17.75,17.75,0,0,0-14.2-6.7c-7.2,0-12.6,2.9-16.2,8.6h-.2l-.6-7.6h-9.4c.3,5.4.4,10.6.4,15.8v51.7h10.7V163.1c2.8,4.6,7.3,6.8,13.7,6.8a19.58,19.58,0,0,0,14.8-6.3c4.5-4.7,6.7-11.2,6.7-19.3C311,136.9,309.1,131,305.2,126.5Zm-8.5,30.3a11,11,0,0,1-9.4,4.6,10.54,10.54,0,0,1-8.3-3.6,13.05,13.05,0,0,1-3.2-8.8v-8a14.79,14.79,0,0,1,.5-3.2,12.41,12.41,0,0,1,4.2-6.9,11.58,11.58,0,0,1,7.2-2.6A11,11,0,0,1,297,133a19.76,19.76,0,0,1,3.2,11.5C300.1,149.7,299,153.7,296.7,156.8Z" transform="translate(0.6 -1)" style="fill:#2f2d2f"/><path d="M360.4,126.5a17.75,17.75,0,0,0-14.2-6.7c-7.2,0-12.6,2.9-16.2,8.6h-.2l-.6-7.6h-9.4c.3,5.4.4,10.6.4,15.8v51.7H331V163.1c2.8,4.6,7.4,6.8,13.7,6.8a19.58,19.58,0,0,0,14.8-6.3c4.5-4.7,6.7-11.2,6.7-19.3C366.2,136.9,364.3,131,360.4,126.5Zm-8.5,30.3a10.88,10.88,0,0,1-9.4,4.6,10.54,10.54,0,0,1-8.3-3.6A13.05,13.05,0,0,1,331,149v-8a14.79,14.79,0,0,1,.5-3.2,13,13,0,0,1,4.2-6.9,11.37,11.37,0,0,1,7.2-2.6,11,11,0,0,1,9.3,4.7,19.76,19.76,0,0,1,3.2,11.5C355.3,149.7,354.2,153.7,351.9,156.8Z" transform="translate(0.6 -1)" style="fill:#2f2d2f"/><path d="M423.8,138.5a17.12,17.12,0,0,1,4.1,11.6,17.69,17.69,0,0,1-5.9,13.8c-4.3,3.9-10.4,5.8-18.1,5.8-7.2,0-12.9-1.4-17.2-4.1l2.5-8.9a30.33,30.33,0,0,0,15.4,4.1c4,0,7.2-.9,9.4-2.7a8.7,8.7,0,0,0,3.4-7.3,9.69,9.69,0,0,0-2.7-6.8c-1.8-1.8-4.9-3.6-9.2-5.1-11.8-4.4-17.6-10.7-17.6-19.1a16.79,16.79,0,0,1,6.2-13.4c4.1-3.5,9.6-5.2,16.4-5.2,6,0,11.1,1,15.1,3.2l-2.7,8.7a26.92,26.92,0,0,0-12.8-3.1c-3.7,0-6.7.9-8.8,2.7a8.2,8.2,0,0,0,.4,12.5c1.8,1.6,5,3.3,9.7,5.1C416.9,132.7,421.1,135.4,423.8,138.5Z" transform="translate(0.6 -1)" style="fill:#2f2d2f"/><path d="M451.5,120.8h11.8v8H451.5v23.3c0,5.9,2.1,8.9,6.2,8.9a19.85,19.85,0,0,0,4.7-.5l.3,8.1a23.9,23.9,0,0,1-8.3,1.2q-6.3,0-9.9-3.9T440.9,153V128.8h-7v-8h7V112l10.5-3.2v12Z" transform="translate(0.6 -1)" style="fill:#2f2d2f"/><path d="M510.1,126.9c-4.3-4.7-10-7-17-7-7.3,0-13.1,2.4-17.4,7.1s-6.4,10.8-6.4,18.3q0,10.65,6.3,17.7c4.2,4.6,9.8,7,16.9,7,7.3,0,13.2-2.4,17.6-7.3,4.2-4.7,6.3-10.8,6.3-18.2C516.2,137.2,514.2,131.4,510.1,126.9Zm-7.9,29.2c-2.3,3.9-5.5,5.8-9.6,5.8a10.85,10.85,0,0,1-9.7-5.7,21.3,21.3,0,0,1-2.8-11.3,21.79,21.79,0,0,1,2.8-11.5,10.68,10.68,0,0,1,9.8-5.7q6.15,0,9.6,5.7a21.54,21.54,0,0,1,2.8,11.3A22.2,22.2,0,0,1,502.2,156.1Z" transform="translate(0.6 -1)" style="fill:#2f2d2f"/><path d="M550.9,120v10.2a17.92,17.92,0,0,0-3.4-.3,10.15,10.15,0,0,0-8.7,4.2,15.92,15.92,0,0,0-2.7,9.5v25.2H525.4V135.9c0-5.5-.1-10.6-.3-15.1h9.3l.4,9.2h.3a16.14,16.14,0,0,1,5.3-7.6,13.21,13.21,0,0,1,7.7-2.6A21.58,21.58,0,0,1,550.9,120Z" transform="translate(0.6 -1)" style="fill:#2f2d2f"/><path d="M598.6,142.5c0-6-1.4-11-4.3-15.1-3.5-5.1-8.8-7.7-15.7-7.7a20.7,20.7,0,0,0-16.8,7.7c-4,4.8-5.9,10.9-5.9,18.1s2.1,13.3,6.4,17.6,10.1,6.6,17.5,6.6a39.88,39.88,0,0,0,16.1-3l-1.7-7.4a35.66,35.66,0,0,1-12.9,2.3q-6.45,0-10.5-3.3c-3-2.5-4.5-6.1-4.6-10.9h32A23.66,23.66,0,0,0,598.6,142.5Zm-32.4-2.8a15.62,15.62,0,0,1,3.2-8.3,10.12,10.12,0,0,1,8.5-4.3,9.37,9.37,0,0,1,8.5,4.5,14.53,14.53,0,0,1,2.1,8.2Z" transform="translate(0.6 -1)" style="fill:#2f2d2f"/><path d="M223,46c11.1,0,17.6,6.8,17.6,18.5S234.1,83.2,223,83.2H209.9V46Zm-7.3,32.2h6.8c7.9,0,12.2-4.8,12.2-13.6S230.3,51,222.5,51h-6.8Z" transform="translate(0.6 -1)" style="fill:#2f2d2f"/><path d="M244.2,69.6c0-8.7,5.1-14,12.9-14s12.9,5.3,12.9,14-5.1,14.1-12.9,14.1S244.2,78.4,244.2,69.6Zm20.1,0c0-6-2.8-9.5-7.2-9.5s-7.2,3.5-7.2,9.5,2.8,9.5,7.2,9.5S264.3,75.7,264.3,69.6Z" transform="translate(0.6 -1)" style="fill:#2f2d2f"/><path d="M302.5,83.2h-5.8L291,62.9h-.1l-5.6,20.3h-5.7L272,56.1h5.6l4.9,21.3h.1l5.6-21.3h5.4l5.7,21.3h.1l4.9-21.3h5.5Z" transform="translate(0.6 -1)" style="fill:#2f2d2f"/><path d="M313.3,56.1h5.3v4.5h.1c1.5-3.1,4.4-5,8.5-5,6,0,9.4,3.8,9.4,10V83.2H331V66.7c0-4.1-1.9-6.3-5.8-6.3s-6.4,2.8-6.4,7V83.2h-5.6V56.1Z" transform="translate(0.6 -1)" style="fill:#2f2d2f"/><path d="M342.3,46h5.6V83.2h-5.6Z" transform="translate(0.6 -1)" style="fill:#2f2d2f"/><path d="M352.3,69.6c0-8.7,5.1-14,12.9-14s12.9,5.3,12.9,14S373,83.7,365.2,83.7,352.3,78.4,352.3,69.6Zm20.1,0c0-6-2.8-9.5-7.2-9.5s-7.2,3.5-7.2,9.5,2.8,9.5,7.2,9.5S372.4,75.7,372.4,69.6Z" transform="translate(0.6 -1)" style="fill:#2f2d2f"/><path d="M381.3,75.5c0-4.7,3.6-7.7,10.1-8l7.4-.4V65c0-3-2-4.8-5.4-4.8-3.2,0-5.2,1.5-5.7,4h-5.3c.3-4.9,4.5-8.5,11.2-8.5s10.8,3.5,10.8,8.9V83.3H399V78.8h-.1a9.75,9.75,0,0,1-8.6,4.9C385,83.6,381.3,80.3,381.3,75.5ZM398.8,73V70.9l-6.7.4c-3.3.2-5.2,1.7-5.2,4s2,3.9,4.9,3.9C395.7,79.2,398.8,76.6,398.8,73Z" transform="translate(0.6 -1)" style="fill:#2f2d2f"/><path d="M408.5,69.6c0-8.6,4.5-14,11.3-14a9.32,9.32,0,0,1,8.5,4.9h.1V46H434V83.2h-5.4V78.6h-.1a9.39,9.39,0,0,1-8.6,5.1C413,83.6,408.5,78.2,408.5,69.6Zm5.7,0c0,5.7,2.8,9.3,7.2,9.3s7.1-3.6,7.1-9.3-2.9-9.3-7.1-9.3C416.9,60.3,414.2,63.9,414.2,69.6Z" transform="translate(0.6 -1)" style="fill:#2f2d2f"/><path d="M449.2,69.6c0-8.7,5.1-14,12.9-14s12.9,5.3,12.9,14-5.1,14.1-12.9,14.1S449.2,78.4,449.2,69.6Zm20.1,0c0-6-2.8-9.5-7.2-9.5s-7.2,3.5-7.2,9.5,2.8,9.5,7.2,9.5S469.3,75.7,469.3,69.6Z" transform="translate(0.6 -1)" style="fill:#2f2d2f"/><path d="M479.2,56.1h5.3v4.5h.1c1.5-3.1,4.4-5,8.5-5,6,0,9.4,3.8,9.4,10V83.2H497V66.7c0-4.1-1.9-6.3-5.8-6.3s-6.4,2.8-6.4,7V83.2h-5.6Z" transform="translate(0.6 -1)" style="fill:#2f2d2f"/><path d="M525.9,49.7v6.4h5.2v4.4h-5.2V75.4c0,2.3,1,3.4,3.3,3.4.6,0,1.5-.1,1.8-.1v4.4a12.39,12.39,0,0,1-3.1.3c-5.5,0-7.6-2.1-7.6-7.3V60.5h-3.9V56.1h3.9V49.7Z" transform="translate(0.6 -1)" style="fill:#2f2d2f"/><path d="M535.8,46h5.5V60.6h.1c1.5-3.2,4.5-5,8.6-5,6,0,9.5,4,9.5,10.1V83.2h-5.6V66.8c0-4-2-6.4-5.9-6.4-4.1,0-6.6,2.8-6.6,7.1V83.2h-5.6Z" transform="translate(0.6 -1)" style="fill:#2f2d2f"/><path d="M588.1,75.2c-.8,4.9-5.5,8.5-11.7,8.5-8,0-12.8-5.4-12.8-13.9s4.9-14.2,12.6-14.2c7.5,0,12.2,5.3,12.2,13.5V71H569.3v.3c0,4.7,2.8,7.8,7.3,7.8,3.2,0,5.5-1.6,6.3-4h5.2Zm-18.8-8.1h13.6c-.1-4.1-2.8-7.1-6.6-7.1C572.3,60.1,569.6,63,569.3,67.1Z" transform="translate(0.6 -1)" style="fill:#2f2d2f"/></g></svg>