<svg id="Layer_1" data-name="Layer 1" xmlns="http://www.w3.org/2000/svg" viewBox="0 0 100 100"><g id="Layer_1-2" data-name="Layer 1"><g id="Layer_1-3" data-name="Layer 1"><g id="Layer_1-4" data-name="Layer 1"><path d="M100,84a16,16,0,0,1-16,16H16A16,16,0,0,1,0,84V16A16,16,0,0,1,16,0H84a16,16,0,0,1,16,16Z" style="fill:#242a30"/></g></g></g><g id="Layer_4" data-name="Layer 4"><g id="_icons" data-name=" icons"><circle cx="43.4" cy="43.4" r="2.2" style="fill:#fff"/><circle cx="56.6" cy="43.4" r="2.2" style="fill:#fff"/><path d="M55.7,52.4a20.8,20.8,0,0,1-11.6,0,2.93,2.93,0,0,0-2.2.4,2.82,2.82,0,0,0-.7,2c.7,3.5,4.4,6.1,8.8,6.1s8.1-2.6,8.8-6.1a2.24,2.24,0,0,0-3.1-2.4Z" style="fill:#fff"/><path d="M58.8,30.3H41.2a10.91,10.91,0,0,0-11,11V50a19.75,19.75,0,0,0,39.5,0V41.2A10.8,10.8,0,0,0,58.8,30.3ZM65.3,50a15.3,15.3,0,0,1-30.6,0V41.2a6.53,6.53,0,0,1,6.6-6.6H58.8a6.53,6.53,0,0,1,6.6,6.6V50Z" style="fill:#fff"/></g></g></svg>