<?xml version="1.0" encoding="utf-8"?>
<!-- Generator: Adobe Illustrator 24.3.0, SVG Export Plug-In . SVG Version: 6.00 Build 0)  -->
<svg version="1.1" id="Icons" xmlns="http://www.w3.org/2000/svg" xmlns:xlink="http://www.w3.org/1999/xlink" x="0px" y="0px"
	 viewBox="0 0 24 24" style="enable-background:new 0 0 24 24;" xml:space="preserve">
<style type="text/css">
	.st0{fill:#FFFFFF;}
</style>
<path class="st0" d="M5.4,24h13.2c2.2,0,4-1.8,4-4c0-0.2,0-0.3,0-0.5l-1.2-10c-0.3-2-2-3.5-4-3.5H17V5c0-2.8-2.2-5-5-5S7,2.2,7,5v1
	H6.6c-2,0-3.7,1.5-4,3.5l-1.2,10c-0.3,2.2,1.3,4.2,3.5,4.5C5.1,24,5.2,24,5.4,24z M9,5c0-1.7,1.3-3,3-3s3,1.3,3,3v1H9V5z M3.4,19.8
	l1.2-10c0.1-1,1-1.8,2-1.8H7v2c0,0.6,0.4,1,1,1s1-0.4,1-1V8h6v2c0,0.6,0.4,1,1,1c0.6,0,1-0.4,1-1V8h0.4c1,0,1.9,0.8,2,1.8l1.2,10
	c0.1,1.1-0.6,2.1-1.7,2.2c-0.1,0-0.2,0-0.2,0H5.4c-1.1,0-2-0.9-2-2C3.4,19.9,3.4,19.8,3.4,19.8L3.4,19.8z"/>
</svg>
