<svg id="Layer_1" data-name="Layer 1" xmlns="http://www.w3.org/2000/svg" viewBox="0 0 100 100"><g id="Layer_1-2" data-name="Layer 1"><g id="Layer_1-3" data-name="Layer 1"><g id="Layer_1-4" data-name="Layer 1"><path d="M100,84a16,16,0,0,1-16,16H16A16,16,0,0,1,0,84V16A16,16,0,0,1,16,0H84a16,16,0,0,1,16,16Z" style="fill:#242a30"/></g></g></g><g id="Layer_3-2" data-name="Layer 3"><path d="M51.5,30.3A11.61,11.61,0,0,0,39.9,41.9a11.44,11.44,0,0,0,7,10.6H47a2.58,2.58,0,0,1,1.5,2v7.2a5,5,0,0,1-.5,1.5,4.07,4.07,0,0,0-.8,2.4,4.2,4.2,0,0,0,8.4,0,3.42,3.42,0,0,0-.4-1.8c-.1-.2-.2-.3-.3-.5h0a6.18,6.18,0,0,1-.6-1.8h0V54.9a2.81,2.81,0,0,1,1.5-2.3h.1a11.66,11.66,0,0,0,7-10.6A11.28,11.28,0,0,0,51.5,30.3Zm0,19.7a8.3,8.3,0,1,1,8.3-8.3A8.28,8.28,0,0,1,51.5,50Z" style="fill:#fff"/><path d="M57.6,39.3c-.1.1-7.6,7-9.1,8.4a5.54,5.54,0,0,0,3,.7c.5-.5,4.4-4.2,6.5-6A5.09,5.09,0,0,0,57.6,39.3Z" style="fill:#fff"/><path d="M56.9,38c-1.4,1.3-8.2,7.5-9.4,8.6l-.2.1h0l-.1.1A12.52,12.52,0,0,1,46,45.6l.1-.1c.4-.4,8.7-8.1,9.5-8.8A3.25,3.25,0,0,1,56.9,38Z" style="fill:#fff"/><path d="M47.4,46.7Z" style="fill:#fff"/><path d="M63.2,56.4a5.93,5.93,0,0,0,5,5.1c-1.8-.3-5.3,2.8-5.2,5.1a6,6,0,0,0-5-5.1C59.5,61.5,62.8,59.4,63.2,56.4Z" style="fill:#fff"/><path d="M35.4,43.8a4.24,4.24,0,0,0,3.5,3.6c-1.2-.2-3.7,1.9-3.6,3.5a4.29,4.29,0,0,0-3.5-3.6A4.17,4.17,0,0,0,35.4,43.8Z" style="fill:#fff"/><path d="M40.2,51.3a5.93,5.93,0,0,0,5,5.1c-1.8-.3-5.3,2.8-5.2,5.1a6,6,0,0,0-5-5.1A6.3,6.3,0,0,0,40.2,51.3Z" style="fill:#fff"/></g></svg>