<?xml version="1.0" encoding="utf-8"?>
<!-- Generator: Adobe Illustrator 24.3.0, SVG Export Plug-In . SVG Version: 6.00 Build 0)  -->
<svg version="1.1" id="Layer_1" xmlns="http://www.w3.org/2000/svg" xmlns:xlink="http://www.w3.org/1999/xlink" x="0px" y="0px"
	 viewBox="0 0 325 86" style="enable-background:new 0 0 325 86;" xml:space="preserve">
<style type="text/css">
	.st0{fill:#FAA626;}
	.st1{fill:#151515;}
	.st2{font-family:'Roboto-Regular';}
	.st3{font-size:26.3908px;}
</style>
<g>
	<path class="st0" d="M325,65.8c0,11-9,20-20,20H20c-11,0-20-9-20-20v-46c0-11,9-20,20-20h285c11,0,20,9,20,20V65.8z"/>
</g>
<g>
	<path class="st1" d="M62,31.3c-1.3,0.1-2.7,0.2-4.2,0.4c-2.2,0.3-4.4,0.7-6.3,1.5c-3.6,1.5-6,4.6-6,9.1c0,5.7,3.7,8.6,8.3,8.6
		c1.5,0,2.8-0.2,4-0.5c1.8-0.6,3.4-1.6,5.2-3.6c1.1,1.5,1.4,2.1,3.2,3.7c0.5,0.2,1,0.2,1.4-0.1c1.2-1,3.2-2.7,4.3-3.7
		c0.5-0.4,0.4-1,0.1-1.5c-1.1-1.4-2.1-2.5-2.1-5.1v-8.7c0-3.7,0.3-7.1-2.4-9.6c-2.2-2-5.7-2.8-8.4-2.8c-0.4,0-0.8,0-1.2,0
		c-4.9,0.3-10.1,2.4-11.3,8.5c-0.2,0.8,0.4,1.1,0.8,1.2l5.4,0.7c0.6-0.1,0.9-0.6,1-1.1c0.5-2.1,2.2-3.2,4.2-3.4c0.1,0,0.2,0,0.4,0
		c1.2,0,2.4,0.5,3.1,1.4c0.8,1.2,0.7,2.7,0.7,4.1L62,31.3L62,31.3z M60.9,42.8c-0.7,1.4-1.8,2.2-3.1,2.5c-0.2,0-0.5,0.1-0.8,0.1
		c-2.1,0-3.4-1.6-3.4-4.1c0-3.1,1.8-4.6,4.2-5.2c1.3-0.3,2.7-0.4,4.2-0.4v1.2C62,39.2,62.1,40.9,60.9,42.8z M83.2,56.3v0.3
		c-0.1,1.9-1,5.5-3.4,7.5c-0.5,0.4-0.9,0.2-0.7-0.4c0.7-1.7,2.3-5.6,1.5-6.5c-0.5-0.7-2.7-0.6-4.5-0.5c-0.8,0.1-1.6,0.2-2.2,0.3
		c-0.5,0-0.6-0.4-0.1-0.8c0.7-0.5,1.4-0.8,2.3-1.1c3-0.9,6.5-0.4,6.9,0.2C83.1,55.5,83.2,55.9,83.2,56.3z M78.2,60
		c-0.7,0.5-1.4,1-2.2,1.4c-5.5,3.3-12.7,5-18.8,5c-10,0-18.9-3.7-25.7-9.8c-0.6-0.5-0.1-1.2,0.6-0.8c7.3,4.3,16.3,6.8,25.7,6.8
		c5.9,0,12.2-1.1,18.3-3.5c0.4-0.2,0.9-0.4,1.3-0.5C78.3,58.2,79.2,59.3,78.2,60z"/>
</g>
<text transform="matrix(1 0 0 1 108.5039 51.4967)" class="st2 st3">Buy on Amazon</text>
</svg>
