<svg id="Layer_1" data-name="Layer 1" xmlns="http://www.w3.org/2000/svg" viewBox="0 0 325 86"><path d="M325,65.8a20.06,20.06,0,0,1-20,20H20a20.06,20.06,0,0,1-20-20v-46A20.06,20.06,0,0,1,20-.2H305a20.06,20.06,0,0,1,20,20Z" transform="translate(0 0.2)" style="fill:#faa626"/><path d="M62,31.3c-1.3.1-2.7.2-4.2.4a25.24,25.24,0,0,0-6.3,1.5,9.37,9.37,0,0,0-6,9.1c0,5.7,3.7,8.6,8.3,8.6a16.2,16.2,0,0,0,4-.5A11.7,11.7,0,0,0,63,46.8a17.16,17.16,0,0,0,3.2,3.7,1.39,1.39,0,0,0,1.4-.1c1.2-1,3.2-2.7,4.3-3.7a1.09,1.09,0,0,0,.1-1.5c-1.1-1.4-2.1-2.5-2.1-5.1V31.4c0-3.7.3-7.1-2.4-9.6-2.2-2-5.7-2.8-8.4-2.8H57.9c-4.9.3-10.1,2.4-11.3,8.5a.94.94,0,0,0,.8,1.2l5.4.7a1.27,1.27,0,0,0,1-1.1A4.47,4.47,0,0,1,58,24.9h.4a4,4,0,0,1,3.1,1.4c.8,1.2.7,2.7.7,4.1l-.2.9ZM60.9,42.8a4.51,4.51,0,0,1-3.1,2.5c-.2,0-.5.1-.8.1-2.1,0-3.4-1.6-3.4-4.1,0-3.1,1.8-4.6,4.2-5.2a18.72,18.72,0,0,1,4.2-.4v1.2C62,39.2,62.1,40.9,60.9,42.8ZM83.2,56.3v.3c-.1,1.9-1,5.5-3.4,7.5-.5.4-.9.2-.7-.4.7-1.7,2.3-5.6,1.5-6.5-.5-.7-2.7-.6-4.5-.5-.8.1-1.6.2-2.2.3s-.6-.4-.1-.8a8.17,8.17,0,0,1,2.3-1.1c3-.9,6.5-.4,6.9.2A2.51,2.51,0,0,1,83.2,56.3Zm-5,3.7A16.44,16.44,0,0,1,76,61.4a38.29,38.29,0,0,1-44.5-4.8c-.6-.5-.1-1.2.6-.8a51,51,0,0,0,25.7,6.8,50.28,50.28,0,0,0,18.3-3.5,6.94,6.94,0,0,1,1.3-.5C78.3,58.2,79.2,59.3,78.2,60Z" transform="translate(0 0.2)" style="fill:#151515"/><g style="isolation:isolate"><path d="M110.69,51.5V32.73h6.13a7.48,7.48,0,0,1,4.6,1.27,4.52,4.52,0,0,1,1.66,3.81,3.43,3.43,0,0,1-.75,2.17,4.77,4.77,0,0,1-2,1.47A4.39,4.39,0,0,1,123.27,43a5,5,0,0,1,1.07,3.16,4.8,4.8,0,0,1-1.67,3.94,7,7,0,0,1-4.54,1.36Zm2.54-10.79h4.11a3.37,3.37,0,0,0,2.31-.78,2.74,2.74,0,0,0,.89-2.17,2.71,2.71,0,0,0-1-2.27,4.34,4.34,0,0,0-2.76-.76h-3.59Zm0,2v6.81h4.9a3.92,3.92,0,0,0,2.7-.85,3.11,3.11,0,0,0,1-2.43,3.38,3.38,0,0,0-1-2.52,3.85,3.85,0,0,0-2.64-1h-4.94Z" transform="translate(0 0.2)"/><path d="M136,49.44a4.73,4.73,0,0,1-1.69,1.72,4.56,4.56,0,0,1-2.38.61,4.48,4.48,0,0,1-3.56-1.46,6.75,6.75,0,0,1-1.28-4.53V37.55h2.54V45.8a5.18,5.18,0,0,0,.66,3.07,2.44,2.44,0,0,0,2,.84,4.21,4.21,0,0,0,2.23-.55,3.44,3.44,0,0,0,1.34-1.55V37.55h2.54v14h-2.29Z" transform="translate(0 0.2)"/><path d="M146.39,46.33l.45,1.75h.08l3.43-10.53h2.82L147.3,53.64a7.11,7.11,0,0,1-1.51,2.44,3.47,3.47,0,0,1-2.66,1.05,6.88,6.88,0,0,1-.79-.07c-.32-.05-.56-.1-.73-.14l.26-2,.45,0,.68,0a1.58,1.58,0,0,0,1.33-.72,7.65,7.65,0,0,0,.86-1.6l.61-1.46-5.18-13.66h2.83Z" transform="translate(0 0.2)"/><path d="M161.36,44.4A7.66,7.66,0,0,1,163,39.3a5.59,5.59,0,0,1,4.55-2,5.67,5.67,0,0,1,4.58,2,7.69,7.69,0,0,1,1.68,5.11v.28a7.61,7.61,0,0,1-1.68,5.1,5.62,5.62,0,0,1-4.56,2,5.71,5.71,0,0,1-4.57-2,7.65,7.65,0,0,1-1.68-5.1Zm2.54.28a6.55,6.55,0,0,0,.94,3.66,3.37,3.37,0,0,0,5.53,0,6.55,6.55,0,0,0,.94-3.66V44.4a6.5,6.5,0,0,0-.95-3.65,3.1,3.1,0,0,0-2.77-1.46,3.06,3.06,0,0,0-2.75,1.46,6.58,6.58,0,0,0-.94,3.65Z" transform="translate(0 0.2)"/><path d="M179.22,37.55l.18,2.08a5.13,5.13,0,0,1,1.75-1.72,4.65,4.65,0,0,1,2.39-.61A4.55,4.55,0,0,1,187,38.62a5.77,5.77,0,0,1,1.24,4.08v8.8h-2.54V42.75a3.77,3.77,0,0,0-.73-2.62,2.92,2.92,0,0,0-2.22-.77,4,4,0,0,0-2,.47,3.37,3.37,0,0,0-1.3,1.32V51.5H177v-14Z" transform="translate(0 0.2)"/><path d="M208.55,46.67h-7.06l-1.68,4.83h-2.59L204,32.73h2.18l6.62,18.77H210.2Zm-6.33-2.13h5.61l-2.73-8.06H205Z" transform="translate(0 0.2)"/><path d="M217.47,37.55l.18,1.83a4.74,4.74,0,0,1,1.73-1.54,5.28,5.28,0,0,1,2.44-.54,4.29,4.29,0,0,1,2.39.64,3.91,3.91,0,0,1,1.51,1.93A5.1,5.1,0,0,1,227.46,38,4.58,4.58,0,0,1,230,37.3a4.14,4.14,0,0,1,3.36,1.46,6.64,6.64,0,0,1,1.24,4.4V51.5H232V43.13a4.62,4.62,0,0,0-.71-2.92,2.57,2.57,0,0,0-2.11-.85,2.7,2.7,0,0,0-2.11.9,3.93,3.93,0,0,0-.94,2.28v9h-2.55V43.13a4.58,4.58,0,0,0-.73-2.86,2.53,2.53,0,0,0-2.1-.91,3.52,3.52,0,0,0-1.9.47,3.14,3.14,0,0,0-1.15,1.34V51.5H215.2v-14Z" transform="translate(0 0.2)"/><path d="M246.84,51.5c-.09-.42-.16-.8-.2-1.12a7.77,7.77,0,0,1-.09-1,5.88,5.88,0,0,1-1.85,1.68,4.74,4.74,0,0,1-2.45.68,4.54,4.54,0,0,1-3.32-1.12,4.08,4.08,0,0,1-1.14-3.07,3.59,3.59,0,0,1,1.62-3.12,7.48,7.48,0,0,1,4.38-1.13h2.76V42a2.58,2.58,0,0,0-.74-1.94,2.94,2.94,0,0,0-2.12-.72,3.05,3.05,0,0,0-2,.62,1.86,1.86,0,0,0-.77,1.48l-2.4,0,0-.08a3.33,3.33,0,0,1,1.42-2.78,5.92,5.92,0,0,1,3.91-1.26,5.79,5.79,0,0,1,3.82,1.2A4.27,4.27,0,0,1,249.09,42v6.72a13.3,13.3,0,0,0,.08,1.44,7.24,7.24,0,0,0,.28,1.37Zm-4.22-1.86a4.47,4.47,0,0,0,2.49-.71,3.32,3.32,0,0,0,1.44-1.62V45h-2.84a3.72,3.72,0,0,0-2.46.77,2.34,2.34,0,0,0-.92,1.82,1.9,1.9,0,0,0,.58,1.47A2.42,2.42,0,0,0,242.62,49.64Z" transform="translate(0 0.2)"/><path d="M255.17,49.51h8.06v2H252.15V49.72l7.53-10.16h-7.44v-2h10.55v1.73Z" transform="translate(0 0.2)"/><path d="M265.25,44.4a7.66,7.66,0,0,1,1.68-5.1,5.58,5.58,0,0,1,4.54-2,5.68,5.68,0,0,1,4.59,2,7.69,7.69,0,0,1,1.68,5.11v.28a7.61,7.61,0,0,1-1.68,5.1,5.63,5.63,0,0,1-4.56,2,5.7,5.7,0,0,1-4.57-2,7.65,7.65,0,0,1-1.68-5.1Zm2.54.28a6.63,6.63,0,0,0,.93,3.66,3.38,3.38,0,0,0,5.54,0,6.63,6.63,0,0,0,.94-3.66V44.4a6.58,6.58,0,0,0-.95-3.65,3.35,3.35,0,0,0-5.53,0,6.66,6.66,0,0,0-.93,3.65Z" transform="translate(0 0.2)"/><path d="M283.11,37.55l.18,2.08A5.13,5.13,0,0,1,285,37.91a4.65,4.65,0,0,1,2.39-.61,4.55,4.55,0,0,1,3.49,1.32,5.77,5.77,0,0,1,1.24,4.08v8.8h-2.54V42.75a3.77,3.77,0,0,0-.73-2.62,2.93,2.93,0,0,0-2.22-.77,4,4,0,0,0-2,.47,3.37,3.37,0,0,0-1.3,1.32V51.5h-2.54v-14Z" transform="translate(0 0.2)"/></g></svg>