<?xml version="1.0" encoding="utf-8"?>
<!-- Generator: Adobe Illustrator 24.3.0, SVG Export Plug-In . SVG Version: 6.00 Build 0)  -->
<svg version="1.1" xmlns="http://www.w3.org/2000/svg" xmlns:xlink="http://www.w3.org/1999/xlink" x="0px" y="0px"
	 viewBox="0 0 100 100" style="enable-background:new 0 0 100 100;" xml:space="preserve">
<style type="text/css">
	.st0{fill:#242A30;}
	.st1{display:none;}
	.st2{display:inline;fill:#FFFFFF;}
	.st3{display:inline;}
	.st4{fill:#FFFFFF;stroke:#FFFFFF;stroke-width:5;stroke-miterlimit:10;}
	.st5{fill:#FFFFFF;}
</style>
<g id="Layer_1">
	<g id="Layer_2_1_">
		<circle class="st0" cx="50" cy="50" r="50"/>
	</g>
	<g id="Layer_3_1_" class="st1">
		<path class="st2" d="M68.4,32.4c-1.7-1.3-4-0.9-5.2,0.9L46,58.4l-9.5-10.3c-1.4-1.6-3.7-1.7-5.2-0.2s-1.6,4-0.2,5.6
			c0,0,11.5,12.8,13.2,14.1c1.7,1.3,4,0.9,5.2-0.9l19.8-28.9C70.4,36.1,70.1,33.6,68.4,32.4z"/>
	</g>
	<g id="Layer_4" class="st1">
		<g id="Layer_2_2_" class="st3">
			<path class="st4" d="M35.6,65.6c-0.3,0-0.6-0.1-0.9-0.3c-0.5-0.5-0.5-1.2,0-1.7l0,0l28.8-28.8c0.5-0.5,1.2-0.5,1.7,0
				s0.5,1.2,0,1.7L36.4,65.3C36.2,65.5,35.9,65.6,35.6,65.6z"/>
			<path class="st4" d="M64.4,65.6c-0.3,0-0.6-0.1-0.9-0.3L34.7,36.4c-0.5-0.5-0.5-1.2,0-1.7s1.2-0.5,1.7,0l28.8,28.8
				c0.5,0.5,0.5,1.2,0,1.7l0,0C65,65.5,64.7,65.6,64.4,65.6z"/>
		</g>
	</g>
</g>
<g id="Layer_2">
	<g>
		<path class="st5" d="M34.9,52.6c1-1.1,2.1-2.2,3.2-3.2c0.5-0.5,1-0.9,1.2-1c1.2-0.5,2.6,1,2.2,2.2c-0.1,0.3-0.4,0.7-1,1.2
			c-1.8,1.8-3.5,3.5-5.3,5.3c-1.2,1.2-2.2,2.3-3.7,0.7c-2-2.1-4-4-6.1-6.1c-0.8-0.8-1.4-1.7-0.6-2.7c1-1.3,2.1-0.6,3.1,0.4
			c1.1,1.1,2.1,2.1,3.2,3.1c0.1,0.1,0.1,0.1,0.2,0c0,0,0-0.1,0-0.1c0-2.3,0-4.5,0.5-6.8c1.7-7,7.3-12.5,14.3-13.9
			c5.2-1.1,10-0.1,14.5,2.9c1.1,0.7,1.9,1.7,1,2.9c-0.7,0.9-1.6,0.7-2.5,0.1c-0.9-0.6-1.8-1.2-2.7-1.6c-9.5-4.2-20.3,1.7-21.6,12.1
			c-0.2,1.4-0.2,2.9,0,4.3C34.8,52.6,34.8,52.6,34.9,52.6C34.8,52.6,34.9,52.6,34.9,52.6z"/>
		<path class="st5" d="M68.9,47.5c0,0-0.1,0-0.1,0c0,0,0,0,0,0.1c0,2.9-0.2,5.9-1.1,8.6C63.8,67,51.6,71.9,41.2,66.6
			c-1.2-0.6-4.3-2.3-2.7-4.1c0.9-1,1.9-0.5,2.9,0.2c6.5,4.3,15.2,3.2,20.2-2.8c2.9-3.4,4.1-7.6,3.6-12.3c0,0,0-0.1-0.1-0.1
			c0,0,0,0-0.1,0c-0.9,0.9-1.9,1.9-2.8,2.8c-1,0.9-1.9,2-3.1,1c-1-0.8-0.7-2.1,0.2-3c1.9-1.8,3.7-3.7,5.6-5.5
			c0.8-0.8,1.6-1.8,2.8-1.2c0.3,0.2,0.8,0.5,1.2,1c1.9,1.9,3.8,3.8,5.6,5.7c1,1,1.6,2.2,0.1,3.1c-0.7,0.4-1.5,0.3-2.2-0.4
			C71.2,49.9,70.1,48.7,68.9,47.5z"/>
	</g>
</g>
</svg>
