<svg id="Layer_1" data-name="Layer 1" xmlns="http://www.w3.org/2000/svg" viewBox="0 0 100 100"><g id="Layer_1-2" data-name="Layer 1"><g id="Layer_2" data-name="Layer 2"><circle cx="50" cy="50" r="50" style="fill:#fff"/></g><g style="isolation:isolate"><path d="M50,47.49a4.86,4.86,0,0,0,3.81-1.33,5.4,5.4,0,0,0,1.17-3.7A4.88,4.88,0,0,0,53.68,39,4.76,4.76,0,0,0,50,37.65,5.31,5.31,0,0,0,46.38,39a4.27,4.27,0,0,0-1.46,3.29H39.69l0-.13a7.56,7.56,0,0,1,2.86-6.3A11.22,11.22,0,0,1,50,33.27a11.31,11.31,0,0,1,7.56,2.35q2.77,2.34,2.78,6.84a7.37,7.37,0,0,1-1.23,4.12,8.27,8.27,0,0,1-3.4,2.93,8,8,0,0,1,3.82,3,8.5,8.5,0,0,1,1.32,4.8,8.75,8.75,0,0,1-3,7.07A11.69,11.69,0,0,1,50,66.92a12.3,12.3,0,0,1-7.56-2.44,7.6,7.6,0,0,1-3.15-6.66l.05-.14h5.25a4.53,4.53,0,0,0,1.52,3.47A5.49,5.49,0,0,0,50,62.56,5.32,5.32,0,0,0,54,61.09a5.17,5.17,0,0,0,1.46-3.79,5.7,5.7,0,0,0-1.36-4.15A5.55,5.55,0,0,0,50,51.78H46.32V47.49Z" style="fill:#141414"/></g></g></svg>