<svg id="Layer_1" data-name="Layer 1" xmlns="http://www.w3.org/2000/svg" viewBox="0 0 29 29"><circle cx="14.5" cy="14.5" r="14.5" style="fill:#e74cc2"/><path d="M18.9,17.9a1.6,1.6,0,0,1-1.4,1.2,2,2,0,0,1-1.7-.3,1.3,1.3,0,0,1-.1-1.9,4.21,4.21,0,0,1,2-.7.52.52,0,0,0,.4-.2c.2-.2.1-.1.1-4.2,0-.3-.1-.4-.4-.3s-4.8.9-4.8.9c-.3.1-.3.1-.3.4,0,6.1,0,5.8-.1,6.2a1.37,1.37,0,0,1-.8,1,4.53,4.53,0,0,1-1.6.3,1.33,1.33,0,0,1-.8-2.2,4.21,4.21,0,0,1,2-.7.52.52,0,0,0,.4-.2c.3-.3,0-6.7.1-7,0-.1.1-.2.2-.3a.49.49,0,0,1,.3-.1c5.3-1,5.9-1.1,6-1.1a.47.47,0,0,1,.5.5C19,18,19,17.5,18.9,17.9Z" style="fill:#fff"/></svg>