<?xml version="1.0" encoding="utf-8"?>
<!-- Generator: Adobe Illustrator 24.3.0, SVG Export Plug-In . SVG Version: 6.00 Build 0)  -->
<svg version="1.1" xmlns="http://www.w3.org/2000/svg" xmlns:xlink="http://www.w3.org/1999/xlink" x="0px" y="0px"
	 viewBox="0 0 29 29" style="enable-background:new 0 0 29 29;" xml:space="preserve">
<style type="text/css">
	.st0{fill:#9D8DFC;}
	.st1{display:none;fill:#FFFFFF;}
	.st2{fill:#FFFFFF;}
</style>
<g id="Layer_1">
	<circle class="st0" cx="14.5" cy="14.5" r="14.5"/>
	<path class="st1" d="M18.9,17.9c-0.2,0.7-0.7,1.1-1.4,1.2c-0.6,0.1-1.2,0.1-1.7-0.3c-0.6-0.5-0.6-1.4-0.1-1.9
		c0.4-0.4,1.1-0.5,2-0.7c0.2,0,0.3-0.1,0.4-0.2c0.2-0.2,0.1-0.1,0.1-4.2c0-0.3-0.1-0.4-0.4-0.3c-0.2,0-4.8,0.9-4.8,0.9
		c-0.3,0.1-0.3,0.1-0.3,0.4c0,6.1,0,5.8-0.1,6.2c-0.1,0.5-0.4,0.8-0.8,1c-0.4,0.2-1.2,0.3-1.6,0.3c-1.1-0.2-1.5-1.5-0.8-2.2
		c0.4-0.4,1.1-0.5,2-0.7c0.2,0,0.3-0.1,0.4-0.2c0.3-0.3,0-6.7,0.1-7c0-0.1,0.1-0.2,0.2-0.3c0.1-0.1,0.3-0.1,0.3-0.1
		c5.3-1,5.9-1.1,6-1.1c0.3,0,0.5,0.2,0.5,0.5C19,18,19,17.5,18.9,17.9z"/>
</g>
<g id="Layer_2">
	<path class="st2" d="M14.5,8.6c3.2,0,5.9,2.6,5.9,5.9s-2.6,5.9-5.9,5.9c-1.2,0-2.4-0.4-3.4-1.1c-0.3-0.3-0.4-0.7-0.2-1
		c0.2-0.3,0.7-0.4,1-0.2c0.7,0.5,1.6,0.8,2.5,0.8c2.4,0,4.4-2,4.4-4.4c0-2.4-2-4.4-4.4-4.4c-1.2,0-2.3,0.5-3.1,1.3l0.7,0.7
		c0.3,0.3,0.1,0.9-0.4,0.9H9.2c-0.3,0-0.5-0.2-0.5-0.5V10c0-0.5,0.6-0.7,0.9-0.4l0.8,0.8C11.4,9.3,12.9,8.6,14.5,8.6L14.5,8.6z
		 M14.5,11.6c0.3,0,0.5,0.2,0.5,0.5v2.2l1.5,1.5c0.2,0.2,0.2,0.6,0,0.8c-0.2,0.2-0.5,0.2-0.8,0l-1.6-1.6c-0.1-0.1-0.2-0.2-0.2-0.4
		v-2.4C13.9,11.8,14.2,11.6,14.5,11.6L14.5,11.6z"/>
</g>
</svg>
