<?xml version="1.0" encoding="utf-8"?>
<!-- Generator: Adobe Illustrator 24.3.0, SVG Export Plug-In . SVG Version: 6.00 Build 0)  -->
<svg version="1.1" id="Layer_1" xmlns="http://www.w3.org/2000/svg" xmlns:xlink="http://www.w3.org/1999/xlink" x="0px" y="0px"
	 viewBox="0 0 29 29" style="enable-background:new 0 0 29 29;" xml:space="preserve">
<style type="text/css">
	.st0{fill:#E74CC2;}
	.st1{fill:#FFFFFF;}
</style>
<circle class="st0" cx="14.5" cy="14.5" r="14.5"/>
<path class="st1" d="M18.9,17.9c-0.2,0.7-0.7,1.1-1.4,1.2c-0.6,0.1-1.2,0.1-1.7-0.3c-0.6-0.5-0.6-1.4-0.1-1.9c0.4-0.4,1.1-0.5,2-0.7
	c0.2,0,0.3-0.1,0.4-0.2c0.2-0.2,0.1-0.1,0.1-4.2c0-0.3-0.1-0.4-0.4-0.3c-0.2,0-4.8,0.9-4.8,0.9c-0.3,0.1-0.3,0.1-0.3,0.4
	c0,6.1,0,5.8-0.1,6.2c-0.1,0.5-0.4,0.8-0.8,1c-0.4,0.2-1.2,0.3-1.6,0.3c-1.1-0.2-1.5-1.5-0.8-2.2c0.4-0.4,1.1-0.5,2-0.7
	c0.2,0,0.3-0.1,0.4-0.2c0.3-0.3,0-6.7,0.1-7c0-0.1,0.1-0.2,0.2-0.3c0.1-0.1,0.3-0.1,0.3-0.1c5.3-1,5.9-1.1,6-1.1
	c0.3,0,0.5,0.2,0.5,0.5C19,18,19,17.5,18.9,17.9z"/>
</svg>
