<svg id="Layer_1" data-name="Layer 1" xmlns="http://www.w3.org/2000/svg" viewBox="0 0 29 29"><g id="Layer_1-2" data-name="Layer 1"><circle cx="14.5" cy="14.5" r="14.5" style="fill:#6cacc5"/></g><g id="Layer_3" data-name="Layer 3"><path d="M19.8,15.7a.65.65,0,0,0-.6.6v2.3a.65.65,0,0,1-.6.6H10.4a.65.65,0,0,1-.6-.6V16.3a.6.6,0,1,0-1.2,0v2.3a1.79,1.79,0,0,0,1.8,1.8h8.2a1.79,1.79,0,0,0,1.8-1.8V16.3A.58.58,0,0,0,19.8,15.7Zm-5.7,1c.1.1.1.1.2.1a.3.3,0,0,0,.4,0c.1,0,.1-.1.2-.1l2.3-2.3a.57.57,0,0,0-.8-.8l-1.3,1.3V9.2a.6.6,0,0,0-1.2,0v5.6l-1.3-1.3a.57.57,0,1,0-.8.8Z" style="fill:#fff"/></g></svg>