<svg id="Layer_1" data-name="Layer 1" xmlns="http://www.w3.org/2000/svg" viewBox="0 0 100 100"><g id="Layer_1-2" data-name="Layer 1"><g id="Layer_2" data-name="Layer 2"><circle cx="50" cy="50" r="50" style="fill:#fff"/></g><g style="isolation:isolate"><path d="M48.5,62.56a5.85,5.85,0,0,0,4.59-2,8.25,8.25,0,0,0,1.76-5.62V52.58a7,7,0,0,1-2.63,2.27,7.48,7.48,0,0,1-3.37.77,9.25,9.25,0,0,1-7.28-2.95q-2.64-2.94-2.64-8.1a11.45,11.45,0,0,1,3-8.11,9.67,9.67,0,0,1,7.42-3.19,10.49,10.49,0,0,1,8,3.21c2,2.14,3,5.14,3,9v9.28q0,5.68-3.31,8.93a11.67,11.67,0,0,1-8.5,3.25A18.82,18.82,0,0,1,45,66.56a16.08,16.08,0,0,1-3.38-1.06l.87-4.16a13.64,13.64,0,0,0,2.86.94A16.75,16.75,0,0,0,48.5,62.56Zm.87-11.19a6.47,6.47,0,0,0,3.35-.82,5.61,5.61,0,0,0,2.13-2.14V44.52a7.87,7.87,0,0,0-1.45-5.09,4.87,4.87,0,0,0-4-1.78,4.29,4.29,0,0,0-3.6,2,8.25,8.25,0,0,0-1.43,5,8.54,8.54,0,0,0,1.29,4.94A4.25,4.25,0,0,0,49.37,51.37Z" style="fill:#141414"/></g></g></svg>