<svg id="Layer_1" data-name="Layer 1" xmlns="http://www.w3.org/2000/svg" viewBox="0 0 100 100"><g id="Layer_1-2" data-name="Layer 1"><g id="Layer_2" data-name="Layer 2"><circle cx="50" cy="50" r="50" style="fill:#fff"/></g><g style="isolation:isolate"><path d="M61,66.44H39.94V62.69L50.16,50.88A27.57,27.57,0,0,0,53.62,46a8.19,8.19,0,0,0,1-3.66A4.94,4.94,0,0,0,53.41,39a4.25,4.25,0,0,0-3.34-1.31,4.76,4.76,0,0,0-3.89,1.64,6.28,6.28,0,0,0-1.35,4.13H39.56l-.05-.13a9.36,9.36,0,0,1,2.77-7.11,10.49,10.49,0,0,1,7.79-2.91,10.22,10.22,0,0,1,7.33,2.51A8.71,8.71,0,0,1,60,42.39a9.86,9.86,0,0,1-1.47,5.19,60.64,60.64,0,0,1-4.84,6.49L46.83,62l.05.12H61Z" style="fill:#141414"/></g></g></svg>