<svg id="Layer_1" data-name="Layer 1" xmlns="http://www.w3.org/2000/svg" viewBox="0 0 102 102"><g id="Layer_2" data-name="Layer 2"><circle cx="51" cy="51" r="48" style="fill:#fff;stroke:#141414;stroke-miterlimit:10;stroke-width:6px"/></g><g id="Layer_4" data-name="Layer 4"><g id="Layer_2-2" data-name="Layer 2"><path d="M35.6,65.6a1.61,1.61,0,0,1-.9-.3,1.15,1.15,0,0,1,0-1.7h0L63.5,34.8a1.2,1.2,0,0,1,1.7,1.7L36.4,65.3A1.14,1.14,0,0,1,35.6,65.6Z" transform="translate(1 1)" style="fill:#141414;stroke:#141414;stroke-miterlimit:10;stroke-width:5px"/><path d="M64.4,65.6a1.61,1.61,0,0,1-.9-.3L34.7,36.4a1.2,1.2,0,1,1,1.7-1.7L65.2,63.5a1.15,1.15,0,0,1,0,1.7h0A.91.91,0,0,1,64.4,65.6Z" transform="translate(1 1)" style="fill:#141414;stroke:#141414;stroke-miterlimit:10;stroke-width:5px"/></g></g></svg>