<svg id="Layer_1" data-name="Layer 1" xmlns="http://www.w3.org/2000/svg" viewBox="0 0 100 100"><g id="Layer_1-2" data-name="Layer 1"><g id="Layer_2" data-name="Layer 2"><circle cx="50" cy="50" r="50" style="fill:#242a30"/></g></g><g id="Layer_2-2" data-name="Layer 2"><path d="M34.9,52.6c1-1.1,2.1-2.2,3.2-3.2a6.7,6.7,0,0,1,1.2-1c1.2-.5,2.6,1,2.2,2.2a3.07,3.07,0,0,1-1,1.2l-5.3,5.3c-1.2,1.2-2.2,2.3-3.7.7-2-2.1-4-4-6.1-6.1-.8-.8-1.4-1.7-.6-2.7,1-1.3,2.1-.6,3.1.4s2.1,2.1,3.2,3.1c.1.1.1.1.2,0v-.1a31.17,31.17,0,0,1,.5-6.8A18.64,18.64,0,0,1,46.1,31.7a18.31,18.31,0,0,1,14.5,2.9c1.1.7,1.9,1.7,1,2.9-.7.9-1.6.7-2.5.1A19.1,19.1,0,0,0,56.4,36,15.54,15.54,0,0,0,34.8,52.4c0,.2,0,.2.1.2Z" style="fill:#fff"/><path d="M68.9,47.5h-.1v.1a27.46,27.46,0,0,1-1.1,8.6A18.81,18.81,0,0,1,41.2,66.6c-1.2-.6-4.3-2.3-2.7-4.1.9-1,1.9-.5,2.9.2a15.27,15.27,0,0,0,20.2-2.8,15.77,15.77,0,0,0,3.6-12.3.1.1,0,0,0-.1-.1H65l-2.8,2.8c-1,.9-1.9,2-3.1,1-1-.8-.7-2.1.2-3,1.9-1.8,3.7-3.7,5.6-5.5.8-.8,1.6-1.8,2.8-1.2a4.84,4.84,0,0,1,1.2,1c1.9,1.9,3.8,3.8,5.6,5.7,1,1,1.6,2.2.1,3.1a1.74,1.74,0,0,1-2.2-.4C71.2,49.9,70.1,48.7,68.9,47.5Z" style="fill:#fff"/></g></svg>