<?xml version="1.0" encoding="utf-8"?>
<!-- Generator: Adobe Illustrator 24.3.0, SVG Export Plug-In . SVG Version: 6.00 Build 0)  -->
<svg version="1.1" id="Layer_1" xmlns="http://www.w3.org/2000/svg" xmlns:xlink="http://www.w3.org/1999/xlink" x="0px" y="0px"
	 viewBox="0 0 100 100" style="enable-background:new 0 0 100 100;" xml:space="preserve">
<style type="text/css">
	.st0{fill:#FFFFFF;stroke:#141414;stroke-width:6;stroke-miterlimit:10;}
	.st1{display:none;}
	.st2{display:inline;fill:#FFFFFF;}
	.st3{fill:#141414;stroke:#141414;stroke-width:5;stroke-miterlimit:10;}
</style>
<g id="Layer_2_1_">
	<circle class="st0" cx="50" cy="50" r="48"/>
</g>
<g id="Layer_3_1_" class="st1">
	<path class="st2" d="M68.4,32.4c-1.7-1.3-4-0.9-5.2,0.9L46,58.4l-9.5-10.3c-1.4-1.6-3.7-1.7-5.2-0.2s-1.6,4-0.2,5.6
		c0,0,11.5,12.8,13.2,14.1c1.7,1.3,4,0.9,5.2-0.9l19.8-28.9C70.4,36.1,70.1,33.6,68.4,32.4z"/>
</g>
<g id="Layer_4">
	<g id="Layer_2_2_">
		<path class="st3" d="M35.6,65.6c-0.3,0-0.6-0.1-0.9-0.3c-0.5-0.5-0.5-1.2,0-1.7l0,0l28.8-28.8c0.5-0.5,1.2-0.5,1.7,0
			s0.5,1.2,0,1.7L36.4,65.3C36.2,65.5,35.9,65.6,35.6,65.6z"/>
		<path class="st3" d="M64.4,65.6c-0.3,0-0.6-0.1-0.9-0.3L34.7,36.4c-0.5-0.5-0.5-1.2,0-1.7s1.2-0.5,1.7,0l28.8,28.8
			c0.5,0.5,0.5,1.2,0,1.7l0,0C65,65.5,64.7,65.6,64.4,65.6z"/>
	</g>
</g>
</svg>
