<svg id="Layer_1" data-name="Layer 1" xmlns="http://www.w3.org/2000/svg" viewBox="0 0 100 100"><g id="Layer_1-2" data-name="Layer 1"><g id="Layer_2" data-name="Layer 2"><circle cx="50" cy="50" r="50" style="fill:#fff"/></g><g style="isolation:isolate"><path d="M51.62,33.27a17.74,17.74,0,0,1,3.68.37,16.63,16.63,0,0,1,3.19,1l-1.06,4.22A18.43,18.43,0,0,0,54.74,38a13.53,13.53,0,0,0-3.1-.31,5.76,5.76,0,0,0-4.82,2.41A10.21,10.21,0,0,0,45,46.45v1.71a9.53,9.53,0,0,1,3.16-2.07,10.71,10.71,0,0,1,4-.74,8.15,8.15,0,0,1,6.61,2.9,11.46,11.46,0,0,1,2.42,7.59,11.19,11.19,0,0,1-2.9,8,10,10,0,0,1-7.66,3.06,10.25,10.25,0,0,1-8-3.49Q39.56,60,39.56,53.91V46.79A13.86,13.86,0,0,1,43,37,11.22,11.22,0,0,1,51.62,33.27ZM50.4,49.6a7.13,7.13,0,0,0-3.31.7,5.21,5.21,0,0,0-2.1,2v2a10.29,10.29,0,0,0,1.6,6.13,4.79,4.79,0,0,0,4.06,2.23,4.37,4.37,0,0,0,3.76-1.89,8,8,0,0,0,1.36-4.83,6.84,6.84,0,0,0-1.42-4.56A4.92,4.92,0,0,0,50.4,49.6Z" style="fill:#141414"/></g></g></svg>