<svg id="Layer_1" data-name="Layer 1" xmlns="http://www.w3.org/2000/svg" viewBox="0 0 100 100"><g id="Layer_1-2" data-name="Layer 1"><g id="Layer_2" data-name="Layer 2"><circle cx="50" cy="50" r="50" style="fill:#fff"/></g><g style="isolation:isolate"><path d="M40.48,52l1.88-18.24H59.61v4.72H46.9l-1,8.33a9.53,9.53,0,0,1,2.3-1.17,9.23,9.23,0,0,1,3-.49A8.83,8.83,0,0,1,58.27,48q2.53,2.9,2.53,8a11.49,11.49,0,0,1-2.67,7.88c-1.78,2-4.45,3-8,3a11.46,11.46,0,0,1-7.28-2.33A7.65,7.65,0,0,1,40,58l.05-.11,5.12-.16a4.68,4.68,0,0,0,1.38,3.59,5.06,5.06,0,0,0,3.6,1.29A4.6,4.6,0,0,0,54,60.83,7.75,7.75,0,0,0,55.35,56,7.56,7.56,0,0,0,54,51.32a4.63,4.63,0,0,0-3.91-1.79,6.16,6.16,0,0,0-3.34.72,4,4,0,0,0-1.58,2.11Z" style="fill:#141414"/></g></g></svg>