<svg id="Layer_1" data-name="Layer 1" xmlns="http://www.w3.org/2000/svg" viewBox="0 0 78 78"><g id="Layer_1-2" data-name="Layer 1"><circle cx="39" cy="39" r="39" style="fill:#fff"/></g><g id="Layer_2" data-name="Layer 2"><g id="Layer_3" data-name="Layer 3"><path d="M38.9,35.4c0-5.5-4.2-10-9.4-10s-9.4,4.5-9.4,10a13.47,13.47,0,0,0,3.8,10c3.5,3.7,15.1,12,15.1,12s11.5-8.4,15-12a13.76,13.76,0,0,0,3.8-10c0-5.5-4.2-10-9.4-10a9.8,9.8,0,0,0-9.5,10" transform="translate(-0.1 -1)" style="fill:#f038a4"/><path d="M38.8,35.3" transform="translate(-0.1 -1)" style="fill:#f038a4"/></g><g id="Layer_4" data-name="Layer 4"><rect x="35.3" y="30.9" width="8.4" height="6.7" style="fill:#f038a4"/></g></g><g id="Layer_3-2" data-name="Layer 3"><path d="M39.2,58S21.1,47.9,21.1,35.5a9.39,9.39,0,0,1,9.4-9.4,9.49,9.49,0,0,1,8.7,5.8h0a9.41,9.41,0,0,1,18.1,3.6C57.3,47.8,39.2,58,39.2,58Z" transform="translate(-0.1 -1)" style="fill:none;stroke:#f038a4;stroke-linecap:round;stroke-linejoin:round;stroke-width:3px"/></g></svg>