<svg id="Layer_1" data-name="Layer 1" xmlns="http://www.w3.org/2000/svg" viewBox="0 0 100 100"><g id="Layer_1-2" data-name="Layer 1"><g id="Layer_2" data-name="Layer 2"><circle cx="50" cy="50" r="50" style="fill:#fff"/></g><g style="isolation:isolate"><path d="M60.11,42.19a7.38,7.38,0,0,1-1.33,4.36,8.62,8.62,0,0,1-3.59,2.94,9.79,9.79,0,0,1,4.3,3.12,7.55,7.55,0,0,1,1.61,4.76,8.59,8.59,0,0,1-3.05,7.05,11.83,11.83,0,0,1-7.74,2.5,12.77,12.77,0,0,1-8.14-2.5A8.47,8.47,0,0,1,39,57.37a7.41,7.41,0,0,1,1.65-4.76,10,10,0,0,1,4.48-3.12,8.8,8.8,0,0,1-3.75-2.94A7.21,7.21,0,0,1,40,42.19a8,8,0,0,1,2.83-6.63,11.37,11.37,0,0,1,7.41-2.29,10.71,10.71,0,0,1,7.09,2.3A8.16,8.16,0,0,1,60.11,42.19Zm-4.45,15a5.34,5.34,0,0,0-1.55-4,5.24,5.24,0,0,0-3.84-1.53,5.87,5.87,0,0,0-4.16,1.53,5.19,5.19,0,0,0-1.64,4,5,5,0,0,0,1.63,3.92,6.05,6.05,0,0,0,4.21,1.47,5.29,5.29,0,0,0,3.82-1.47A5.19,5.19,0,0,0,55.66,57.17Zm-1-14.78A4.79,4.79,0,0,0,53.41,39a4.13,4.13,0,0,0-3.14-1.31,4.75,4.75,0,0,0-3.47,1.27,4.57,4.57,0,0,0-1.31,3.47A4.83,4.83,0,0,0,46.83,46a4.72,4.72,0,0,0,3.48,1.36A4,4,0,0,0,53.42,46,5.1,5.1,0,0,0,54.65,42.39Z" style="fill:#141414"/></g></g></svg>