<svg id="Layer_1" data-name="Layer 1" xmlns="http://www.w3.org/2000/svg" viewBox="0 0 100 100"><g id="Layer_2" data-name="Layer 2"><circle cx="50" cy="50" r="50" style="fill:#fff"/></g><g style="isolation:isolate"><path d="M43,65.44H37.57V37.77H30.62V33.44L43,32.27Z" style="fill:#141414"/><path d="M74.11,53.74c0,3.77-1,6.75-2.91,8.92a9.91,9.91,0,0,1-7.78,3.25,10,10,0,0,1-7.82-3.26q-2.94-3.27-2.94-8.91V44.46c0-3.75,1-6.73,2.92-8.91a9.89,9.89,0,0,1,7.79-3.28,10,10,0,0,1,7.81,3.28c1.95,2.18,2.93,5.16,2.93,8.91ZM68.65,43.63a8.38,8.38,0,0,0-1.39-5.13,4.58,4.58,0,0,0-3.89-1.85,4.51,4.51,0,0,0-3.88,1.85,8.45,8.45,0,0,0-1.37,5.13v10.9a8.43,8.43,0,0,0,1.39,5.17,4.6,4.6,0,0,0,3.91,1.86,4.53,4.53,0,0,0,3.87-1.85,8.54,8.54,0,0,0,1.36-5.18Z" style="fill:#141414"/></g></svg>