<?xml version="1.0" encoding="utf-8"?>
<!-- Generator: Adobe Illustrator 24.3.0, SVG Export Plug-In . SVG Version: 6.00 Build 0)  -->
<svg version="1.1" xmlns="http://www.w3.org/2000/svg" xmlns:xlink="http://www.w3.org/1999/xlink" x="0px" y="0px"
	 viewBox="0 0 78.9 80" style="enable-background:new 0 0 78.9 80;" xml:space="preserve">
<style type="text/css">
	.st0{fill:#FFFFFF;}
	.st1{display:none;}
	.st2{display:inline;}
	.st3{fill:#F038A4;}
	.st4{display:inline;fill:none;}
	.st5{fill:none;stroke:#F038A4;stroke-width:3;stroke-linecap:round;stroke-linejoin:round;}
</style>
<g id="Layer_1">
	<circle class="st0" cx="39.1" cy="40" r="39"/>
</g>
<g id="Layer_2" class="st1">
	<g class="st2">
		<g id="Layer_3_3_">
			<g>
				<path class="st3" d="M38.9,35.4c0-5.5-4.2-10-9.4-10s-9.4,4.5-9.4,10c0,2.6,0.3,6.3,3.8,10s15.1,12,15.1,12S50.5,49,54,45.4
					c3.4-3.6,3.8-7.4,3.8-10c0-5.5-4.2-10-9.4-10S38.9,29.9,38.9,35.4"/>
				<path class="st3" d="M38.8,35.3"/>
			</g>
		</g>
		<g id="Layer_4_1_">
			<rect x="35.4" y="31.9" class="st3" width="8.4" height="6.7"/>
		</g>
		<g id="Layer_1_2_" class="st1">
			<rect x="17" y="19.9" class="st4" width="44.2" height="44.2"/>
			<path class="st4" d="M39.1,57.2c0,0-17.3-9.7-17.3-21.4c0-5,4-9,9-9c3.6,0,6.9,2.2,8.3,5.5l0,0c1.9-4.6,7.2-6.7,11.7-4.8
				c3.4,1.4,5.5,4.7,5.5,8.3C56.4,47.5,39.1,57.2,39.1,57.2z"/>
		</g>
	</g>
</g>
<g id="Layer_3_2_">
	<path class="st5" d="M39.2,58c0,0-18.1-10.1-18.1-22.5c0-5.2,4.2-9.4,9.4-9.4c3.8,0,7.2,2.3,8.7,5.8l0,0c2-4.8,7.5-7.1,12.3-5.1
		c3.5,1.5,5.8,4.9,5.8,8.7C57.3,47.8,39.2,58,39.2,58z"/>
</g>
</svg>
