<svg id="Layer_1" data-name="Layer 1" xmlns="http://www.w3.org/2000/svg" viewBox="0 0 29 29"><g id="Layer_1-2" data-name="Layer 1"><circle cx="14.5" cy="14.5" r="14.5" style="fill:#9d8dfc"/></g><g id="Layer_2" data-name="Layer 2"><path d="M14.5,8.6a5.91,5.91,0,0,1,5.9,5.9,5.85,5.85,0,0,1-5.9,5.9,6,6,0,0,1-3.4-1.1.8.8,0,0,1-.2-1,.78.78,0,0,1,1-.2,4.38,4.38,0,0,0,2.5.8,4.4,4.4,0,1,0,0-8.8,4.39,4.39,0,0,0-3.1,1.3l.7.7a.54.54,0,0,1-.4.9H9.2a.47.47,0,0,1-.5-.5V10a.54.54,0,0,1,.9-.4l.8.8a5.59,5.59,0,0,1,4.1-1.8Zm0,3a.47.47,0,0,1,.5.5v2.2l1.5,1.5a.57.57,0,1,1-.8.8L14.1,15a.52.52,0,0,1-.2-.4V12.2a.58.58,0,0,1,.6-.6Z" style="fill:#fff"/></g></svg>