<svg id="Layer_1" data-name="Layer 1" xmlns="http://www.w3.org/2000/svg" viewBox="0 0 29 29"><g id="Layer_1-2" data-name="Layer 1"><circle cx="14.5" cy="14.5" r="14.5" style="fill:#1703db"/></g><g id="Layer_4" data-name="Layer 4"><path d="M14.3,10.1h0a3.61,3.61,0,0,1,4.2-1.2,3.67,3.67,0,0,1,2.4,3.2A6.36,6.36,0,0,1,19,16.6a19.24,19.24,0,0,1-4.4,3.6.64.64,0,0,1-.6,0,18.19,18.19,0,0,1-4.5-3.8,6.58,6.58,0,0,1-1.7-4,3.67,3.67,0,0,1,3.5-3.8A3.56,3.56,0,0,1,14.3,10.1Z" transform="translate(0.2)" style="fill:#fff"/></g></svg>