<svg id="Layer_1" data-name="Layer 1" xmlns="http://www.w3.org/2000/svg" viewBox="0 0 18 18"><path d="M1.2,5.2v-2a2,2,0,0,1,2-2h2" transform="translate(-0.2 -0.2)" style="fill:none;stroke:#a1bfc9;stroke-linecap:round;stroke-linejoin:round;stroke-width:2px"/><path d="M1.2,13.2v2a2,2,0,0,0,2,2h2" transform="translate(-0.2 -0.2)" style="fill:none;stroke:#a1bfc9;stroke-linecap:round;stroke-linejoin:round;stroke-width:2px"/><path d="M13.2,1.2h2a2,2,0,0,1,2,2v2" transform="translate(-0.2 -0.2)" style="fill:none;stroke:#a1bfc9;stroke-linecap:round;stroke-linejoin:round;stroke-width:2px"/><path d="M13.2,17.2h2a2,2,0,0,0,2-2v-2" transform="translate(-0.2 -0.2)" style="fill:none;stroke:#a1bfc9;stroke-linecap:round;stroke-linejoin:round;stroke-width:2px"/><line x1="6" y1="9" x2="12" y2="9" style="fill:none;stroke:#a1bfc9;stroke-linecap:round;stroke-linejoin:round;stroke-width:2px"/><line x1="9" y1="6" x2="9" y2="12" style="fill:none;stroke:#a1bfc9;stroke-linecap:round;stroke-linejoin:round;stroke-width:2px"/></svg>