<svg id="Layer_1" data-name="Layer 1" xmlns="http://www.w3.org/2000/svg" viewBox="0 0 100 100"><g id="Layer_1-2" data-name="Layer 1"><path d="M100,84a16,16,0,0,1-16,16H16A16,16,0,0,1,0,84V16A16,16,0,0,1,16,0H84a16,16,0,0,1,16,16Z" style="fill:#242a30"/></g><g id="Layer_5" data-name="Layer 5"><path d="M51.5,36.2c.2-.1.4-.3.3-.5a5.93,5.93,0,0,0-1.6-.7,1.61,1.61,0,0,1-1.3-1.2,14.62,14.62,0,0,1-.5-2c-.1-.3-.3-.5-.6-.3a.52.52,0,0,0-.2.4c-.1.4-.2.8-.3,1.3-.3.9-.4,1.5-1.3,1.8a6.94,6.94,0,0,0-1.3.5c-.1,0-.2.1-.3.1-.2.2-.1.5.2.6s.8.3,1.3.4a1.73,1.73,0,0,1,1.3,1.3c.2.9.4,1.6.5,2,0,.1.1.1.1.2.3.2.5-.1.6-.3.1-.5.3-1,.4-1.5a2.19,2.19,0,0,1,.3-.9,2.7,2.7,0,0,1,.8-.7A6.42,6.42,0,0,0,51.5,36.2Z" style="fill:#fff"/><path d="M44,66.2,66.4,43.8a5.57,5.57,0,0,0,1.3-5.9,5.31,5.31,0,0,0-4.9-3.4,5.76,5.76,0,0,0-4,1.6L35.9,59a7.55,7.55,0,0,0-1.1,1.4,5.38,5.38,0,0,0,3.7,7.9,5.29,5.29,0,0,0,4.2-.9A14.2,14.2,0,0,0,44,66.2ZM60.9,44.8l-3.1-3.1c-.1-.1-.1-.2,0-.2L61,38.3a2.3,2.3,0,0,1,3.4,0h0a2.48,2.48,0,0,1,0,3.4h0l-3.2,3.2A.37.37,0,0,1,60.9,44.8Z" style="fill:#fff"/><path d="M40.6,45.6c.4-.1.5-.6,0-.7-.7-.2-1.3-.4-1.9-.6a1.71,1.71,0,0,1-1.3-1.4c-.3-1.2-.6-2-.6-2.3-.2-.6-.7-.5-.8,0-.3,1.1-.5,1.9-.7,2.5a1.8,1.8,0,0,1-1.2,1.2,20.48,20.48,0,0,0-2,.7c-.4.1-.3.6.1.7,1.1.3,1.8.6,2.1.7a1.89,1.89,0,0,1,1.1,1.2,15.37,15.37,0,0,0,.7,2.4c.1.2.1.4.3.5s.4-.2.5-.4c.3-1.1.5-1.9.7-2.5a1.67,1.67,0,0,1,1.1-1.2A5.45,5.45,0,0,1,40.6,45.6Z" style="fill:#fff"/><path d="M57.6,60.6c-.2.1-.2.3-.1.5s.1.1.3.2c.6.2,1.3.4,1.9.6.8.3,1.2.3,1.6,1a2.19,2.19,0,0,1,.3.9c.3.9.5,1.8.8,2.7,0,.1.1.3.2.3.2.2.5,0,.6-.2.3-1,.6-2.1.9-3.1.2-.8.7-1.1,1.5-1.4.6-.2,1.3-.4,2-.6a4.88,4.88,0,0,0,.7-.3.35.35,0,0,0-.1-.5c-.1,0-.2-.1-.3-.1-.8-.3-1.6-.5-2.4-.8a2,2,0,0,1-1.4-1.3c-.3-1-.6-2-.9-3.1-.1-.5-.6-.5-.8,0-.3,1-.6,2-.8,3a1.76,1.76,0,0,1-1.2,1.3c-.8.3-1.6.5-2.3.8A.4.4,0,0,0,57.6,60.6Z" style="fill:#fff"/></g></svg>