<svg id="Layer_1" data-name="Layer 1" xmlns="http://www.w3.org/2000/svg" viewBox="0 0 21.5 21.5"><path d="M20,12v9.4a.65.65,0,0,1-.6.6H4.6a.65.65,0,0,1-.6-.6V12" transform="translate(-1.25 -1.25)" style="fill:none;stroke:#fff;stroke-linecap:round;stroke-linejoin:round;stroke-width:1.5px"/><path d="M21.4,7H2.6a.65.65,0,0,0-.6.6v3.8a.65.65,0,0,0,.6.6H21.4a.65.65,0,0,0,.6-.6V7.6A.65.65,0,0,0,21.4,7Z" transform="translate(-1.25 -1.25)" style="fill:none;stroke:#fff;stroke-linecap:round;stroke-linejoin:round;stroke-width:1.5px"/><path d="M12,22V7" transform="translate(-1.25 -1.25)" style="fill:none;stroke:#fff;stroke-linecap:round;stroke-linejoin:round;stroke-width:1.5px"/><path d="M12,7H7.5a2.87,2.87,0,0,1-1.8-.7A2.87,2.87,0,0,1,5,4.5a2.87,2.87,0,0,1,.7-1.8A2.87,2.87,0,0,1,7.5,2C11,2,12,7,12,7Z" transform="translate(-1.25 -1.25)" style="fill:none;stroke:#fff;stroke-linecap:round;stroke-linejoin:round;stroke-width:1.5px"/><path d="M12,7h4.5a2.87,2.87,0,0,0,1.8-.7A2.87,2.87,0,0,0,19,4.5a2.87,2.87,0,0,0-.7-1.8A2.87,2.87,0,0,0,16.5,2C13,2,12,7,12,7Z" transform="translate(-1.25 -1.25)" style="fill:none;stroke:#fff;stroke-linecap:round;stroke-linejoin:round;stroke-width:1.5px"/></svg>