<?xml version="1.0" encoding="utf-8"?>
<!-- Generator: Adobe Illustrator 24.3.0, SVG Export Plug-In . SVG Version: 6.00 Build 0)  -->
<svg version="1.1" id="Layer_1" xmlns="http://www.w3.org/2000/svg" xmlns:xlink="http://www.w3.org/1999/xlink" x="0px" y="0px"
	 viewBox="0 0 217 197.5" style="enable-background:new 0 0 217 197.5;" xml:space="preserve">
<style type="text/css">
	.st0{display:none;}
	.st1{display:inline;fill:#151616;}
	.st2{fill:#38C1F0;}
	.st3{fill:none;}
	.st4{fill:none;stroke:#38C1F0;stroke-width:16;stroke-linecap:round;stroke-linejoin:round;}
</style>
<g id="Layer_2_1_" class="st0">
	<rect x="-10.5" y="-9" class="st1" width="252" height="216"/>
</g>
<g id="Layer_3">
	<g>
		<path class="st2" d="M107,63.4C107,33.9,84.4,10,56.5,10S6,33.9,6,63.4c0,13.8,1.8,34,20.2,53.4S107,181,107,181
			s62.4-44.7,80.8-64.1S208,77.2,208,63.4c0-29.5-22.6-53.4-50.5-53.4S107,33.9,107,63.4"/>
		<path class="st2" d="M106.5,63"/>
	</g>
</g>
<g id="Layer_4">
	<rect x="88.5" y="45" class="st2" width="45" height="36"/>
</g>
<g id="Layer_1_1_">
	<rect x="-19.5" y="-29" class="st3" width="256" height="256"/>
	<path class="st4" d="M108.5,187c0,0-100-56-100-124c0-28.7,23.3-52,52-52c21,0,39.9,12.6,48,32l0,0c11-26.5,41.5-39,68-28
		c19.4,8.1,32,27,32,48C208.5,131,108.5,187,108.5,187z"/>
</g>
</svg>
