<svg id="Layer_1" data-name="Layer 1" xmlns="http://www.w3.org/2000/svg" viewBox="0 0 256 256"><g id="Layer_3" data-name="Layer 3"><path d="M107,63.4C107,33.9,84.4,10,56.5,10S6,33.9,6,63.4c0,13.8,1.8,34,20.2,53.4S107,181,107,181s62.4-44.7,80.8-64.1S208,77.2,208,63.4C208,33.9,185.4,10,157.5,10S107,33.9,107,63.4" transform="translate(19.5 29)" style="fill:#fff"/><path d="M106.5,63" transform="translate(19.5 29)" style="fill:#fff"/></g><g id="Layer_4" data-name="Layer 4"><rect x="108" y="74" width="45" height="36" style="fill:#fff"/></g><g id="Layer_1-2" data-name="Layer 1"><rect width="256" height="256" style="fill:none"/><path d="M108.5,187S8.5,131,8.5,63a52,52,0,0,1,100-20h0a52,52,0,0,1,100,20C208.5,131,108.5,187,108.5,187Z" transform="translate(19.5 29)" style="fill:none;stroke:#fff;stroke-linecap:round;stroke-linejoin:round;stroke-width:16px"/></g></svg>