<svg id="Layer_1" data-name="Layer 1" xmlns="http://www.w3.org/2000/svg" viewBox="0 0 361.74 356.08"><g id="Layer_1-2" data-name="Layer 1"><path d="M240.2,3.6c-36.6.1-73.1-.2-109.7,0a191.15,191.15,0,0,0-20,.8A121,121,0,0,0,4.2,106.7c-1.2,7.8-1.4,19.2-1.4,28.9Q2.65,203,2.9,270.2c0,8.6.6,14.8,1.6,18.5,3.5,13,13,24.3,24.9,30.7,3.3,1.8,9,3.8,17.2,6Q123.7,346,151.5,353.3c8.1,2.1,22.1,6.2,31.2,6.3a58.68,58.68,0,0,0,17.3-2.4q25.8-7.05,125.5-33.3c17.9-4.7,32-16.7,36.7-34.6,1.1-4,1.6-10.5,1.7-19.4.4-35.5.1-70.9.5-106.4.2-18.8,0-34.5-.7-47.2C360.2,50.2,305.6,3.4,240.2,3.6Z" transform="translate(-2.73 -3.53)" style="fill:#ff9a9e"/></g><g id="Layer_2" data-name="Layer 2"><path d="M183.6,216.1a34.44,34.44,0,0,0,34.5-34.5V124.1a34.5,34.5,0,0,0-69,0v57.5A34.5,34.5,0,0,0,183.6,216.1Z" transform="translate(-2.73 -3.53)" style="fill:#141414"/><path d="M241.1,181.6v-23H229.6v21.2c0,22.1-14.7,42.4-36.4,46.8a46,46,0,0,1-55.6-45v-23H126.1v23a57.5,57.5,0,0,0,46,56.3v24.2h-23v11.5h69V262.1h-23V237.9A57.67,57.67,0,0,0,241.1,181.6Z" transform="translate(-2.73 -3.53)" style="fill:#141414"/></g></svg>