<svg id="Layer_1" data-name="Layer 1" xmlns="http://www.w3.org/2000/svg" viewBox="0 0 361.78 355.88"><g id="Layer_1-2" data-name="Layer 1"><path d="M240.2,359.4c-36.6-.1-73.1.2-109.7,0a191.15,191.15,0,0,1-20-.8A121,121,0,0,1,4.2,256.4c-1.2-7.8-1.4-19.2-1.4-28.9Q2.5,160.3,2.9,93c0-8.6.6-14.8,1.6-18.5,3.5-13,13-24.3,24.9-30.7,3.3-1.8,9-3.8,17.2-6Q123.7,17.25,151.5,9.9c8.1-2.1,22.1-6.2,31.2-6.3A58.68,58.68,0,0,1,200,6q25.8,7,125.5,33.3c17.9,4.7,32,16.7,36.7,34.6,1.1,4,1.6,10.5,1.7,19.4.4,35.5.1,70.9.5,106.4.2,18.8,0,34.5-.7,47.1C360.2,312.9,305.6,359.7,240.2,359.4Z" transform="translate(-2.69 -3.59)" style="fill:#a290fe"/></g><g id="Layer_3" data-name="Layer 3"><path d="M154.1,244.2c0,13.7-13.8,24.7-30.9,24.7s-30.9-11.1-30.9-24.7,13.8-24.7,30.9-24.7S154.1,230.5,154.1,244.2Zm111.2-24.8c0,13.7-13.8,24.7-30.9,24.7s-30.9-11.1-30.9-24.7,13.8-24.7,30.9-24.7S265.3,205.8,265.3,219.4Z" transform="translate(-2.69 -3.59)" style="fill:#141414"/><path d="M252.9,219.4V108.2h12.4V219.4Zm-98.8-98.8V244.2H141.7V120.6Z" transform="translate(-2.69 -3.59)" style="fill:#141414;fill-rule:evenodd"/><path d="M141.7,119.4a12.36,12.36,0,0,1,11.1-12.3l98.9-9.9a12.34,12.34,0,0,1,13.5,11.1c0,.4.1.8.1,1.2v11.1L141.7,133V119.4Z" transform="translate(-2.69 -3.59)" style="fill:#141414"/></g></svg>