<?xml version="1.0" encoding="utf-8"?>
<!-- Generator: Adobe Illustrator 24.3.0, SVG Export Plug-In . SVG Version: 6.00 Build 0)  -->
<svg version="1.1" xmlns="http://www.w3.org/2000/svg" xmlns:xlink="http://www.w3.org/1999/xlink" x="0px" y="0px"
	 viewBox="0 0 367.3 363.1" style="enable-background:new 0 0 367.3 363.1;" xml:space="preserve">
<style type="text/css">
	.st0{fill:#FF9A9E;}
	.st1{fill:#141414;}
</style>
<g id="Layer_1">
	<path class="st0" d="M240.2,3.6c-36.6,0.1-73.1-0.2-109.7,0c-8.9,0-15.6,0.3-20,0.8C55.7,10.5,12.2,52.8,4.2,106.7
		c-1.2,7.8-1.4,19.2-1.4,28.9c-0.1,44.9-0.1,89.7,0.1,134.6c0,8.6,0.6,14.8,1.6,18.5c3.5,13,13,24.3,24.9,30.7c3.3,1.8,9,3.8,17.2,6
		c51.4,13.7,86.4,23,104.9,27.9c8.1,2.1,22.1,6.2,31.2,6.3c5.6,0.1,11.4-0.7,17.3-2.4c17.2-4.7,59-15.8,125.5-33.3
		c17.9-4.7,32-16.7,36.7-34.6c1.1-4,1.6-10.5,1.7-19.4c0.4-35.5,0.1-70.9,0.5-106.4c0.2-18.8,0-34.5-0.7-47.2
		C360.2,50.2,305.6,3.4,240.2,3.6z"/>
</g>
<g id="Layer_2">
	<g>
		<path class="st1" d="M183.6,216.1c19.1,0,34.5-15.4,34.5-34.5v-57.5c0-19.1-15.4-34.5-34.5-34.5s-34.5,15.4-34.5,34.5v57.5
			C149.1,200.6,164.5,216.1,183.6,216.1z"/>
		<path class="st1" d="M241.1,181.6v-23h-11.5v21.2c0,22.1-14.7,42.4-36.4,46.8c-29.6,6-55.6-16.5-55.6-45v-23h-11.5v23
			c0,27.8,19.8,51,46,56.3v24.2h-23v11.5h69v-11.5h-23v-24.2C221.3,232.5,241.1,209.3,241.1,181.6z"/>
	</g>
</g>
</svg>
