<svg id="Layer_1" data-name="Layer 1" xmlns="http://www.w3.org/2000/svg" viewBox="0 0 594 615.6"><g id="Layer_3" data-name="Layer 3"><path d="M373.6,211.7c-19.2-20.7-46-32.1-75.6-32.1-29.8,0-56.6,11.4-75.7,31.9-19.3,20.8-28.7,49.1-26.5,79.6C200.2,351.3,246,400.4,298,400.4s97.7-49,102.2-109.2C402.4,260.8,393,232.7,373.6,211.7Z" transform="translate(-1 -6.2)" style="fill:#fff"/><path d="M471.5,621.2h-347a30.62,30.62,0,0,1-23.9-11c-6.4-7.6-9-18.1-7.1-28.6,8.3-46.1,34.3-84.9,75.1-112.1,36.3-24.2,82.2-37.5,129.3-37.5s93,13.3,129.3,37.5c40.8,27.2,66.7,66,75.1,112.1,1.9,10.6-.7,21-7.1,28.6A29.93,29.93,0,0,1,471.5,621.2Z" transform="translate(-1 -6.2)" style="fill:#fff"/><g id="Layer_1-2" data-name="Layer 1"><path d="M533.1,6.2H62.9C28.8,6.2,1,35,1,70.3V557.7c0,35.4,27.8,64.1,61.9,64.1H533.1c34.1,0,61.9-28.8,61.9-64.1V70.3C595,35,567.3,6.2,533.1,6.2Zm37.2,551.5c0,21.2-16.7,38.5-37.1,38.5H62.9c-20.5,0-37.1-17.3-37.1-38.5V70.3c0-21.2,16.7-38.5,37.1-38.5H533.1c20.5,0,37.1,17.3,37.1,38.5l.1,487.4Z" transform="translate(-1 -6.2)" style="fill:#fff"/></g><polygon points="235.3 99.3 290 41.5 358.8 99.3 297 164.1 235.3 99.3" style="fill:none"/><polyline points="285.4 72.3 297 60.7 308.6 72.3" style="fill:none;stroke:#fff;stroke-linecap:round;stroke-linejoin:round;stroke-width:5px"/><line x1="297" y1="87.7" x2="297" y2="60.7" style="fill:none;stroke:#fff;stroke-linecap:round;stroke-linejoin:round;stroke-width:5px"/><polyline points="308.6 126.3 297 137.9 285.4 126.3" style="fill:none;stroke:#fff;stroke-linecap:round;stroke-linejoin:round;stroke-width:5px"/><line x1="297" y1="110.9" x2="297" y2="137.9" style="fill:none;stroke:#fff;stroke-linecap:round;stroke-linejoin:round;stroke-width:5px"/><polygon points="109.5 224 170.3 278.7 109.5 347.5 47.7 285.7 109.5 224" style="fill:none"/><polyline points="136.5 274.2 148.1 285.7 136.5 297.3" style="fill:none;stroke:#fff;stroke-linecap:round;stroke-linejoin:round;stroke-width:5px"/><line x1="121.1" y1="285.7" x2="148.1" y2="285.7" style="fill:none;stroke:#fff;stroke-linecap:round;stroke-linejoin:round;stroke-width:5px"/><polyline points="82.5 297.3 70.9 285.7 82.5 274.2" style="fill:none;stroke:#fff;stroke-linecap:round;stroke-linejoin:round;stroke-width:5px"/><line x1="97.9" y1="285.7" x2="70.9" y2="285.7" style="fill:none;stroke:#fff;stroke-linecap:round;stroke-linejoin:round;stroke-width:5px"/><polygon points="484.5 224 545.3 278.7 484.5 347.5 422.7 285.7 484.5 224" style="fill:none"/><polyline points="511.5 274.2 523.1 285.7 511.5 297.3" style="fill:none;stroke:#fff;stroke-linecap:round;stroke-linejoin:round;stroke-width:5px"/><line x1="496.1" y1="285.7" x2="523.1" y2="285.7" style="fill:none;stroke:#fff;stroke-linecap:round;stroke-linejoin:round;stroke-width:5px"/><polyline points="457.5 297.3 445.9 285.7 457.5 274.2" style="fill:none;stroke:#fff;stroke-linecap:round;stroke-linejoin:round;stroke-width:5px"/><line x1="472.9" y1="285.7" x2="445.9" y2="285.7" style="fill:none;stroke:#fff;stroke-linecap:round;stroke-linejoin:round;stroke-width:5px"/></g></svg>