<svg id="Layer_1" data-name="Layer 1" xmlns="http://www.w3.org/2000/svg" viewBox="0 0 416.01 761"><g id="Layer_1-2" data-name="Layer 1"><g id="person"><path d="M336.5,488.6c-19.5-21-46.6-32.6-76.6-32.6-30.2,0-57.4,11.5-76.8,32.4-19.6,21.1-29.1,49.8-26.9,80.8,4.4,61.1,51,110.8,103.7,110.8s99.2-49.7,103.7-110.8C365.8,538.5,356.2,509.9,336.5,488.6Z" transform="translate(-51.79 -143)" style="fill:#fff"/><path d="M435.8,904H83.8a31.32,31.32,0,0,1-24.2-11.1c-6.5-7.8-9.1-18.4-7.2-29.1C60.8,817,87.2,777.6,128.6,750c36.8-24.5,83.4-38,131.2-38s94.4,13.5,131.2,38c41.4,27.6,67.7,66.9,76.2,113.8,1.9,10.7-.7,21.3-7.2,29.1A31,31,0,0,1,435.8,904Z" transform="translate(-51.79 -143)" style="fill:#fff"/></g></g><g id="Layer_3" data-name="Layer 3"><g id="Layer_1-3" data-name="Layer 1"><path id="SVGID" d="M276.8,143H242.3c-5.2,0-8.6,3.5-8.6,8.6s3.5,8.6,8.6,8.6h34.5c5.2,0,8.6-3.5,8.6-8.6S282,143,276.8,143Zm-60.5,95h-8.6a51.8,51.8,0,1,0,72.5-47.5l-3.5,7.8h8.6V177.6a7.79,7.79,0,0,0-2.6-6,7.94,7.94,0,0,0-6-2.6H242.2a7.79,7.79,0,0,0-6,2.6,7.94,7.94,0,0,0-2.6,6v20.7h8.6l-3.5-7.8A51.57,51.57,0,0,0,207.6,238h17.3c0-13.8,8.6-25.9,20.7-32,3.5-.9,5.2-4.3,5.2-7.8V186.1h17.3v12.1c0,3.5,1.7,6.9,5.2,7.8,12.1,6,20.7,18.1,20.7,32,0,9.5-3.5,18.1-10.4,24.2-6,6.9-14.7,10.4-24.2,10.4s-18.1-3.5-24.2-10.4c-6.9-6-10.4-14.7-10.4-24.2Z" transform="translate(-51.79 -143)" style="fill:#fff"/></g><g id="Layer_2" data-name="Layer 2"><path d="M181.8,229.4h-8.6c-5.2,0-8.6,3.5-8.6,8.6a8.19,8.19,0,0,0,8.6,8.6h8.6c5.2,0,8.6-3.5,8.6-8.6S187,229.4,181.8,229.4Z" transform="translate(-51.79 -143)" style="fill:#38c1f0"/><path d="M197.3,288.1l-8.6,8.6a8.56,8.56,0,0,0,12.1,12.1l8.6-8.6a8.56,8.56,0,1,0-12.1-12.1Z" transform="translate(-51.79 -143)" style="fill:#38c1f0"/><path d="M250.9,315.7v8.6c0,5.2,3.5,8.6,8.6,8.6a8.19,8.19,0,0,0,8.6-8.6v-8.6c0-5.2-3.5-8.6-8.6-8.6S250.9,310.5,250.9,315.7Z" transform="translate(-51.79 -143)" style="fill:#38c1f0"/><path d="M309.6,300.2l8.6,8.6a8.56,8.56,0,0,0,12.1-12.1l-8.6-8.6a8.56,8.56,0,1,0-12.1,12.1Z" transform="translate(-51.79 -143)" style="fill:#38c1f0"/><path d="M337.2,246.6h8.6c5.2,0,8.6-3.5,8.6-8.6a8.19,8.19,0,0,0-8.6-8.6h-8.6c-5.2,0-8.6,3.5-8.6,8.6S332,246.6,337.2,246.6Z" transform="translate(-51.79 -143)" style="fill:#38c1f0"/></g></g></svg>