<?xml version="1.0" encoding="utf-8"?>
<!-- Generator: Adobe Illustrator 24.3.0, SVG Export Plug-In . SVG Version: 6.00 Build 0)  -->
<svg version="1.1" xmlns="http://www.w3.org/2000/svg" xmlns:xlink="http://www.w3.org/1999/xlink" x="0px" y="0px"
	 viewBox="0 0 518.5 951" style="enable-background:new 0 0 518.5 951;" xml:space="preserve">
<style type="text/css">
	.st0{display:none;}
	.st1{display:inline;}
	.st2{fill:none;}
	.st3{fill:none;stroke:#FFFFFF;stroke-width:5;stroke-linecap:round;stroke-linejoin:round;}
	.st4{fill:#FFFFFF;}
	.st5{fill:#38C1F0;}
</style>
<g id="Layer_2" class="st0">
	<rect class="st1" width="518" height="951"/>
</g>
<g id="arrows_out">
	<polygon class="st2" points="198.1,371.9 252.8,311.1 321.6,371.9 259.8,433.7 	"/>
	<polyline class="st3" points="248.3,344.9 259.8,333.3 271.4,344.9 	"/>
	<line class="st3" x1="259.8" y1="360.3" x2="259.8" y2="333.3"/>
	<polyline class="st3" points="271.4,398.9 259.8,410.5 248.3,398.9 	"/>
	<line class="st3" x1="259.8" y1="383.5" x2="259.8" y2="410.5"/>
</g>
<g id="phone_1_">
	<g id="layer1">
		<path id="rect26" class="st4" d="M212.8,56c-9.8,0-17.6,8.8-17.6,19.8v189.3c0,11,7.9,19.8,17.6,19.8h94.1
			c9.8,0,17.6-8.8,17.6-19.8V75.8c0-11-7.9-19.8-17.6-19.8H212.8z M217.4,64.1h84.8c8.8,0,15.9,7.9,15.9,17.9v170.6
			c0,9.9-7.1,17.9-15.9,17.9h-84.8c-8.8,0-15.9-8-15.9-17.9V81.9C201.5,72,208.6,64.1,217.4,64.1z M259.8,271.9
			c3.1,0,5.5,2.7,5.5,6.1c0,3.3-2.5,6.1-5.5,6.1c-3.1,0-5.5-2.7-5.5-6.1C254.3,274.6,256.8,271.9,259.8,271.9z"/>
	</g>
</g>
<g id="record_1_">
	<path class="st5" d="M259.8,220.5c-8.4,0-15.3,6.8-15.3,15.3s6.8,15.3,15.3,15.3s15.3-6.8,15.3-15.3
		C275.1,227.3,268.3,220.5,259.8,220.5z M259.8,248.7c-7.1,0-12.9-5.8-12.9-12.9c0-7.1,5.8-12.9,12.9-12.9c7.1,0,12.9,5.8,12.9,12.9
		C272.8,242.9,267,248.7,259.8,248.7z"/>
	<circle class="st5" cx="259.8" cy="235.7" r="10.6"/>
</g>
<g id="person_1_">
	<g>
		<path class="st4" d="M336.5,488.6c-19.5-21-46.6-32.6-76.6-32.6c-30.2,0-57.4,11.5-76.8,32.4c-19.6,21.1-29.1,49.8-26.9,80.8
			c4.4,61.1,51,110.8,103.7,110.8s99.2-49.7,103.7-110.8C365.8,538.5,356.2,509.9,336.5,488.6z"/>
		<path class="st4" d="M435.8,904h-352c-9.3,0.1-18.2-4-24.2-11.1c-6.5-7.8-9.1-18.4-7.2-29.1c8.4-46.8,34.8-86.2,76.2-113.8
			c36.8-24.5,83.4-38,131.2-38s94.4,13.5,131.2,38c41.4,27.6,67.7,66.9,76.2,113.8c1.9,10.7-0.7,21.3-7.2,29.1
			C454.1,900,445.2,904.1,435.8,904z"/>
	</g>
	<g>
		<path class="st4" d="M271,133.6c-2.7-3-6.6-4.6-10.8-4.6c-4.2,0-8.1,1.6-10.8,4.6c-2.8,3-4.1,7-3.8,11.4
			c0.6,8.6,7.2,15.6,14.6,15.6c7.4,0,13.9-7,14.6-15.6C275.2,140.6,273.8,136.6,271,133.6z"/>
		<path class="st4" d="M285,192h-49.5c-1.3,0-2.6-0.6-3.4-1.6c-0.9-1.1-1.3-2.6-1-4.1c1.2-6.6,4.9-12.1,10.7-16
			c5.2-3.4,11.7-5.3,18.5-5.3c6.7,0,13.3,1.9,18.5,5.3c5.8,3.9,9.5,9.4,10.7,16c0.3,1.5-0.1,3-1,4.1C287.6,191.4,286.3,192,285,192z
			"/>
	</g>
</g>
<g id="box_1_">
	<g id="Layer_1_1_">
		<path class="st4" d="M296.8,95.5h-73.9c-5.4,0-9.7,4.5-9.7,10.1v76.6c0,5.6,4.4,10.1,9.7,10.1h73.9c5.4,0,9.7-4.5,9.7-10.1v-76.6
			C306.5,100,302.1,95.5,296.8,95.5z M302.6,182.2c0,3.3-2.6,6-5.8,6h-73.9c-3.2,0-5.8-2.7-5.8-6v-76.6c0-3.3,2.6-6,5.8-6h73.9
			c3.2,0,5.8,2.7,5.8,6V182.2z"/>
	</g>
</g>
</svg>
