<svg id="Layer_1" data-name="Layer 1" xmlns="http://www.w3.org/2000/svg" viewBox="0 0 518.5 951"><g id="Layer_4" data-name="Layer 4"><rect width="518.5" height="951" style="fill:#141414"/></g><g id="Layer_2" data-name="Layer 2"><path d="M300.1,304.8c-38.3,33.2-96.6,9.5-102.8-40-.8-5.9,4.3-7.9,9-6.2,22.2,7.7,43.2,9.1,68.7,7.7a141,141,0,0,0,36.2-7.3c12.3-4.1,10.9,6.5,8.9,13.8A64.13,64.13,0,0,1,300.1,304.8Z" style="fill:#fff"/><path d="M304.7,340.2c23.7-13.6,43.1-37.8,46.9-65.7q.6-3.9,3.6-4.2a14,14,0,0,1,4.6,1q58.35,20.55,116.8,40.9c6.4,2.2,10.4,4.2,12.2,5.8,5.6,5.2,5,11.4,3.5,19.1C487.1,364.1,482,391,477,418a14,14,0,0,1-6.6,9.9c-2,1.3-5.4,2.2-10.2,2.8-9.8,1.2-19.6,2.4-29.5,3.4-4,.4-8,.9-12,1.2-5.6.6-10.4,2.4-10,8.6,1.3,23.9,1.1,48,2.1,71.7.2,4.4.4,10.8.5,19.2s.9,17.1.9,25.6c.1,10.2.9,21.1,1,30.6.1,14,.8,26.3,1.1,39.5.2,6.9.4,13.6.7,20q1,22.65.6,30A14.84,14.84,0,0,1,401,694.9c-4.3.1-8.7.1-13,.1q-119.7.15-239.4.1c-10.2,0-20.4-.1-30.6-.2a14.88,14.88,0,0,1-14.8-12.8,80.53,80.53,0,0,1-.1-8.3c.1-8.3.3-16.5.7-24.8.4-8.8.4-18.1.8-26.3.7-12.9.6-26,1.1-37.6.4-8.6.6-14.3.6-17.2,0-9.4.8-19.5.9-28,.2-13.8.8-29,1-41.2q.15-7.65.6-17.1c.6-11.5.6-23.3,1.1-34.6.2-5.2-.5-10.2-6.1-11.2-3.4-.6-11.2-1.5-23.5-2.8-6.9-.7-13.8-1.4-20.7-2.2-11.8-1.3-16.4-4.6-18.5-16-5-27.4-10-54.8-15.3-82.1-1.1-5.8.1-11.2,4.5-15.1,1.6-1.5,4.9-3,9.7-4.7q57.75-20.25,115.6-40.4c3.5-1.2,10.1-5.5,11.3,1.2,7.1,41.5,42.5,74.6,84.5,77.7C269.8,352.9,289,349.2,304.7,340.2Zm34.7,136.3a80.05,80.05,0,1,0-80.1,80h0a79.94,79.94,0,0,0,80.1-80Z" style="fill:#fff"/><path d="M322.8,476.5A63.46,63.46,0,0,1,259.3,540h0a63.46,63.46,0,0,1-63.5-63.5h0A63.46,63.46,0,0,1,259.3,413h0a63.46,63.46,0,0,1,63.5,63.5Zm-79.1-19.9a12.25,12.25,0,0,0-12.2-12.2h0a12.25,12.25,0,0,0-12.2,12.2h0a12.25,12.25,0,0,0,12.2,12.2h0a12.18,12.18,0,0,0,12.2-12.2Zm55.8,0a12.2,12.2,0,1,0-24.4,0h0a12.25,12.25,0,0,0,12.2,12.2h0A12.18,12.18,0,0,0,299.5,456.6ZM218,492.3a10,10,0,0,0-3.4.2.52.52,0,0,0-.3.7h0c9.9,25.8,39.2,38.7,64.7,27.1,11.6-5.2,21.1-14.8,25.1-26.8.3-.9,0-1.4-1-1.4H226.7C223.8,492.2,220.9,492.2,218,492.3Z" style="fill:#fff"/></g></svg>