<svg id="Layer_1" data-name="Layer 1" xmlns="http://www.w3.org/2000/svg" viewBox="0 0 416.01 848"><g id="arrows_out" data-name="arrows out"><polygon points="146.31 315.9 201.01 255.1 269.81 315.9 208.01 377.7 146.31 315.9" style="fill:none"/><polyline points="196.51 288.9 208.01 277.3 219.61 288.9" style="fill:none;stroke:#fff;stroke-linecap:round;stroke-linejoin:round;stroke-width:5px"/><line x1="208.01" y1="304.3" x2="208.01" y2="277.3" style="fill:none;stroke:#fff;stroke-linecap:round;stroke-linejoin:round;stroke-width:5px"/><polyline points="219.61 342.9 208.01 354.5 196.51 342.9" style="fill:none;stroke:#fff;stroke-linecap:round;stroke-linejoin:round;stroke-width:5px"/><line x1="208.01" y1="327.5" x2="208.01" y2="354.5" style="fill:none;stroke:#fff;stroke-linecap:round;stroke-linejoin:round;stroke-width:5px"/></g><g id="phone"><g id="layer1"><path id="rect26" d="M212.8,56c-9.8,0-17.6,8.8-17.6,19.8V265.1c0,11,7.9,19.8,17.6,19.8h94.1c9.8,0,17.6-8.8,17.6-19.8V75.8c0-11-7.9-19.8-17.6-19.8Zm4.6,8.1h84.8c8.8,0,15.9,7.9,15.9,17.9V252.6c0,9.9-7.1,17.9-15.9,17.9H217.4c-8.8,0-15.9-8-15.9-17.9V81.9C201.5,72,208.6,64.1,217.4,64.1Zm42.4,207.8c3.1,0,5.5,2.7,5.5,6.1s-2.5,6.1-5.5,6.1-5.5-2.7-5.5-6.1S256.8,271.9,259.8,271.9Z" transform="translate(-51.79 -56)" style="fill:#fff"/></g></g><g id="record"><path d="M259.8,220.5a15.3,15.3,0,1,0,15.3,15.3A15.3,15.3,0,0,0,259.8,220.5Zm0,28.2a12.9,12.9,0,1,1,12.9-12.9A12.93,12.93,0,0,1,259.8,248.7Z" transform="translate(-51.79 -56)" style="fill:#38c1f0"/><circle cx="208.01" cy="179.7" r="10.6" style="fill:#38c1f0"/></g><g id="person"><path d="M336.5,488.6c-19.5-21-46.6-32.6-76.6-32.6-30.2,0-57.4,11.5-76.8,32.4-19.6,21.1-29.1,49.8-26.9,80.8,4.4,61.1,51,110.8,103.7,110.8s99.2-49.7,103.7-110.8C365.8,538.5,356.2,509.9,336.5,488.6Z" transform="translate(-51.79 -56)" style="fill:#fff"/><path d="M435.8,904H83.8a31.32,31.32,0,0,1-24.2-11.1c-6.5-7.8-9.1-18.4-7.2-29.1C60.8,817,87.2,777.6,128.6,750c36.8-24.5,83.4-38,131.2-38s94.4,13.5,131.2,38c41.4,27.6,67.7,66.9,76.2,113.8,1.9,10.7-.7,21.3-7.2,29.1A31,31,0,0,1,435.8,904Z" transform="translate(-51.79 -56)" style="fill:#fff"/><path d="M271,133.6a15,15,0,0,0-21.6,0,14.85,14.85,0,0,0-3.8,11.4c.6,8.6,7.2,15.6,14.6,15.6s13.9-7,14.6-15.6A14.48,14.48,0,0,0,271,133.6Z" transform="translate(-51.79 -56)" style="fill:#fff"/><path d="M285,192H235.5a4.42,4.42,0,0,1-3.4-1.6,4.94,4.94,0,0,1-1-4.1,24.19,24.19,0,0,1,10.7-16,34.94,34.94,0,0,1,37,0,24.19,24.19,0,0,1,10.7,16,4.94,4.94,0,0,1-1,4.1A4.79,4.79,0,0,1,285,192Z" transform="translate(-51.79 -56)" style="fill:#fff"/></g><g id="box"><g id="Layer_1-2" data-name="Layer 1"><path d="M296.8,95.5H222.9a9.86,9.86,0,0,0-9.7,10.1v76.6a9.93,9.93,0,0,0,9.7,10.1h73.9a9.86,9.86,0,0,0,9.7-10.1V105.6A9.93,9.93,0,0,0,296.8,95.5Zm5.8,86.7a5.91,5.91,0,0,1-5.8,6H222.9a5.91,5.91,0,0,1-5.8-6V105.6a5.91,5.91,0,0,1,5.8-6h73.9a5.91,5.91,0,0,1,5.8,6Z" transform="translate(-51.79 -56)" style="fill:#fff"/></g></g></svg>