<?xml version="1.0" encoding="utf-8"?>
<!-- Generator: Adobe Illustrator 24.3.0, SVG Export Plug-In . SVG Version: 6.00 Build 0)  -->
<svg version="1.1" xmlns="http://www.w3.org/2000/svg" xmlns:xlink="http://www.w3.org/1999/xlink" x="0px" y="0px"
	 viewBox="0 0 596 628" style="enable-background:new 0 0 596 628;" xml:space="preserve">
<style type="text/css">
	.st0{display:none;}
	.st1{display:inline;fill:#020202;}
	.st2{fill:#38C1F0;}
	.st3{opacity:0.5;clip-path:url(#SVGID_2_);}
	.st4{display:inline;fill:#FFFFFF;}
	.st5{fill:#FFFFFF;}
</style>
<g id="Layer_2" class="st0">
	<rect class="st1" width="596" height="628"/>
</g>
<g id="Layer_4">
	<g>
		<path class="st2" d="M577,572.6c0,18.7-15.3,34-34,34H53c-18.7,0-34-15.3-34-34V55.4c0-18.7,15.3-34,34-34h490
			c18.7,0,34,15.3,34,34V572.6z"/>
	</g>
	<g>
		<defs>
			<rect id="SVGID_1_" x="19" y="21.4" width="558" height="585.1"/>
		</defs>
		<clipPath id="SVGID_2_">
			<use xlink:href="#SVGID_1_"  style="overflow:visible;"/>
		</clipPath>
		<g class="st3">
			<g>
				<g>
					<g class="st0">
						<path class="st4" d="M-55.6,11c0-27.5,22.5-50,50-50h606.1c27.5,0,50,22.5,50,50V617c0,27.5-22.5,50-50,50H-5.6
							c-27.5,0-50-22.5-50-50V11z"/>
					</g>
					<g>
						<g>
							<path class="st5" d="M-38.7-39c-1.6,0-6,3.2-9.9,7.1s-7.1,8.3-7.1,9.9s4.4-1.6,9.9-7.1S-37.1-39-38.7-39z"/>
						</g>
						<g>
							<path class="st5" d="M-18.9-39c-1.6,0-10.4,7.6-19.8,16.9S-55.6-3.9-55.6-2.3s8.9-6.1,19.8-16.9S-17.4-39-18.9-39z"/>
						</g>
						<g>
							<path class="st5" d="M3.7-39c-1.6,0-15.5,12.7-31.1,28.2s-28.2,29.5-28.2,31.1S-41.6,9.1-24.6-8S5.2-39,3.7-39z"/>
						</g>
						<g>
							<path class="st5" d="M26.3-39C24.7-39,7.5-23.1-11.9-3.7l-8.4,8.4c-19.4,19.4-35.4,36.6-35.4,38.2c0,1.6,15.9-13.1,35.4-32.5
								l14-14C13.2-23.1,27.8-39,26.3-39z"/>
						</g>
						<g>
							<path class="st5" d="M46-39C44.5-39,27.3-23.1,7.9-3.7l-28.1,28.1c-19.4,19.4-35.4,36.6-35.4,38.2c0,1.6,15.9-13.1,35.4-32.5
								L13.5-3.7C33-23.1,47.6-39,46-39z"/>
						</g>
						<g>
							<path class="st5" d="M68.6-39c-1.6,0-18.7,15.9-38.2,35.4l-50.7,50.7c-19.4,19.4-35.4,36.6-35.4,38.2
								c0,1.6,15.9-13.1,35.4-32.5L36.1-3.7C55.6-23.1,70.2-39,68.6-39z"/>
						</g>
						<g>
							<path class="st5" d="M89.8-39C89-39,72.5-23.1,53.1-3.7l-73.3,73.3c-19.4,19.4-35.4,36-35.4,36.8s15.9-14.5,35.4-33.9
								L55.9-3.7C75.3-23.1,90.6-39,89.8-39z"/>
						</g>
						<g>
							<path class="st5" d="M111-39c-1.6,0-18.7,15.9-38.2,35.4l-93.1,93.1c-19.4,19.4-35.4,36.6-35.4,38.2
								c0,1.6,15.9-13.1,35.4-32.5L78.5-3.7C97.9-23.1,112.6-39,111-39z"/>
						</g>
						<g>
							<path class="st5" d="M133.6-39c-1.6,0-18.7,15.9-38.2,35.4L-20.3,112c-19.4,19.4-35.4,36.6-35.4,38.2
								c0,1.6,15.9-13.1,35.4-32.5L101.1-3.7C120.5-23.1,135.2-39,133.6-39z"/>
						</g>
						<g>
							<path class="st5" d="M153.4-39c-1.6,0-18.7,15.9-38.2,35.4L-20.3,131.8c-19.4,19.4-35.4,36.6-35.4,38.2
								c0,1.6,15.9-13.1,35.4-32.5L120.8-3.7C140.3-23.1,154.9-39,153.4-39z"/>
						</g>
						<g>
							<path class="st5" d="M176-39c-1.6,0-18.7,15.9-38.2,35.4L-20.3,154.4c-19.4,19.4-35.4,36.6-35.4,38.2
								c0,1.6,15.9-13.1,35.4-32.5L143.4-3.7C162.9-23.1,177.5-39,176-39z"/>
						</g>
						<g>
							<path class="st5" d="M198.6-39c-1.6,0-18.7,15.9-38.2,35.4L-20.3,177c-19.4,19.4-35.4,36.6-35.4,38.2s15.9-13.1,35.4-32.5
								L166-3.7C185.5-23.1,200.1-39,198.6-39z"/>
						</g>
						<g>
							<path class="st5" d="M218.3-39c-1.6,0-18.7,15.9-38.2,35.4L-20.3,196.7c-19.4,19.4-35.4,36.6-35.4,38.2
								c0,1.6,15.9-13.1,35.4-32.5L185.8-3.7C205.2-23.1,219.9-39,218.3-39z"/>
						</g>
						<g>
							<path class="st5" d="M240.9-39c-1.6,0-18.7,15.9-38.2,35.4l-223,223c-19.4,19.4-35.4,36.6-35.4,38.2
								c0,1.6,15.9-13.1,35.4-32.5L208.4-3.7C227.8-23.1,242.5-39,240.9-39z"/>
						</g>
						<g>
							<path class="st5" d="M263.5-39c-1.6,0-18.7,15.9-38.2,35.4L-20.3,241.9c-19.4,19.4-35.4,36.6-35.4,38.2s15.9-13.1,35.4-32.5
								L231-3.7C250.4-23.1,265.1-39,263.5-39z"/>
						</g>
						<g>
							<path class="st5" d="M283.3-39c-1.6,0-18.7,15.9-38.2,35.4L-20.3,261.7c-19.4,19.4-35.4,36.6-35.4,38.2s15.9-13.1,35.4-32.5
								l271-271C270.2-23.1,284.8-39,283.3-39z"/>
						</g>
						<g>
							<path class="st5" d="M305.9-39c-1.6,0-18.7,15.9-38.2,35.4l-288,288c-19.4,19.4-35.4,36.6-35.4,38.2s15.9-13.1,35.4-32.5
								L273.3-3.7C292.8-23.1,307.4-39,305.9-39z"/>
						</g>
						<g>
							<path class="st5" d="M327.1-39c-0.8,0-17.3,15.9-36.8,35.4L-20.3,306.9c-19.4,19.4-35.4,36-35.4,36.8s15.9-14.5,35.4-33.9
								L293.1-3.7C312.6-23.1,327.8-39,327.1-39z"/>
						</g>
						<g>
							<path class="st5" d="M348.2-39c-1.6,0-18.7,15.9-38.2,35.4L-20.3,326.7c-19.4,19.4-35.4,36.6-35.4,38.2
								c0,1.6,15.9-13.1,35.4-32.5l336-336C335.2-23.1,349.8-39,348.2-39z"/>
						</g>
						<g>
							<path class="st5" d="M370.8-39c-1.6,0-18.7,15.9-38.2,35.4L-20.3,349.3c-19.4,19.4-35.4,36.6-35.4,38.2
								c0,1.6,15.9-13.1,35.4-32.5L338.3-3.7C357.7-23.1,372.4-39,370.8-39z"/>
						</g>
						<g>
							<path class="st5" d="M390.6-39c-1.6,0-18.7,15.9-38.2,35.4L-20.3,369c-19.4,19.4-35.4,36.6-35.4,38.2s15.9-13.1,35.4-32.5
								L358.1-3.7C377.5-23.1,392.2-39,390.6-39z"/>
						</g>
						<g>
							<path class="st5" d="M413.2-39c-1.6,0-18.7,15.9-38.2,35.4L-20.3,391.6c-19.4,19.4-35.4,36.6-35.4,38.2
								c0,1.6,15.9-13.1,35.4-32.5L380.7-3.7C400.1-23.1,414.7-39,413.2-39z"/>
						</g>
						<g>
							<path class="st5" d="M435.8-39c-1.6,0-18.7,15.9-38.2,35.4L-20.3,414.2c-19.4,19.4-35.4,36.6-35.4,38.2s15.9-13.1,35.4-32.5
								L403.3-3.7C422.7-23.1,437.3-39,435.8-39z"/>
						</g>
						<g>
							<path class="st5" d="M455.6-39c-1.6,0-18.7,15.9-38.2,35.4L-20.3,434c-19.4,19.4-35.4,36.6-35.4,38.2
								c0,1.6,15.9-13.1,35.4-32.5L423-3.7C442.5-23.1,457.1-39,455.6-39z"/>
						</g>
						<g>
							<path class="st5" d="M478.2-39c-1.6,0-18.7,15.9-38.2,35.4L-20.3,456.6c-19.4,19.4-35.4,36.6-35.4,38.2
								c0,1.6,15.9-13.1,35.4-32.5L445.6-3.7C465.1-23.1,479.7-39,478.2-39z"/>
						</g>
						<g>
							<path class="st5" d="M500.7-39c-1.6,0-18.7,15.9-38.2,35.4L-20.3,479.2c-19.4,19.4-35.4,36.6-35.4,38.2
								c0,1.6,15.9-13.1,35.4-32.5L468.2-3.7C487.7-23.1,502.3-39,500.7-39z"/>
						</g>
						<g>
							<path class="st5" d="M520.5-39c-1.6,0-18.7,15.9-38.2,35.4L-20.3,498.9c-19.4,19.4-35.4,36.6-35.4,38.2
								c0,1.6,15.9-13.1,35.4-32.5L488-3.7C507.4-23.1,522.1-39,520.5-39z"/>
						</g>
						<g>
							<path class="st5" d="M543.1-39c-1.6,0-18.7,15.9-38.2,35.4L-20.3,521.5c-19.4,19.4-35.4,36.6-35.4,38.2
								c0,1.6,15.9-13.1,35.4-32.5L510.6-3.7C530-23.1,544.7-39,543.1-39z"/>
						</g>
						<g>
							<path class="st5" d="M564.3-39c-0.8,0-17.4,15.9-36.8,35.3L-20.2,541.4c-19.5,19.4-35.4,36.5-35.4,38.1
								c0,1.6,15.9-13.1,35.4-32.5L530.3-3.7C549.8-23.1,565.1-39,564.3-39z"/>
						</g>
						<g>
							<path class="st5" d="M585.5-39c-1.6,0-18.7,15.9-38.2,35.4L-20.3,563.9c-19.4,19.4-35.4,36.6-35.4,38.2
								c0,1.6,15.9-13.1,35.4-32.5L552.9-3.7C572.4-23.1,587-39,585.5-39z"/>
						</g>
						<g>
							<path class="st5" d="M608.1-39c-1.6,0-18.7,15.9-38.2,35.4L-20.3,586.5c-19.4,19.4-35.4,36.6-35.4,38.2
								c0,1.6,15.9-13.1,35.4-32.5L575.5-3.7C595-23.1,609.6-39,608.1-39z"/>
						</g>
						<g>
							<path class="st5" d="M627.8-39c-1.6,0-18.7,15.9-38.2,35.4L-20.3,606.3c-19.4,19.4-35.4,36.6-35.4,38.2
								c0,1.6,15.9-13.1,35.4-32.5L595.3-3.7C614.8-23.1,629.4-39,627.8-39z"/>
						</g>
						<g>
							<path class="st5" d="M650.4-37.6c0-0.8-0.6-1.4-1.4-1.4s-17.3,15.9-36.8,35.4L-20.3,628.8c-19.4,19.4-35.4,36-35.4,36.8
								s0.6,1.4,1.4,1.4s17.3-15.9,36.8-35.4L615.1-0.8C634.5-20.3,650.4-36.8,650.4-37.6z"/>
						</g>
						<g>
							<path class="st5" d="M-33,667c1.6,0,18.7-15.9,38.2-35.4L615.1,21.7c19.4-19.4,35.4-36.6,35.4-38.2s-15.9,13.1-35.4,32.5
								L-0.5,631.7C-19.9,651.1-34.6,667-33,667z"/>
						</g>
						<g>
							<path class="st5" d="M-13.3,667c1.6,0,18.7-15.9,38.2-35.4L615.1,41.5c19.4-19.4,35.4-36.6,35.4-38.2s-15.9,13.1-35.4,32.5
								L19.3,631.7C-0.2,651.1-14.8,667-13.3,667z"/>
						</g>
						<g>
							<path class="st5" d="M9.3,667c1.6,0,18.7-15.9,38.2-35.4L615.1,64.1c19.4-19.4,35.4-36.6,35.4-38.2S634.5,39,615.1,58.5
								L41.9,631.7C22.4,651.1,7.8,667,9.3,667z"/>
						</g>
						<g>
							<path class="st5" d="M30.5,667c0.8,0,17.3-15.9,36.8-35.4L615.1,83.9c19.4-19.4,35.4-36,35.4-36.8s-15.9,14.5-35.4,33.9
								L64.5,631.7C45,651.1,29.7,667,30.5,667z"/>
						</g>
						<g>
							<path class="st5" d="M51.7,667c1.6,0,18.7-15.9,38.2-35.4l525.2-525.2c19.4-19.4,35.4-36.6,35.4-38.2
								c0-1.6-15.9,13.1-35.4,32.5L84.2,631.7C64.8,651.1,50.1,667,51.7,667z"/>
						</g>
						<g>
							<path class="st5" d="M74.3,667c1.6,0,18.7-15.9,38.2-35.4l502.6-502.6c19.4-19.4,35.4-36.6,35.4-38.2
								c0-1.6-15.9,13.1-35.4,32.5L106.8,631.7C87.4,651.1,72.7,667,74.3,667z"/>
						</g>
						<g>
							<path class="st5" d="M94.1,667c1.6,0,18.7-15.9,38.2-35.4l482.8-482.8c19.4-19.4,35.4-36.6,35.4-38.2s-15.9,13.1-35.4,32.5
								L126.6,631.7C107.1,651.1,92.5,667,94.1,667z"/>
						</g>
						<g>
							<path class="st5" d="M116.7,667c1.6,0,18.7-15.9,38.2-35.4l460.2-460.2c19.4-19.4,35.4-36.6,35.4-38.2
								c0-1.6-15.9,13.1-35.4,32.5L149.2,631.7C129.7,651.1,115.1,667,116.7,667z"/>
						</g>
						<g>
							<path class="st5" d="M139.2,667c1.6,0,18.7-15.9,38.2-35.4L615.1,194c19.4-19.4,35.4-36.6,35.4-38.2
								c0-1.6-15.9,13.1-35.4,32.5L171.8,631.7C152.3,651.1,137.7,667,139.2,667z"/>
						</g>
						<g>
							<path class="st5" d="M159,667c1.6,0,18.7-15.9,38.2-35.4l417.9-417.9c19.4-19.4,35.4-36.6,35.4-38.2s-15.9,13.1-35.4,32.5
								L191.5,631.7C172.1,651.1,157.5,667,159,667z"/>
						</g>
						<g>
							<path class="st5" d="M181.6,667c1.6,0,18.7-15.9,38.2-35.4l395.3-395.3c19.4-19.4,35.4-36.6,35.4-38.2s-15.9,13.1-35.4,32.5
								L214.1,631.7C194.7,651.1,180.1,667,181.6,667z"/>
						</g>
						<g>
							<path class="st5" d="M204.2,667c1.6,0,18.7-15.9,38.2-35.4L615.1,259c19.4-19.4,35.4-36.6,35.4-38.2
								c0-1.6-15.9,13.1-35.4,32.5L236.7,631.7C217.3,651.1,202.6,667,204.2,667z"/>
						</g>
						<g>
							<path class="st5" d="M224,667c1.6,0,18.7-15.9,38.2-35.4l352.9-352.9c19.4-19.4,35.4-36.6,35.4-38.2s-15.9,13.1-35.4,32.5
								L256.5,631.7C237.1,651.1,222.4,667,224,667z"/>
						</g>
						<g>
							<path class="st5" d="M246.6,667c1.6,0,18.7-15.9,38.2-35.4l330.3-330.3c19.4-19.4,35.4-36.6,35.4-38.2
								c0-1.6-15.9,13.1-35.4,32.5l-336,336C259.7,651.1,245,667,246.6,667z"/>
						</g>
						<g>
							<path class="st5" d="M267.7,667c0.8,0,17.3-15.9,36.8-35.4l310.6-310.6c19.4-19.4,35.4-36,35.4-36.8s-15.9,14.5-35.4,33.9
								L301.7,631.7C282.2,651.1,267,667,267.7,667z"/>
						</g>
						<g>
							<path class="st5" d="M288.9,667c1.6,0,18.7-15.9,38.2-35.4l288-288c19.4-19.4,35.4-36.6,35.4-38.2s-15.9,13.1-35.4,32.5
								L321.5,631.7C302,651.1,287.4,667,288.9,667z"/>
						</g>
						<g>
							<path class="st5" d="M311.5,667c1.6,0,18.7-15.9,38.2-35.4l265.4-265.4c19.4-19.4,35.4-36.6,35.4-38.2s-15.9,13.1-35.4,32.5
								l-271,271C324.6,651.1,310,667,311.5,667z"/>
						</g>
						<g>
							<path class="st5" d="M331.3,667c1.6,0,18.7-15.9,38.2-35.4l245.6-245.6c19.4-19.4,35.4-36.6,35.4-38.2s-15.9,13.1-35.4,32.5
								L363.8,631.7C344.4,651.1,329.7,667,331.3,667z"/>
						</g>
						<g>
							<path class="st5" d="M353.9,667c1.6,0,18.7-15.9,38.2-35.4l223-223c19.4-19.4,35.4-36.6,35.4-38.2c0-1.6-15.9,13.1-35.4,32.5
								L386.4,631.7C367,651.1,352.3,667,353.9,667z"/>
						</g>
						<g>
							<path class="st5" d="M376.5,667c1.6,0,18.7-15.9,38.2-35.4l200.4-200.4c19.4-19.4,35.4-36.6,35.4-38.2
								c0-1.6-15.9,13.1-35.4,32.5L409,631.7C389.6,651.1,374.9,667,376.5,667z"/>
						</g>
						<g>
							<path class="st5" d="M396.3,667c1.6,0,18.7-15.9,38.2-35.4L615.1,451c19.4-19.4,35.4-36.6,35.4-38.2
								c0-1.6-15.9,13.1-35.4,32.5L428.8,631.7C409.3,651.1,394.7,667,396.3,667z"/>
						</g>
						<g>
							<path class="st5" d="M418.8,667c1.6,0,18.7-15.9,38.2-35.4l158.1-158.1c19.4-19.4,35.4-36.6,35.4-38.2s-15.9,13.1-35.4,32.5
								L451.4,631.7C431.9,651.1,417.3,667,418.8,667z"/>
						</g>
						<g>
							<path class="st5" d="M441.4,667c1.6,0,18.7-15.9,38.2-35.4l135.5-135.5c19.4-19.4,35.4-36.6,35.4-38.2
								c0-1.6-15.9,13.1-35.4,32.5L474,631.7C454.5,651.1,439.9,667,441.4,667z"/>
						</g>
						<g>
							<path class="st5" d="M461.2,667c1.6,0,18.7-15.9,38.2-35.4L615.1,516c19.4-19.4,35.4-36.6,35.4-38.2
								c0-1.6-15.9,13.1-35.4,32.5L493.7,631.7C474.3,651.1,459.7,667,461.2,667z"/>
						</g>
						<g>
							<path class="st5" d="M483.8,667c1.6,0,18.7-15.9,38.2-35.4l93.1-93.1c19.4-19.4,35.4-36.6,35.4-38.2
								c0-1.6-15.9,13.1-35.4,32.5l-98.7,98.7C496.9,651.1,482.2,667,483.8,667z"/>
						</g>
						<g>
							<path class="st5" d="M505,667c0.8,0,17.3-15.9,36.8-35.4l73.3-73.3c19.4-19.4,35.4-36,35.4-36.8s-15.9,14.5-35.4,33.9
								l-76.1,76.1C519.5,651.1,504.2,667,505,667z"/>
						</g>
						<g>
							<path class="st5" d="M526.2,667c1.6,0,18.7-15.9,38.2-35.4l50.7-50.7c19.4-19.4,35.4-36.6,35.4-38.2
								c0-1.6-15.9,13.1-35.4,32.5l-56.4,56.4C539.2,651.1,524.6,667,526.2,667z"/>
						</g>
						<g>
							<path class="st5" d="M548.8,667c1.6,0,18.7-15.9,38.2-35.4l28.1-28.1c19.4-19.4,35.4-36.6,35.4-38.2
								c0-1.6-15.9,13.1-35.4,32.5l-33.8,33.8C561.8,651.1,547.2,667,548.8,667z"/>
						</g>
						<g>
							<path class="st5" d="M568.5,667c1.6,0,18.7-15.9,38.2-35.4l8.4-8.4c19.4-19.4,35.4-36.6,35.4-38.2c0-1.6-15.9,13.1-35.4,32.5
								l-14,14C581.6,651.1,567,667,568.5,667z"/>
						</g>
						<g>
							<path class="st5" d="M591.1,667c1.6,0,15.5-12.7,31.1-28.2s28.2-29.5,28.2-31.1s-14,11.2-31.1,28.2S589.6,667,591.1,667z"/>
						</g>
						<g>
							<path class="st5" d="M613.7,667c1.6,0,10.4-7.6,19.8-16.9s16.9-18.2,16.9-19.8c0-1.6-8.9,6.1-19.8,16.9S612.2,667,613.7,667z
								"/>
						</g>
						<g>
							<path class="st5" d="M633.5,667c1.6,0,6-3.2,9.9-7.1s7.1-8.3,7.1-9.9s-4.4,1.6-9.9,7.1S631.9,667,633.5,667z"/>
						</g>
					</g>
				</g>
			</g>
		</g>
	</g>
</g>
<g id="Layer_3">
	<g>
		<path class="st5" d="M373.6,211.7c-19.2-20.7-46-32.1-75.5-32.1c-29.7,0-56.6,11.3-75.7,31.9c-19.3,20.8-28.7,49.1-26.5,79.6
			c4.4,60.2,50.2,109.2,102.2,109.2s97.7-49,102.2-109.2C402.4,260.9,393,232.7,373.6,211.7z"/>
		<path class="st5" d="M471.5,621.1H124.6c-9.2,0.1-18-3.9-23.9-11c-6.4-7.7-9-18.1-7.1-28.7c8.3-46.1,34.3-84.9,75.1-112.1
			c36.2-24.2,82.2-37.5,129.3-37.5s93.1,13.3,129.3,37.5c40.8,27.2,66.8,66,75.1,112.1c1.9,10.6-0.7,21-7.1,28.7
			C489.4,617.2,480.7,621.3,471.5,621.1z"/>
	</g>
	<g id="Layer_1_1_">
		<path class="st5" d="M533.1,6.2H62.9C28.8,6.2,1,35,1,70.3v487.4c0,35.4,27.8,64.1,61.9,64.1h470.2c34.1,0,61.9-28.8,61.9-64.1
			V70.3C595,35,567.3,6.2,533.1,6.2z M570.3,557.7c0,21.2-16.7,38.5-37.1,38.5H62.9c-20.5,0-37.1-17.3-37.1-38.5V70.3
			c0-21.2,16.7-38.5,37.1-38.5h470.2c20.5,0,37.1,17.3,37.1,38.5V557.7z"/>
	</g>
</g>
</svg>
