<?xml version="1.0" encoding="utf-8"?>
<!-- Generator: Adobe Illustrator 24.3.0, SVG Export Plug-In . SVG Version: 6.00 Build 0)  -->
<svg version="1.1" xmlns="http://www.w3.org/2000/svg" xmlns:xlink="http://www.w3.org/1999/xlink" x="0px" y="0px"
	 viewBox="0 0 518.5 951" style="enable-background:new 0 0 518.5 951;" xml:space="preserve">
<style type="text/css">
	.st0{fill:#141414;}
	.st1{fill:#FFFFFF;}
</style>
<g id="Layer_4">
	<rect class="st0" width="518.5" height="951"/>
</g>
<g id="Layer_2">
	<path class="st1" d="M300.1,304.8c-38.3,33.2-96.6,9.5-102.8-40c-0.8-5.9,4.3-7.9,9-6.2c22.2,7.7,43.2,9.1,68.7,7.7
		c11.6-0.7,23.6-3.1,36.2-7.3c12.3-4.1,10.9,6.5,8.9,13.8C316.6,285.6,309.9,296.2,300.1,304.8z"/>
	<path class="st1" d="M304.7,340.2c23.7-13.6,43.1-37.8,46.9-65.7c0.4-2.6,1.6-4,3.6-4.2c0.9-0.1,2.4,0.3,4.6,1
		c38.9,13.7,77.9,27.3,116.8,40.9c6.4,2.2,10.4,4.2,12.2,5.8c5.6,5.2,5,11.4,3.5,19.1C487.1,364.1,482,391,477,418
		c-0.8,4.4-3,7.7-6.6,9.9c-2,1.3-5.4,2.2-10.2,2.8c-9.8,1.2-19.6,2.4-29.5,3.4c-4,0.4-8,0.9-12,1.2c-5.6,0.6-10.4,2.4-10,8.6
		c1.3,23.9,1.1,48,2.1,71.7c0.2,4.4,0.4,10.8,0.5,19.2c0.2,8.5,0.9,17.1,0.9,25.6c0.1,10.2,0.9,21.1,1,30.6
		c0.1,14,0.8,26.3,1.1,39.5c0.2,6.9,0.4,13.6,0.7,20c0.7,15.1,0.9,25.1,0.6,30c-0.4,8-6.6,14.3-14.6,14.4c-4.3,0.1-8.7,0.1-13,0.1
		c-79.8,0.1-159.6,0.1-239.4,0.1c-10.2,0-20.4-0.1-30.6-0.2c-7.6-0.1-13.6-5.3-14.8-12.8c-0.1-0.8-0.2-3.5-0.1-8.3
		c0.1-8.3,0.3-16.5,0.7-24.8c0.4-8.8,0.4-18.1,0.8-26.3c0.7-12.9,0.6-26,1.1-37.6c0.4-8.6,0.6-14.3,0.6-17.2c0-9.4,0.8-19.5,0.9-28
		c0.2-13.8,0.8-29,1-41.2c0.1-5.1,0.3-10.8,0.6-17.1c0.6-11.5,0.6-23.3,1.1-34.6c0.2-5.2-0.5-10.2-6.1-11.2
		c-3.4-0.6-11.2-1.5-23.5-2.8c-6.9-0.7-13.8-1.4-20.7-2.2c-11.8-1.3-16.4-4.6-18.5-16c-5-27.4-10-54.8-15.3-82.1
		c-1.1-5.8,0.1-11.2,4.5-15.1c1.6-1.5,4.9-3,9.7-4.7c38.5-13.5,77-27,115.6-40.4c3.5-1.2,10.1-5.5,11.3,1.2
		c7.1,41.5,42.5,74.6,84.5,77.7C269.8,352.9,289,349.2,304.7,340.2z M339.4,476.5c0-44.2-35.8-80-80.1-80c-44.2,0-80,35.8-80,80
		c0,44.2,35.8,80,80,80l0,0C303.5,556.6,339.4,520.8,339.4,476.5L339.4,476.5z"/>
	<path class="st1" d="M322.8,476.5c0,35.1-28.4,63.5-63.5,63.5c0,0,0,0,0,0c-35.1,0-63.5-28.4-63.5-63.5c0,0,0,0,0,0
		c0-35.1,28.4-63.5,63.5-63.5l0,0C294.4,413,322.8,441.4,322.8,476.5L322.8,476.5z M243.7,456.6c0-6.7-5.5-12.2-12.2-12.2l0,0
		c-6.7,0-12.2,5.5-12.2,12.2l0,0c0,6.7,5.5,12.2,12.2,12.2l0,0C238.2,468.8,243.7,463.4,243.7,456.6L243.7,456.6z M299.5,456.6
		c0-6.7-5.5-12.2-12.2-12.2c-6.7,0-12.2,5.5-12.2,12.2c0,0,0,0,0,0c0,6.7,5.5,12.2,12.2,12.2h0C294,468.8,299.5,463.4,299.5,456.6z
		 M218,492.3c-0.9,0-2.3-0.2-3.4,0.2c-0.3,0.1-0.4,0.4-0.3,0.7c0,0,0,0,0,0c9.9,25.8,39.2,38.7,64.7,27.1
		c11.6-5.2,21.1-14.8,25.1-26.8c0.3-0.9,0-1.4-1-1.4c-25.8,0-51.2,0-76.4,0C223.8,492.2,220.9,492.2,218,492.3z"/>
</g>
</svg>
