<?xml version="1.0" encoding="utf-8"?>
<!-- Generator: Adobe Illustrator 24.3.0, SVG Export Plug-In . SVG Version: 6.00 Build 0)  -->
<svg version="1.1" xmlns="http://www.w3.org/2000/svg" xmlns:xlink="http://www.w3.org/1999/xlink" x="0px" y="0px"
	 viewBox="0 0 518.5 951" style="enable-background:new 0 0 518.5 951;" xml:space="preserve">
<style type="text/css">
	.st0{display:none;}
	.st1{display:inline;}
	.st2{fill:#FFFFFF;}
	.st3{fill:#38C1F0;}
</style>
<g id="Layer_1">
	<g id="Layer_2_1_" class="st0">
		<rect class="st1" width="518" height="951"/>
	</g>
	<g id="person_1_">
		<g>
			<path class="st2" d="M336.5,488.6c-19.5-21-46.6-32.6-76.6-32.6c-30.2,0-57.4,11.5-76.8,32.4c-19.6,21.1-29.1,49.8-26.9,80.8
				c4.4,61.1,51,110.8,103.7,110.8s99.2-49.7,103.7-110.8C365.8,538.5,356.2,509.9,336.5,488.6z"/>
			<path class="st2" d="M435.8,904h-352c-9.3,0.1-18.2-4-24.2-11.1c-6.5-7.8-9.1-18.4-7.2-29.1c8.4-46.8,34.8-86.2,76.2-113.8
				c36.8-24.5,83.4-38,131.2-38s94.4,13.5,131.2,38c41.4,27.6,67.7,66.9,76.2,113.8c1.9,10.7-0.7,21.3-7.2,29.1
				C454.1,900,445.2,904.1,435.8,904z"/>
		</g>
	</g>
</g>
<g id="Layer_3">
	<g id="Layer_1_1_">
		<g>
			<path id="SVGID_1_" class="st2" d="M276.8,143h-34.5c-5.2,0-8.6,3.5-8.6,8.6c0,5.2,3.5,8.6,8.6,8.6h34.5c5.2,0,8.6-3.5,8.6-8.6
				C285.4,146.5,282,143,276.8,143z M216.3,238h-8.6c0,28.5,23.3,51.8,51.8,51.8s51.8-23.3,51.8-51.8c0-21.6-13-39.7-31.1-47.5
				l-3.5,7.8h8.6v-20.7c0-2.6-0.9-4.3-2.6-6s-3.5-2.6-6-2.6h-34.5c-2.6,0-4.3,0.9-6,2.6c-1.7,1.7-2.6,3.5-2.6,6v20.7h8.6l-3.5-7.8
				c-18.1,7.8-31.1,25.9-31.1,47.5H216.3h8.6c0-13.8,8.6-25.9,20.7-32c3.5-0.9,5.2-4.3,5.2-7.8v-12.1h17.3v12.1
				c0,3.5,1.7,6.9,5.2,7.8c12.1,6,20.7,18.1,20.7,32c0,9.5-3.5,18.1-10.4,24.2c-6,6.9-14.7,10.4-24.2,10.4s-18.1-3.5-24.2-10.4
				c-6.9-6-10.4-14.7-10.4-24.2H216.3z"/>
		</g>
	</g>
	<g id="Layer_2_2_">
		<path class="st3" d="M181.8,229.4h-8.6c-5.2,0-8.6,3.5-8.6,8.6s3.5,8.6,8.6,8.6h8.6c5.2,0,8.6-3.5,8.6-8.6S187,229.4,181.8,229.4z
			"/>
		<path class="st3" d="M197.3,288.1l-8.6,8.6c-3.5,3.5-3.5,8.6,0,12.1c3.5,3.5,8.6,3.5,12.1,0l8.6-8.6c3.5-3.5,3.5-8.6,0-12.1
			C206,284.6,200.8,284.6,197.3,288.1z"/>
		<path class="st3" d="M250.9,315.7v8.6c0,5.2,3.5,8.6,8.6,8.6s8.6-3.5,8.6-8.6v-8.6c0-5.2-3.5-8.6-8.6-8.6S250.9,310.5,250.9,315.7
			z"/>
		<path class="st3" d="M309.6,300.2l8.6,8.6c3.5,3.5,8.6,3.5,12.1,0c3.5-3.5,3.5-8.6,0-12.1l-8.6-8.6c-3.5-3.5-8.6-3.5-12.1,0
			C306.1,291.5,306.1,296.7,309.6,300.2z"/>
		<path class="st3" d="M337.2,246.6h8.6c5.2,0,8.6-3.5,8.6-8.6s-3.5-8.6-8.6-8.6h-8.6c-5.2,0-8.6,3.5-8.6,8.6S332,246.6,337.2,246.6
			z"/>
	</g>
</g>
</svg>
