<svg id="Layer_1" data-name="Layer 1" xmlns="http://www.w3.org/2000/svg" xmlns:xlink="http://www.w3.org/1999/xlink" viewBox="0 0 706.2 706"><defs><clipPath id="clip-path" transform="translate(55.7 39)"><rect x="19" y="21.4" width="558" height="585.1" style="fill:none"/></clipPath></defs><g id="Layer_4" data-name="Layer 4"><path d="M577,572.6a34.1,34.1,0,0,1-34,34H53a34.1,34.1,0,0,1-34-34V55.4a34.1,34.1,0,0,1,34-34H543a34.1,34.1,0,0,1,34,34Z" transform="translate(55.7 39)" style="fill:#38c1f0"/><g style="clip-path:url(#clip-path)"><g style="opacity:0.5"><path d="M-38.7-39c-1.6,0-6,3.2-9.9,7.1s-7.1,8.3-7.1,9.9,4.4-1.6,9.9-7.1S-37.1-39-38.7-39Z" transform="translate(55.7 39)" style="fill:#fff"/><path d="M-18.9-39c-1.6,0-10.4,7.6-19.8,16.9S-55.6-3.9-55.6-2.3s8.9-6.1,19.8-16.9S-17.4-39-18.9-39Z" transform="translate(55.7 39)" style="fill:#fff"/><path d="M3.7-39C2.1-39-11.8-26.3-27.4-10.8S-55.6,18.7-55.6,20.3s14-11.2,31-28.3S5.2-39,3.7-39Z" transform="translate(55.7 39)" style="fill:#fff"/><path d="M26.3-39C24.7-39,7.5-23.1-11.9-3.7l-8.4,8.4C-39.7,24.1-55.7,41.3-55.7,42.9s15.9-13.1,35.4-32.5l14-14C13.2-23.1,27.8-39,26.3-39Z" transform="translate(55.7 39)" style="fill:#fff"/><path d="M46-39C44.5-39,27.3-23.1,7.9-3.7L-20.2,24.4C-39.6,43.8-55.6,61-55.6,62.6s15.9-13.1,35.4-32.5L13.5-3.7C33-23.1,47.6-39,46-39Z" transform="translate(55.7 39)" style="fill:#fff"/><path d="M68.6-39C67-39,49.9-23.1,30.4-3.6L-20.3,47.1C-39.7,66.5-55.7,83.7-55.7,85.3s15.9-13.1,35.4-32.5L36.1-3.7C55.6-23.1,70.2-39,68.6-39Z" transform="translate(55.7 39)" style="fill:#fff"/><path d="M89.8-39C89-39,72.5-23.1,53.1-3.7L-20.2,69.6c-19.4,19.4-35.4,36-35.4,36.8s15.9-14.5,35.4-33.9L55.9-3.7C75.3-23.1,90.6-39,89.8-39Z" transform="translate(55.7 39)" style="fill:#fff"/><path d="M111-39c-1.6,0-18.7,15.9-38.2,35.4L-20.3,89.5c-19.4,19.4-35.4,36.6-35.4,38.2s15.9-13.1,35.4-32.5L78.5-3.7C97.9-23.1,112.6-39,111-39Z" transform="translate(55.7 39)" style="fill:#fff"/><path d="M133.6-39C132-39,114.9-23.1,95.4-3.6L-20.3,112c-19.4,19.4-35.4,36.6-35.4,38.2s15.9-13.1,35.4-32.5L101.1-3.7C120.5-23.1,135.2-39,133.6-39Z" transform="translate(55.7 39)" style="fill:#fff"/><path d="M153.4-39c-1.6,0-18.7,15.9-38.2,35.4L-20.3,131.8c-19.4,19.4-35.4,36.6-35.4,38.2s15.9-13.1,35.4-32.5L120.8-3.7C140.3-23.1,154.9-39,153.4-39Z" transform="translate(55.7 39)" style="fill:#fff"/><path d="M176-39c-1.6,0-18.7,15.9-38.2,35.4l-158.1,158c-19.4,19.4-35.4,36.6-35.4,38.2s15.9-13.1,35.4-32.5L143.4-3.7C162.9-23.1,177.5-39,176-39Z" transform="translate(55.7 39)" style="fill:#fff"/><path d="M198.6-39c-1.6,0-18.7,15.9-38.2,35.4L-20.3,177c-19.4,19.4-35.4,36.6-35.4,38.2s15.9-13.1,35.4-32.5L166-3.7C185.5-23.1,200.1-39,198.6-39Z" transform="translate(55.7 39)" style="fill:#fff"/><path d="M218.3-39c-1.6,0-18.7,15.9-38.2,35.4L-20.3,196.7c-19.4,19.4-35.4,36.6-35.4,38.2s15.9-13.1,35.4-32.5L185.8-3.7C205.2-23.1,219.9-39,218.3-39Z" transform="translate(55.7 39)" style="fill:#fff"/><path d="M240.9-39c-1.6,0-18.7,15.9-38.2,35.4l-223,223c-19.4,19.4-35.4,36.6-35.4,38.2s15.9-13.1,35.4-32.5L208.4-3.7C227.8-23.1,242.5-39,240.9-39Z" transform="translate(55.7 39)" style="fill:#fff"/><path d="M263.5-39c-1.6,0-18.7,15.9-38.2,35.4L-20.3,241.9c-19.4,19.4-35.4,36.6-35.4,38.2s15.9-13.1,35.4-32.5L231-3.7C250.4-23.1,265.1-39,263.5-39Z" transform="translate(55.7 39)" style="fill:#fff"/><path d="M283.3-39c-1.6,0-18.7,15.9-38.2,35.4L-20.3,261.7c-19.4,19.4-35.4,36.6-35.4,38.2s15.9-13.1,35.4-32.5l271-271C270.2-23.1,284.8-39,283.3-39Z" transform="translate(55.7 39)" style="fill:#fff"/><path d="M305.9-39c-1.6,0-18.7,15.9-38.2,35.4l-288,288c-19.4,19.4-35.4,36.6-35.4,38.2s15.9-13.1,35.4-32.5L273.3-3.7C292.8-23.1,307.4-39,305.9-39Z" transform="translate(55.7 39)" style="fill:#fff"/><path d="M327.1-39c-.8,0-17.3,15.9-36.8,35.4L-20.3,306.9c-19.4,19.4-35.4,36-35.4,36.8s15.9-14.5,35.4-33.9L293.1-3.7C312.6-23.1,327.8-39,327.1-39Z" transform="translate(55.7 39)" style="fill:#fff"/><path d="M348.2-39c-1.6,0-18.7,15.9-38.2,35.4L-20.3,326.7c-19.4,19.4-35.4,36.6-35.4,38.2s15.9-13.1,35.4-32.5l336-336C335.2-23.1,349.8-39,348.2-39Z" transform="translate(55.7 39)" style="fill:#fff"/><path d="M370.8-39c-1.6,0-18.7,15.9-38.2,35.4L-20.3,349.3c-19.4,19.4-35.4,36.6-35.4,38.2s15.9-13.1,35.4-32.5L338.3-3.7C357.7-23.1,372.4-39,370.8-39Z" transform="translate(55.7 39)" style="fill:#fff"/><path d="M390.6-39c-1.6,0-18.7,15.9-38.2,35.4L-20.3,369c-19.4,19.4-35.4,36.6-35.4,38.2s15.9-13.1,35.4-32.5L358.1-3.7C377.5-23.1,392.2-39,390.6-39Z" transform="translate(55.7 39)" style="fill:#fff"/><path d="M413.2-39c-1.6,0-18.7,15.9-38.2,35.4L-20.3,391.6c-19.4,19.4-35.4,36.6-35.4,38.2s15.9-13.1,35.4-32.5l401-401C400.1-23.1,414.7-39,413.2-39Z" transform="translate(55.7 39)" style="fill:#fff"/><path d="M435.8-39c-1.6,0-18.7,15.9-38.2,35.4L-20.3,414.2c-19.4,19.4-35.4,36.6-35.4,38.2s15.9-13.1,35.4-32.5L403.3-3.7C422.7-23.1,437.3-39,435.8-39Z" transform="translate(55.7 39)" style="fill:#fff"/><path d="M455.6-39c-1.6,0-18.7,15.9-38.2,35.4L-20.3,434c-19.4,19.4-35.4,36.6-35.4,38.2s15.9-13.1,35.4-32.5L423-3.7C442.5-23.1,457.1-39,455.6-39Z" transform="translate(55.7 39)" style="fill:#fff"/><path d="M478.2-39c-1.6,0-18.7,15.9-38.2,35.4L-20.3,456.6c-19.4,19.4-35.4,36.6-35.4,38.2s15.9-13.1,35.4-32.5L445.6-3.7C465.1-23.1,479.7-39,478.2-39Z" transform="translate(55.7 39)" style="fill:#fff"/><path d="M500.7-39c-1.6,0-18.7,15.9-38.2,35.4L-20.3,479.2c-19.4,19.4-35.4,36.6-35.4,38.2s15.9-13.1,35.4-32.5L468.2-3.7C487.7-23.1,502.3-39,500.7-39Z" transform="translate(55.7 39)" style="fill:#fff"/><path d="M520.5-39c-1.6,0-18.7,15.9-38.2,35.4L-20.3,498.9c-19.4,19.4-35.4,36.6-35.4,38.2s15.9-13.1,35.4-32.5L488-3.7C507.4-23.1,522.1-39,520.5-39Z" transform="translate(55.7 39)" style="fill:#fff"/><path d="M543.1-39c-1.6,0-18.7,15.9-38.2,35.4L-20.3,521.5c-19.4,19.4-35.4,36.6-35.4,38.2s15.9-13.1,35.4-32.5L510.6-3.7C530-23.1,544.7-39,543.1-39Z" transform="translate(55.7 39)" style="fill:#fff"/><path d="M564.3-39c-.8,0-17.4,15.9-36.8,35.3L-20.2,541.4c-19.5,19.4-35.4,36.5-35.4,38.1s15.9-13.1,35.4-32.5L530.3-3.7C549.8-23.1,565.1-39,564.3-39Z" transform="translate(55.7 39)" style="fill:#fff"/><path d="M585.5-39c-1.6,0-18.7,15.9-38.2,35.4L-20.3,563.9c-19.4,19.4-35.4,36.6-35.4,38.2s15.9-13.1,35.4-32.5L552.9-3.7C572.4-23.1,587-39,585.5-39Z" transform="translate(55.7 39)" style="fill:#fff"/><path d="M608.1-39c-1.6,0-18.7,15.9-38.2,35.4L-20.3,586.5c-19.4,19.4-35.4,36.6-35.4,38.2s15.9-13.1,35.4-32.5L575.5-3.7C595-23.1,609.6-39,608.1-39Z" transform="translate(55.7 39)" style="fill:#fff"/><path d="M627.8-39c-1.6,0-18.7,15.9-38.2,35.4L-20.3,606.3c-19.4,19.4-35.4,36.6-35.4,38.2s15.9-13.1,35.4-32.5L595.3-3.7C614.8-23.1,629.4-39,627.8-39Z" transform="translate(55.7 39)" style="fill:#fff"/><path d="M650.4-37.6A1.37,1.37,0,0,0,649-39c-.8,0-17.3,15.9-36.8,35.4L-20.3,628.8c-19.4,19.4-35.4,36-35.4,36.8a1.37,1.37,0,0,0,1.4,1.4c.8,0,17.3-15.9,36.8-35.4L615.1-.8C634.5-20.3,650.4-36.8,650.4-37.6Z" transform="translate(55.7 39)" style="fill:#fff"/><path d="M-33,667c1.6,0,18.7-15.9,38.2-35.4L615.1,21.7c19.4-19.4,35.4-36.6,35.4-38.2S634.6-3.4,615.1,16L-.5,631.7C-19.9,651.1-34.6,667-33,667Z" transform="translate(55.7 39)" style="fill:#fff"/><path d="M-13.3,667c1.6,0,18.7-15.9,38.2-35.4L615.1,41.5c19.4-19.4,35.4-36.6,35.4-38.2s-15.9,13.1-35.4,32.5L19.3,631.7C-.2,651.1-14.8,667-13.3,667Z" transform="translate(55.7 39)" style="fill:#fff"/><path d="M9.3,667c1.6,0,18.7-15.9,38.2-35.4L615.1,64.1c19.4-19.4,35.4-36.6,35.4-38.2s-16,13.1-35.4,32.6L41.9,631.7C22.4,651.1,7.8,667,9.3,667Z" transform="translate(55.7 39)" style="fill:#fff"/><path d="M30.5,667c.8,0,17.3-15.9,36.8-35.4L615.1,83.9c19.4-19.4,35.4-36,35.4-36.8S634.6,61.6,615.1,81L64.5,631.7C45,651.1,29.7,667,30.5,667Z" transform="translate(55.7 39)" style="fill:#fff"/><path d="M51.7,667c1.6,0,18.7-15.9,38.2-35.4L615.1,106.4c19.4-19.4,35.4-36.6,35.4-38.2s-15.9,13.1-35.4,32.5L84.2,631.7C64.8,651.1,50.1,667,51.7,667Z" transform="translate(55.7 39)" style="fill:#fff"/><path d="M74.3,667c1.6,0,18.7-15.9,38.2-35.4L615.1,129c19.4-19.4,35.4-36.6,35.4-38.2s-15.9,13.1-35.4,32.5L106.8,631.7C87.4,651.1,72.7,667,74.3,667Z" transform="translate(55.7 39)" style="fill:#fff"/><path d="M94.1,667c1.6,0,18.7-15.9,38.2-35.4L615.1,148.8c19.4-19.4,35.4-36.6,35.4-38.2s-15.9,13.1-35.4,32.5L126.6,631.7C107.1,651.1,92.5,667,94.1,667Z" transform="translate(55.7 39)" style="fill:#fff"/><path d="M116.7,667c1.6,0,18.7-15.9,38.2-35.4L615.1,171.4c19.4-19.4,35.4-36.6,35.4-38.2s-15.9,13.1-35.4,32.5l-465.9,466C129.7,651.1,115.1,667,116.7,667Z" transform="translate(55.7 39)" style="fill:#fff"/><path d="M139.2,667c1.6,0,18.7-15.9,38.2-35.4L615.1,194c19.4-19.4,35.4-36.6,35.4-38.2s-15.9,13.1-35.4,32.5L171.8,631.7C152.3,651.1,137.7,667,139.2,667Z" transform="translate(55.7 39)" style="fill:#fff"/><path d="M159,667c1.6,0,18.7-15.9,38.2-35.4L615.1,213.7c19.4-19.4,35.4-36.6,35.4-38.2s-15.9,13.1-35.4,32.5L191.5,631.7C172.1,651.1,157.5,667,159,667Z" transform="translate(55.7 39)" style="fill:#fff"/><path d="M181.6,667c1.6,0,18.7-15.9,38.2-35.4L615.1,236.3c19.4-19.4,35.4-36.6,35.4-38.2s-15.9,13.1-35.4,32.5l-401,401.1C194.7,651.1,180.1,667,181.6,667Z" transform="translate(55.7 39)" style="fill:#fff"/><path d="M204.2,667c1.6,0,18.7-15.9,38.2-35.4L615.1,259c19.4-19.4,35.4-36.6,35.4-38.2s-15.9,13.1-35.4,32.5L236.7,631.7C217.3,651.1,202.6,667,204.2,667Z" transform="translate(55.7 39)" style="fill:#fff"/><path d="M224,667c1.6,0,18.7-15.9,38.2-35.4L615.1,278.7c19.4-19.4,35.4-36.6,35.4-38.2s-15.9,13.1-35.4,32.5L256.5,631.7C237.1,651.1,222.4,667,224,667Z" transform="translate(55.7 39)" style="fill:#fff"/><path d="M246.6,667c1.6,0,18.7-15.9,38.2-35.4L615.1,301.3c19.4-19.4,35.4-36.6,35.4-38.2s-15.9,13.1-35.4,32.5l-336,336C259.7,651.1,245,667,246.6,667Z" transform="translate(55.7 39)" style="fill:#fff"/><path d="M267.7,667c.8,0,17.3-15.9,36.8-35.4L615.1,321c19.4-19.4,35.4-36,35.4-36.8s-15.9,14.5-35.4,33.9L301.7,631.7C282.2,651.1,267,667,267.7,667Z" transform="translate(55.7 39)" style="fill:#fff"/><path d="M288.9,667c1.6,0,18.7-15.9,38.2-35.4l288-288c19.4-19.4,35.4-36.6,35.4-38.2s-15.9,13.1-35.4,32.5L321.5,631.7C302,651.1,287.4,667,288.9,667Z" transform="translate(55.7 39)" style="fill:#fff"/><path d="M311.5,667c1.6,0,18.7-15.9,38.2-35.4L615.1,366.2c19.4-19.4,35.4-36.6,35.4-38.2s-15.9,13.1-35.4,32.5l-271,271C324.6,651.1,310,667,311.5,667Z" transform="translate(55.7 39)" style="fill:#fff"/><path d="M331.3,667c1.6,0,18.7-15.9,38.2-35.4L615.1,386c19.4-19.4,35.4-36.6,35.4-38.2s-15.9,13.1-35.4,32.5L363.8,631.7C344.4,651.1,329.7,667,331.3,667Z" transform="translate(55.7 39)" style="fill:#fff"/><path d="M353.9,667c1.6,0,18.7-15.9,38.2-35.4l223-223c19.4-19.4,35.4-36.6,35.4-38.2s-15.9,13.1-35.4,32.5L386.4,631.7C367,651.1,352.3,667,353.9,667Z" transform="translate(55.7 39)" style="fill:#fff"/><path d="M376.5,667c1.6,0,18.7-15.9,38.2-35.4L615.1,431.2c19.4-19.4,35.4-36.6,35.4-38.2s-15.9,13.1-35.4,32.5L409,631.7C389.6,651.1,374.9,667,376.5,667Z" transform="translate(55.7 39)" style="fill:#fff"/><path d="M396.3,667c1.6,0,18.7-15.9,38.2-35.4L615.1,451c19.4-19.4,35.4-36.6,35.4-38.2s-15.9,13.1-35.4,32.5L428.8,631.7C409.3,651.1,394.7,667,396.3,667Z" transform="translate(55.7 39)" style="fill:#fff"/><path d="M418.8,667c1.6,0,18.7-15.9,38.2-35.4L615.1,473.5c19.4-19.4,35.4-36.6,35.4-38.2s-15.9,13.1-35.4,32.5L451.4,631.7C431.9,651.1,417.3,667,418.8,667Z" transform="translate(55.7 39)" style="fill:#fff"/><path d="M441.4,667c1.6,0,18.7-15.9,38.2-35.4L615.1,496.1c19.4-19.4,35.4-36.6,35.4-38.2s-15.9,13.1-35.4,32.5L474,631.7C454.5,651.1,439.9,667,441.4,667Z" transform="translate(55.7 39)" style="fill:#fff"/><path d="M461.2,667c1.6,0,18.7-15.9,38.2-35.4L615.1,516c19.4-19.4,35.4-36.6,35.4-38.2s-15.9,13.1-35.4,32.5L493.7,631.7C474.3,651.1,459.7,667,461.2,667Z" transform="translate(55.7 39)" style="fill:#fff"/><path d="M483.8,667c1.6,0,18.7-15.9,38.2-35.4l93.1-93.1c19.4-19.4,35.4-36.6,35.4-38.2s-15.9,13.1-35.4,32.5l-98.7,98.7C496.9,651.1,482.2,667,483.8,667Z" transform="translate(55.7 39)" style="fill:#fff"/><path d="M505,667c.8,0,17.3-15.9,36.8-35.4l73.3-73.3c19.4-19.4,35.4-36,35.4-36.8s-15.9,14.5-35.4,33.9L539,631.5C519.5,651.1,504.2,667,505,667Z" transform="translate(55.7 39)" style="fill:#fff"/><path d="M526.2,667c1.6,0,18.7-15.9,38.2-35.4l50.7-50.7c19.4-19.4,35.4-36.6,35.4-38.2s-15.9,13.1-35.4,32.5l-56.4,56.4C539.2,651.1,524.6,667,526.2,667Z" transform="translate(55.7 39)" style="fill:#fff"/><path d="M548.8,667c1.6,0,18.7-15.9,38.2-35.4l28.1-28.1c19.4-19.4,35.4-36.6,35.4-38.2s-15.9,13.1-35.4,32.5l-33.8,33.8C561.8,651.1,547.2,667,548.8,667Z" transform="translate(55.7 39)" style="fill:#fff"/><path d="M568.5,667c1.6,0,18.7-15.9,38.2-35.4l8.4-8.4c19.4-19.4,35.4-36.6,35.4-38.2s-15.9,13.1-35.4,32.5l-14,14C581.6,651.1,567,667,568.5,667Z" transform="translate(55.7 39)" style="fill:#fff"/><path d="M591.1,667c1.6,0,15.5-12.7,31.1-28.2s28.2-29.5,28.2-31.1-14,11.2-31.1,28.2S589.6,667,591.1,667Z" transform="translate(55.7 39)" style="fill:#fff"/><path d="M613.7,667c1.6,0,10.4-7.6,19.8-16.9s16.9-18.2,16.9-19.8-8.9,6.1-19.8,16.9S612.2,667,613.7,667Z" transform="translate(55.7 39)" style="fill:#fff"/><path d="M633.5,667c1.6,0,6-3.2,9.9-7.1s7.1-8.3,7.1-9.9-4.4,1.6-9.9,7.1S631.9,667,633.5,667Z" transform="translate(55.7 39)" style="fill:#fff"/></g></g></g><g id="Layer_3" data-name="Layer 3"><path d="M373.6,211.7c-19.2-20.7-46-32.1-75.5-32.1-29.7,0-56.6,11.3-75.7,31.9-19.3,20.8-28.7,49.1-26.5,79.6,4.4,60.2,50.2,109.2,102.2,109.2s97.7-49,102.2-109.2C402.4,260.9,393,232.7,373.6,211.7Z" transform="translate(55.7 39)" style="fill:#fff"/><path d="M471.5,621.1H124.6a30.62,30.62,0,0,1-23.9-11c-6.4-7.7-9-18.1-7.1-28.7,8.3-46.1,34.3-84.9,75.1-112.1,36.2-24.2,82.2-37.5,129.3-37.5s93.1,13.3,129.3,37.5c40.8,27.2,66.8,66,75.1,112.1,1.9,10.6-.7,21-7.1,28.7A30.11,30.11,0,0,1,471.5,621.1Z" transform="translate(55.7 39)" style="fill:#fff"/><g id="Layer_1-2" data-name="Layer 1"><path d="M533.1,6.2H62.9C28.8,6.2,1,35,1,70.3V557.7c0,35.4,27.8,64.1,61.9,64.1H533.1c34.1,0,61.9-28.8,61.9-64.1V70.3C595,35,567.3,6.2,533.1,6.2Zm37.2,551.5c0,21.2-16.7,38.5-37.1,38.5H62.9c-20.5,0-37.1-17.3-37.1-38.5V70.3c0-21.2,16.7-38.5,37.1-38.5H533.1c20.5,0,37.1,17.3,37.1,38.5V557.7Z" transform="translate(55.7 39)" style="fill:#fff"/></g></g></svg>