<svg id="Layer_1" data-name="Layer 1" xmlns="http://www.w3.org/2000/svg" viewBox="0 0 35.2 47.9"><g id="Icon-Lock"><path id="Fill-66" d="M31.9,20.7h-3V14.3a11.3,11.3,0,1,0-22.6,0v6.4h-3V14.3a14.3,14.3,0,1,1,28.6,0v6.4" transform="translate(0 0)" style="fill:#9d9da4"/><path id="Fill-67" d="M30.4,47.9H4.8A4.87,4.87,0,0,1,0,43.1V23.9a4.87,4.87,0,0,1,4.8-4.8H30.4a4.87,4.87,0,0,1,4.8,4.8V43.1a4.8,4.8,0,0,1-4.8,4.8ZM4.8,22.3a1.58,1.58,0,0,0-1.6,1.6V43.1a1.58,1.58,0,0,0,1.6,1.6H30.4A1.58,1.58,0,0,0,32,43.1V23.9a1.58,1.58,0,0,0-1.6-1.6Z" transform="translate(0 0)" style="fill:#9d9da4"/><path id="Fill-68" d="M20.8,28.7a3.2,3.2,0,1,1-3.2-3.2,3.22,3.22,0,0,1,3.2,3.2" transform="translate(0 0)" style="fill:#9d9da4"/><polyline id="Fill-69" points="18.4 28.7 16.8 28.7 15.2 38.3 20 38.3 18.4 28.7" style="fill:#9d9da4"/></g></svg>