<?xml version="1.0" encoding="utf-8"?>
<!-- Generator: Adobe Illustrator 24.3.0, SVG Export Plug-In . SVG Version: 6.00 Build 0)  -->
<svg version="1.1" id="Layer_1" xmlns="http://www.w3.org/2000/svg" xmlns:xlink="http://www.w3.org/1999/xlink" x="0px" y="0px"
	 viewBox="0 0 35.2 47.9" style="enable-background:new 0 0 35.2 47.9;" xml:space="preserve">
<style type="text/css">
	.st0{fill:#9D9DA4;}
</style>
<g>
	<g id="Icon-Lock" transform="translate(284.000000, 430.000000)">
		<path id="Fill-66" class="st0" d="M-252.1-409.3h-3v-6.4c0-6.2-5.1-11.3-11.3-11.3s-11.3,5.1-11.3,11.3v6.4h-3v-6.4
			c0-7.9,6.4-14.3,14.3-14.3c7.9,0,14.3,6.4,14.3,14.3L-252.1-409.3"/>
		<path id="Fill-67" class="st0" d="M-253.6-382.1h-25.6c-2.6,0-4.8-2.2-4.8-4.8v-19.2c0-2.6,2.2-4.8,4.8-4.8h25.6
			c2.6,0,4.8,2.2,4.8,4.8v19.2C-248.8-384.2-251-382.1-253.6-382.1L-253.6-382.1z M-279.2-407.7c-0.9,0-1.6,0.7-1.6,1.6v19.2
			c0,0.9,0.7,1.6,1.6,1.6h25.6c0.9,0,1.6-0.7,1.6-1.6v-19.2c0-0.9-0.7-1.6-1.6-1.6H-279.2L-279.2-407.7z"/>
		<path id="Fill-68" class="st0" d="M-263.2-401.3c0,1.8-1.4,3.2-3.2,3.2s-3.2-1.4-3.2-3.2s1.4-3.2,3.2-3.2S-263.2-403-263.2-401.3"
			/>
		<polyline id="Fill-69" class="st0" points="-265.6,-401.3 -267.2,-401.3 -268.8,-391.7 -264,-391.7 -265.6,-401.3 		"/>
	</g>
</g>
</svg>
