<svg id="Layer_1" data-name="Layer 1" xmlns="http://www.w3.org/2000/svg" viewBox="0 0 29 29"><g id="Layer_1-2" data-name="Layer 1"><circle cx="14.5" cy="14.5" r="14.5" style="fill:#fff"/></g><g id="Layer_2" data-name="Layer 2"><path d="M20.8,13.2H14.5v2.6h3.6a3.88,3.88,0,0,1-3.6,2.6,3.8,3.8,0,0,1,0-7.6,4,4,0,0,1,2.6,1L18.9,10a6.2,6.2,0,0,0-4.4-1.7,6.4,6.4,0,1,0,6.4,6.4A6.62,6.62,0,0,0,20.8,13.2Z" style="fill:#141414"/><path d="M8.8,11.5,10.9,13a4,4,0,0,1,3.6-2.4,4,4,0,0,1,2.6,1l1.8-1.8a6.2,6.2,0,0,0-4.4-1.7A6.48,6.48,0,0,0,8.8,11.5Z" style="fill:#141414"/><path d="M14.5,20.9a6,6,0,0,0,4.3-1.7l-2-1.7a3.57,3.57,0,0,1-2.3.8,3.83,3.83,0,0,1-3.6-2.5L8.8,17.4A6.39,6.39,0,0,0,14.5,20.9Z" style="fill:#141414"/><path d="M20.8,13.2H14.5v2.6h3.6a4.63,4.63,0,0,1-1.3,1.8h0l2,1.7a6,6,0,0,0,2.1-4.7A6.15,6.15,0,0,0,20.8,13.2Z" style="fill:#141414"/></g></svg>