<svg id="Layer_1" data-name="Layer 1" xmlns="http://www.w3.org/2000/svg" viewBox="0 0 29 29"><g id="Layer_1-2" data-name="Layer 1"><circle cx="14.5" cy="14.5" r="14.5" style="fill:#fff"/></g><g id="Layer_4" data-name="Layer 4"><path d="M19.4,12.5A2.79,2.79,0,0,0,18,15a3.08,3.08,0,0,0,1.7,2.6,5,5,0,0,1-.9,1.8c-.5.8-1.1,1.6-2,1.6s-1.1-.5-2.1-.5-1.3.5-2.1.5-1.5-.8-2-1.6a7.75,7.75,0,0,1-1.3-4.2,4.56,4.56,0,0,1,.5-2.3,3.15,3.15,0,0,1,2.7-1.6c.8,0,1.6.6,2.1.6a16.48,16.48,0,0,1,2.4-.6A2.35,2.35,0,0,1,19.4,12.5ZM14.5,11a3.38,3.38,0,0,1,.6-2A2.76,2.76,0,0,1,17,8a2.88,2.88,0,0,1-.7,2A1.83,1.83,0,0,1,14.5,11Z" style="fill:#141414"/></g></svg>