<?xml version="1.0" encoding="utf-8"?>
<!-- Generator: Adobe Illustrator 24.3.0, SVG Export Plug-In . SVG Version: 6.00 Build 0)  -->
<svg version="1.1" xmlns="http://www.w3.org/2000/svg" xmlns:xlink="http://www.w3.org/1999/xlink" x="0px" y="0px"
	 viewBox="0 0 29 29" style="enable-background:new 0 0 29 29;" xml:space="preserve">
<style type="text/css">
	.st0{fill:#FFFFFF;}
	.st1{fill-rule:evenodd;clip-rule:evenodd;fill:#141414;}
	.st2{display:none;}
	.st3{display:inline;fill:#141414;}
	.st4{display:inline;}
	.st5{fill:#141414;}
</style>
<g id="Layer_1">
	<circle class="st0" cx="14.5" cy="14.5" r="14.5"/>
</g>
<g id="Layer_3">
	<path class="st1" d="M17.4,8.1c0,0.7,0,1.5,0,2.2c-0.2,0-0.3,0-0.5,0c-0.3,0-0.6,0-0.9,0c-0.3,0-0.6,0.2-0.6,0.5c0,0.5,0,0.9,0,1.4
		c0.7,0,1.3,0,2,0c-0.1,0.8-0.2,1.5-0.2,2.3c-0.6,0-1.2,0-1.8,0c0,2.1,0,4.3,0,6.4c-0.9,0-1.8,0-2.7,0c0-2.1,0-4.3,0-6.4
		c-0.4,0-0.8,0-1.3,0c0-0.8,0-1.5,0-2.3c0.4,0,0.8,0,1.3,0c0-0.1,0-0.1,0-0.2c0-0.5,0-1.1,0-1.6c0.1-0.9,0.4-1.6,1.2-2
		c0.4-0.2,0.8-0.3,1.3-0.3C16,8.1,16.7,8.1,17.4,8.1C17.4,8.1,17.4,8.1,17.4,8.1z"/>
</g>
<g id="Layer_4" class="st2">
	<path class="st3" d="M19.4,12.5c-0.1,0-1.4,0.8-1.4,2.5c0.1,1.9,1.7,2.6,1.7,2.6c0,0-0.2,0.9-0.9,1.8c-0.5,0.8-1.1,1.6-2,1.6
		c-0.8,0-1.1-0.5-2.1-0.5c-1,0-1.3,0.5-2.1,0.5c-0.9,0-1.5-0.8-2-1.6c-0.7-1-1.3-2.6-1.3-4.2c0-0.8,0.1-1.6,0.5-2.3
		c0.6-1,1.6-1.6,2.7-1.6c0.8,0,1.6,0.6,2.1,0.6c0.5,0,1.4-0.6,2.4-0.6C17.5,11.2,18.7,11.3,19.4,12.5z M14.5,11
		c-0.1-0.7,0.3-1.5,0.6-2c0.5-0.6,1.3-1,1.9-1c0,0.7-0.2,1.5-0.7,2C15.9,10.7,15.2,11.1,14.5,11z"/>
</g>
<g id="Layer_2" class="st2">
	<g class="st4">
		<path class="st5" d="M20.2,13.4h-0.5v0h-5.2v2.3h3.3C17.3,17,16,18,14.5,18c-1.9,0-3.5-1.6-3.5-3.5s1.6-3.5,3.5-3.5
			c0.9,0,1.7,0.3,2.3,0.9l1.6-1.6c-1-1-2.4-1.6-3.9-1.6c-3.2,0-5.8,2.6-5.8,5.8s2.6,5.8,5.8,5.8s5.8-2.6,5.8-5.8
			C20.3,14.1,20.3,13.7,20.2,13.4z"/>
		<path class="st5" d="M9.4,11.8l1.9,1.4c0.5-1.3,1.8-2.2,3.2-2.2c0.9,0,1.7,0.3,2.3,0.9l1.6-1.6c-1-1-2.4-1.6-3.9-1.6
			C12.3,8.7,10.3,10,9.4,11.8z"/>
		<path class="st5" d="M14.5,20.3c1.5,0,2.9-0.6,3.9-1.5l-1.8-1.5C16,17.7,15.3,18,14.5,18c-1.5,0-2.8-1-3.3-2.3l-1.9,1.5
			C10.3,19,12.2,20.3,14.5,20.3z"/>
		<path class="st5" d="M20.2,13.4h-0.5v0h-5.2v2.3h3.3c-0.2,0.6-0.6,1.2-1.2,1.6c0,0,0,0,0,0l1.8,1.5c-0.1,0.1,1.9-1.4,1.9-4.3
			C20.3,14.1,20.3,13.7,20.2,13.4z"/>
	</g>
</g>
</svg>
