<?xml version="1.0" encoding="utf-8"?>
<!-- Generator: Adobe Illustrator 24.3.0, SVG Export Plug-In . SVG Version: 6.00 Build 0)  -->
<svg version="1.1" xmlns="http://www.w3.org/2000/svg" xmlns:xlink="http://www.w3.org/1999/xlink" x="0px" y="0px"
	 viewBox="0 0 29 29" style="enable-background:new 0 0 29 29;" xml:space="preserve">
<style type="text/css">
	.st0{fill:#FFFFFF;}
	.st1{display:none;}
	.st2{display:inline;fill-rule:evenodd;clip-rule:evenodd;fill:#141414;}
	.st3{display:inline;fill:#141414;}
	.st4{fill:#141414;}
</style>
<g id="Layer_1">
	<circle class="st0" cx="14.5" cy="14.5" r="14.5"/>
</g>
<g id="Layer_3" class="st1">
	<path class="st2" d="M17.4,8.1c0,0.7,0,1.5,0,2.2c-0.2,0-0.3,0-0.5,0c-0.3,0-0.6,0-0.9,0c-0.3,0-0.6,0.2-0.6,0.5c0,0.5,0,0.9,0,1.4
		c0.7,0,1.3,0,2,0c-0.1,0.8-0.2,1.5-0.2,2.3c-0.6,0-1.2,0-1.8,0c0,2.1,0,4.3,0,6.4c-0.9,0-1.8,0-2.7,0c0-2.1,0-4.3,0-6.4
		c-0.4,0-0.8,0-1.3,0c0-0.8,0-1.5,0-2.3c0.4,0,0.8,0,1.3,0c0-0.1,0-0.1,0-0.2c0-0.5,0-1.1,0-1.6c0.1-0.9,0.4-1.6,1.2-2
		c0.4-0.2,0.8-0.3,1.3-0.3C16,8.1,16.7,8.1,17.4,8.1C17.4,8.1,17.4,8.1,17.4,8.1z"/>
</g>
<g id="Layer_4" class="st1">
	<path class="st3" d="M19.4,12.5c-0.1,0-1.4,0.8-1.4,2.5c0.1,1.9,1.7,2.6,1.7,2.6c0,0-0.2,0.9-0.9,1.8c-0.5,0.8-1.1,1.6-2,1.6
		c-0.8,0-1.1-0.5-2.1-0.5c-1,0-1.3,0.5-2.1,0.5c-0.9,0-1.5-0.8-2-1.6c-0.7-1-1.3-2.6-1.3-4.2c0-0.8,0.1-1.6,0.5-2.3
		c0.6-1,1.6-1.6,2.7-1.6c0.8,0,1.6,0.6,2.1,0.6c0.5,0,1.4-0.6,2.4-0.6C17.5,11.2,18.7,11.3,19.4,12.5z M14.5,11
		c-0.1-0.7,0.3-1.5,0.6-2c0.5-0.6,1.3-1,1.9-1c0,0.7-0.2,1.5-0.7,2C15.9,10.7,15.2,11.1,14.5,11z"/>
</g>
<g id="Layer_2">
	<g>
		<path class="st4" d="M20.8,13.2h-0.5v0h-5.8v2.6h3.6c-0.5,1.5-2,2.6-3.6,2.6c-2.1,0-3.8-1.7-3.8-3.8s1.7-3.8,3.8-3.8
			c1,0,1.9,0.4,2.6,1l1.8-1.8c-1.1-1.1-2.7-1.7-4.4-1.7c-3.5,0-6.4,2.9-6.4,6.4s2.9,6.4,6.4,6.4s6.4-2.9,6.4-6.4
			C20.9,14.1,20.9,13.6,20.8,13.2z"/>
		<path class="st4" d="M8.8,11.5l2.1,1.5c0.6-1.4,2-2.4,3.6-2.4c1,0,1.9,0.4,2.6,1l1.8-1.8c-1.1-1.1-2.7-1.7-4.4-1.7
			C12,8.1,9.9,9.5,8.8,11.5z"/>
		<path class="st4" d="M14.5,20.9c1.7,0,3.2-0.6,4.3-1.7l-2-1.7c-0.6,0.5-1.4,0.8-2.3,0.8c-1.7,0-3.1-1.1-3.6-2.5l-2.1,1.6
			C9.9,19.5,12,20.9,14.5,20.9z"/>
		<path class="st4" d="M20.8,13.2h-0.5v0h-5.8v2.6h3.6c-0.3,0.7-0.7,1.3-1.3,1.8c0,0,0,0,0,0l2,1.7c-0.1,0.1,2.1-1.5,2.1-4.7
			C20.9,14.1,20.9,13.6,20.8,13.2z"/>
	</g>
</g>
</svg>
