<svg id="Layer_1" data-name="Layer 1" xmlns="http://www.w3.org/2000/svg" viewBox="0 0 100 100"><g id="Layer_1-2" data-name="Layer 1"><path d="M100,84a16,16,0,0,1-16,16H16A16,16,0,0,1,0,84V16A16,16,0,0,1,16,0H84a16,16,0,0,1,16,16Z" style="fill:#242a30"/></g><g id="Layer_3" data-name="Layer 3"><path d="M42.7,63.1c0,2.9-3,5.3-6.6,5.3s-6.6-2.4-6.6-5.3,3-5.3,6.6-5.3S42.7,60.2,42.7,63.1Zm23.9-5.3c0,2.9-3,5.3-6.6,5.3s-6.6-2.4-6.6-5.3,3-5.3,6.6-5.3S66.6,54.9,66.6,57.8Z" style="fill:#fff"/><path d="M63.9,57.8V33.9h2.7V57.8ZM42.7,36.6V63.2H40V36.6Z" style="fill:#fff;fill-rule:evenodd"/><path d="M40,36.3a2.54,2.54,0,0,1,2.4-2.6l21.3-2.1A2.62,2.62,0,0,1,66.6,34v2.7L40,39.2Z" style="fill:#fff"/></g></svg>