<?xml version="1.0" encoding="utf-8"?>
<!-- Generator: Adobe Illustrator 24.3.0, SVG Export Plug-In . SVG Version: 6.00 Build 0)  -->
<svg version="1.1" xmlns="http://www.w3.org/2000/svg" xmlns:xlink="http://www.w3.org/1999/xlink" x="0px" y="0px"
	 viewBox="0 0 100 100" style="enable-background:new 0 0 100 100;" xml:space="preserve">
<style type="text/css">
	.st0{fill:#242A30;}
	.st1{fill:#FFFFFF;}
	.st2{fill-rule:evenodd;clip-rule:evenodd;fill:#FFFFFF;}
</style>
<g id="Layer_1">
	<g>
		<path class="st0" d="M100,84c0,8.8-7.2,16-16,16H16c-8.8,0-16-7.2-16-16V16C0,7.2,7.2,0,16,0h68c8.8,0,16,7.2,16,16V84z"/>
	</g>
</g>
<g id="Layer_3">
	<g>
		<path class="st1" d="M42.7,63.1c0,2.9-3,5.3-6.6,5.3c-3.7,0-6.6-2.4-6.6-5.3c0-2.9,3-5.3,6.6-5.3C39.7,57.8,42.7,60.2,42.7,63.1z
			 M66.6,57.8c0,2.9-3,5.3-6.6,5.3c-3.7,0-6.6-2.4-6.6-5.3c0-2.9,3-5.3,6.6-5.3C63.6,52.5,66.6,54.9,66.6,57.8z"/>
		<path class="st2" d="M63.9,57.8V33.9h2.7v23.9H63.9z M42.7,36.6v26.6H40V36.6H42.7z"/>
		<path class="st1" d="M40,36.3c0-1.4,1-2.5,2.4-2.6l21.3-2.1c1.5-0.1,2.8,0.9,2.9,2.4c0,0.1,0,0.2,0,0.3v2.4L40,39.2V36.3z"/>
	</g>
</g>
</svg>
