<svg id="Layer_1" data-name="Layer 1" xmlns="http://www.w3.org/2000/svg" viewBox="0 0 100 100"><g id="Layer_1-2" data-name="Layer 1"><path d="M100,84a16,16,0,0,1-16,16H16A16,16,0,0,1,0,84V16A16,16,0,0,1,16,0H84a16,16,0,0,1,16,16Z" style="fill:#242a30"/></g><g id="Layer_2" data-name="Layer 2"><path d="M54.5,33.9a2.32,2.32,0,0,0-3.9-1.7l-9,8.4a1.14,1.14,0,0,1-.8.3H34.7a3.54,3.54,0,0,0-3.5,3.5V56a3.54,3.54,0,0,0,3.5,3.5h6.1a1.14,1.14,0,0,1,.8.3l9,8.4a2.32,2.32,0,0,0,3.9-1.7Z" style="fill:#fff"/><path d="M57.1,44.7a1,1,0,0,1,1.6,0l3.8,3.8,3.8-3.8a1.13,1.13,0,0,1,1.6,1.6l-3.8,3.8,3.8,3.8a1.13,1.13,0,0,1-1.6,1.6l-3.8-3.8-3.8,3.8a1.13,1.13,0,0,1-1.6-1.6l3.8-3.8-3.8-3.8A1.21,1.21,0,0,1,57.1,44.7Z" style="fill:#fff"/></g></svg>