<?xml version="1.0" encoding="utf-8"?>
<!-- Generator: Adobe Illustrator 24.3.0, SVG Export Plug-In . SVG Version: 6.00 Build 0)  -->
<svg version="1.1" xmlns="http://www.w3.org/2000/svg" xmlns:xlink="http://www.w3.org/1999/xlink" x="0px" y="0px"
	 viewBox="0 0 100 100" style="enable-background:new 0 0 100 100;" xml:space="preserve">
<style type="text/css">
	.st0{fill:#242A30;}
	.st1{fill:#FFFFFF;}
</style>
<g id="Layer_1">
	<g>
		<path class="st0" d="M100,84c0,8.8-7.2,16-16,16H16c-8.8,0-16-7.2-16-16V16C0,7.2,7.2,0,16,0h68c8.8,0,16,7.2,16,16V84z"/>
	</g>
</g>
<g id="Layer_2">
	<g>
		<path class="st1" d="M54.5,33.9c0-2-2.4-3.1-3.9-1.7l-9,8.4c-0.2,0.2-0.5,0.3-0.8,0.3h-6.1c-1.9,0-3.5,1.6-3.5,3.5v11.6
			c0,1.9,1.6,3.5,3.5,3.5h6.1c0.3,0,0.6,0.1,0.8,0.3l9,8.4c1.5,1.4,3.9,0.3,3.9-1.7V33.9z"/>
		<path class="st1" d="M57.1,44.7c0.5-0.5,1.2-0.5,1.6,0l3.8,3.8l3.8-3.8c0.5-0.5,1.2-0.5,1.6,0c0.5,0.5,0.5,1.2,0,1.6l-3.8,3.8
			l3.8,3.8c0.5,0.5,0.5,1.2,0,1.6c-0.5,0.5-1.2,0.5-1.6,0l-3.8-3.8l-3.8,3.8c-0.5,0.5-1.2,0.5-1.6,0c-0.5-0.5-0.5-1.2,0-1.6l3.8-3.8
			l-3.8-3.8C56.7,45.8,56.7,45.1,57.1,44.7z"/>
	</g>
</g>
</svg>
