<?xml version="1.0" encoding="utf-8"?>
<!-- Generator: Adobe Illustrator 24.3.0, SVG Export Plug-In . SVG Version: 6.00 Build 0)  -->
<svg version="1.1" id="Layer_1" xmlns="http://www.w3.org/2000/svg" xmlns:xlink="http://www.w3.org/1999/xlink" x="0px" y="0px"
	 viewBox="0 0 26 24" style="enable-background:new 0 0 26 24;" xml:space="preserve">
<style type="text/css">
	.st0{fill:#38C1F0;}
</style>
<g id="Layer_2_1_">
	<path class="st0" d="M21,24H5c-1.7,0-3-1.3-3-3V11c0-0.6,0.4-1,1-1s1,0.4,1,1v10c0,0.6,0.4,1,1,1h16c0.6,0,1-0.4,1-1V11
		c0-0.6,0.4-1,1-1s1,0.4,1,1v10C24,22.7,22.7,24,21,24z"/>
	<path class="st0" d="M12,24H7c-0.6,0-1-0.4-1-1v-6c0-1.7,1.3-3,3-3h1c1.7,0,3,1.3,3,3v6C13,23.6,12.6,24,12,24z M8,22h3v-5
		c0-0.6-0.4-1-1-1H9c-0.6,0-1,0.4-1,1V22z"/>
	<path class="st0" d="M22,12c-2.2,0-4-1.8-4-4c0-0.6,0.4-1,1-1s1,0.4,1,1c0,1.1,0.9,2,2,2s2-0.9,2-2V7.2L21.4,2H4.6L2,7.2V8
		c0,1.1,0.9,2,2,2s2-0.9,2-2c0-0.6,0.4-1,1-1s1,0.4,1,1c0,2.2-1.8,4-4,4s-4-1.8-4-4V7c0-0.2,0-0.3,0.1-0.4l3-6C3.3,0.2,3.6,0,4,0h18
		c0.4,0,0.7,0.2,0.9,0.6l3,6C26,6.7,26,6.8,26,7v1C26,10.2,24.2,12,22,12z"/>
	<path class="st0" d="M10,12c-2.2,0-4-1.8-4-4c0-0.6,0.4-1,1-1s1,0.4,1,1c0,1.1,0.9,2,2,2s2-0.9,2-2c0-0.6,0.4-1,1-1
		c0.6,0,1,0.4,1,1C14,10.2,12.2,12,10,12z"/>
	<path class="st0" d="M16,12c-2.2,0-4-1.8-4-4c0-0.6,0.4-1,1-1c0.6,0,1,0.4,1,1c0,1.1,0.9,2,2,2s2-0.9,2-2c0-0.6,0.4-1,1-1
		s1,0.4,1,1C20,10.2,18.2,12,16,12z"/>
	<path class="st0" d="M19,17h-3c-0.6,0-1-0.4-1-1s0.4-1,1-1h3c0.6,0,1,0.4,1,1S19.6,17,19,17z"/>
</g>
</svg>
