<?xml version="1.0" encoding="utf-8"?>
<!-- Generator: Adobe Illustrator 24.3.0, SVG Export Plug-In . SVG Version: 6.00 Build 0)  -->
<svg version="1.1" id="Layer_1" xmlns="http://www.w3.org/2000/svg" xmlns:xlink="http://www.w3.org/1999/xlink" x="0px" y="0px"
	 viewBox="0 0 353 418" style="enable-background:new 0 0 353 418;" xml:space="preserve">
<style type="text/css">
	.st0{fill:#38C1F0;}
</style>
<path class="st0" d="M0.3,146c0-30.1,21.5-54.9,51.2-58.9c2-0.3,3.7-0.8,5.3-1.6C108.8,59.5,160.9,33.4,213,7.4
	c5.3-2.7,9.7-4.4,12.9-5.3c26.8-7.2,54.5,10.1,60.9,36.5c2.4,10,1.3,23.3,1.3,34.5c0,4.3,0,8.5,0.2,12.8c0,0.4,0.2,0.6,0.6,0.6
	c29.8-1.6,55.7,17.2,62,46.2c0.9,4.1,1.3,9.7,1.3,16.9c0,67.8,0,135.5,0,203.2c0,8.1-0.5,14.2-1.4,18.4
	c-4.9,21.9-22.3,39.5-44.3,44.4c-4.2,0.9-10.8,1.4-19.9,1.4c-73.2,0-146.4,0-219.7,0c-9.2,0-15.8-0.4-19.9-1.3
	C24.1,411,5.7,392.5,1.4,369.4c-0.7-3.9-1.1-10.5-1.1-19.9C0.2,281.6,0.2,213.8,0.3,146z M255.8,50c-0.1-9.9-8.9-17.7-18.5-17.1
	c-2.5,0.2-6.6,1.7-12.2,4.5c-32.5,16.3-65,32.5-97.5,48.6c-0.1,0.1-0.2,0.2-0.1,0.4c0,0.1,0.1,0.1,0.2,0.1l127.8,0
	c0.3,0,0.5-0.2,0.5-0.5C256,73.7,255.9,61.8,255.8,50z M320.3,145.2c0-14.9-12.1-27-27-27l0,0h-234c-14.9,0-27,12.1-27,27l0,0V358
	c0,14.9,12.1,27,27,27c0,0,0,0,0,0h234c14.9,0,27-12.1,27-27l0,0V145.2z"/>
</svg>
