<svg id="svg8" xmlns="http://www.w3.org/2000/svg" viewBox="0 0 20 20"><g id="g2452"><path id="path2392" d="M10,5.05a5.08,5.08,0,0,0-5,5,5.08,5.08,0,0,0,5,5,5.08,5.08,0,0,0,5-5A5.08,5.08,0,0,0,10,5.05Zm0,2a3,3,0,0,1,3,3,3,3,0,0,1-3,3,3,3,0,0,1-3-3A3,3,0,0,1,10,7.05Z" transform="translate(0 0.05)" style="fill:#38c1f0"/><path id="rect2396" d="M4,0A4,4,0,0,0,0,4V6A.94.94,0,0,0,1,7,.94.94,0,0,0,2,6V4A2,2,0,0,1,4,2H6A.94.94,0,0,0,7,1,.94.94,0,0,0,6,0Z" transform="translate(0 0.05)" style="fill:#38c1f0"/><path id="path2442" d="M1,13a.94.94,0,0,0-1,1v2a4,4,0,0,0,4,4H6a1,1,0,0,0,0-2H4a2,2,0,0,1-2-2V14A1,1,0,0,0,1,13Z" transform="translate(0 0.05)" style="fill:#38c1f0"/><path id="path2430" d="M19,13a.94.94,0,0,0-1,1v2a2,2,0,0,1-2,2H14a1,1,0,0,0,0,2h2a4,4,0,0,0,4-4V14A1,1,0,0,0,19,13Z" transform="translate(0 0.05)" style="fill:#38c1f0"/><path id="path2437" d="M14,0a.94.94,0,0,0-1,1,.94.94,0,0,0,1,1h2a2,2,0,0,1,2,2V6a1,1,0,0,0,2,0V4a4,4,0,0,0-4-4Z" transform="translate(0 0.05)" style="fill:#38c1f0"/></g></svg>