<?xml version="1.0" encoding="utf-8"?>
<!-- Generator: Adobe Illustrator 24.3.0, SVG Export Plug-In . SVG Version: 6.00 Build 0)  -->
<svg version="1.1"
	 id="svg8" xmlns:cc="http://creativecommons.org/ns#" xmlns:dc="http://purl.org/dc/elements/1.1/" xmlns:rdf="http://www.w3.org/1999/02/22-rdf-syntax-ns#" xmlns:svg="http://www.w3.org/2000/svg"
	 xmlns="http://www.w3.org/2000/svg" xmlns:xlink="http://www.w3.org/1999/xlink" x="0px" y="0px" viewBox="0 0 20 20"
	 style="enable-background:new 0 0 20 20;" xml:space="preserve">
<style type="text/css">
	.st0{fill:#38C1F0;}
</style>
<g id="g2452" transform="translate(0,-290.65)">
	<path id="path2392" class="st0" d="M10,295.7c-2.7,0-5,2.3-5,5s2.3,5,5,5s5-2.3,5-5S12.7,295.7,10,295.7z M10,297.7
		c1.7,0,3,1.3,3,3s-1.3,3-3,3s-3-1.3-3-3S8.3,297.7,10,297.7z"/>
	<path id="rect2396" class="st0" d="M4,290.6c-2.2,0-4,1.8-4,4v2c0,0.6,0.4,1,1,1s1-0.4,1-1v-2c0-1.1,0.9-2,2-2h2c0.6,0,1-0.4,1-1
		s-0.4-1-1-1H4z"/>
	<path id="path2442" class="st0" d="M1,303.6c-0.6,0-1,0.4-1,1v2c0,2.2,1.8,4,4,4h2c0.6,0,1-0.4,1-1s-0.4-1-1-1H4c-1.1,0-2-0.9-2-2
		v-2C2,304.1,1.6,303.6,1,303.6z"/>
	<path id="path2430" class="st0" d="M19,303.6c-0.6,0-1,0.4-1,1v2c0,1.1-0.9,2-2,2h-2c-0.6,0-1,0.4-1,1s0.4,1,1,1h2c2.2,0,4-1.8,4-4
		v-2C20,304.1,19.6,303.6,19,303.6z"/>
	<path id="path2437" class="st0" d="M14,290.6c-0.6,0-1,0.4-1,1s0.4,1,1,1h2c1.1,0,2,0.9,2,2v2c0,0.6,0.4,1,1,1s1-0.4,1-1v-2
		c0-2.2-1.8-4-4-4H14z"/>
</g>
</svg>
