<svg id="Layer_1" data-name="Layer 1" xmlns="http://www.w3.org/2000/svg" viewBox="0 0 26 24"><g id="Layer_2" data-name="Layer 2"><path d="M21,24H5a3,3,0,0,1-3-3V11a.94.94,0,0,1,1-1,.94.94,0,0,1,1,1V21a.94.94,0,0,0,1,1H21a.94.94,0,0,0,1-1V11a1,1,0,0,1,2,0V21A3,3,0,0,1,21,24Z" style="fill:#989898"/><path d="M12,24H7a.94.94,0,0,1-1-1V17a3,3,0,0,1,3-3h1a3,3,0,0,1,3,3v6A.94.94,0,0,1,12,24ZM8,22h3V17a.94.94,0,0,0-1-1H9a.94.94,0,0,0-1,1Z" style="fill:#989898"/><path d="M22,12a4,4,0,0,1-4-4,1,1,0,0,1,2,0,2,2,0,0,0,4,0V7.2L21.4,2H4.6L2,7.2V8A2,2,0,0,0,6,8,.94.94,0,0,1,7,7,.94.94,0,0,1,8,8,4,4,0,0,1,0,8V7c0-.2,0-.3.1-.4l3-6A1,1,0,0,1,4,0H22a1,1,0,0,1,.9.6l3,6c.1.1.1.2.1.4V8A4,4,0,0,1,22,12Z" style="fill:#989898"/><path d="M10,12A4,4,0,0,1,6,8,.94.94,0,0,1,7,7,.94.94,0,0,1,8,8a2,2,0,0,0,4,0,1,1,0,0,1,2,0A4,4,0,0,1,10,12Z" style="fill:#989898"/><path d="M16,12a4,4,0,0,1-4-4,1,1,0,0,1,2,0,2,2,0,0,0,4,0,1,1,0,0,1,2,0A4,4,0,0,1,16,12Z" style="fill:#989898"/><path d="M19,17H16a1,1,0,0,1,0-2h3a1,1,0,0,1,0,2Z" style="fill:#989898"/></g></svg>