<svg id="Layer_1" data-name="Layer 1" xmlns="http://www.w3.org/2000/svg" viewBox="0 0 351.97 416.54"><path d="M.3,146c0-30.1,21.5-54.9,51.2-58.9a17.29,17.29,0,0,0,5.3-1.6q78-39,156.2-78.1a73.47,73.47,0,0,1,12.9-5.3c26.8-7.2,54.5,10.1,60.9,36.5,2.4,10,1.3,23.3,1.3,34.5,0,4.3,0,8.5.2,12.8a.53.53,0,0,0,.6.6c29.8-1.6,55.7,17.2,62,46.2.9,4.1,1.3,9.7,1.3,16.9V352.8c0,8.1-.5,14.2-1.4,18.4a58.9,58.9,0,0,1-44.3,44.4c-4.2.9-10.8,1.4-19.9,1.4H66.9c-9.2,0-15.8-.4-19.9-1.3A58.71,58.71,0,0,1,1.4,369.4C.7,365.5.3,358.9.3,349.5Q.15,247.65.3,146ZM255.8,50a17.6,17.6,0,0,0-18.5-17.1c-2.5.2-6.6,1.7-12.2,4.5Q176.35,61.85,127.6,86c-.1.1-.2.2-.1.4s.1.1.2.1H255.5a.47.47,0,0,0,.5-.5C256,73.7,255.9,61.8,255.8,50Zm64.5,95.2a27,27,0,0,0-27-27H59.3a27,27,0,0,0-27,27h0V358a27,27,0,0,0,27,27h234a27,27,0,0,0,27-27h0Z" transform="translate(-0.22 -0.46)" style="fill:#38c1f0"/></svg>