<svg id="Layer_1" data-name="Layer 1" xmlns="http://www.w3.org/2000/svg" viewBox="0 0 448 512"><g id="Layer_1-2" data-name="Layer 1"><path d="M439.4,362.3c-19.3-20.8-55.5-52-55.5-154.3,0-77.7-54.5-139.9-127.9-155.2V32a32,32,0,0,0-64,0V52.8C118.6,68.1,64.1,130.3,64.1,208c0,102.3-36.2,133.5-55.5,154.3A31.26,31.26,0,0,0,0,384c.1,16.4,13,32,32.1,32H415.9c19.1,0,32-15.6,32.1-32a31.26,31.26,0,0,0-8.6-21.7ZM67.5,368c21.2-28,44.4-74.3,44.5-159.4,0-.2-.1-.4-.1-.6a112,112,0,1,1,224,0c0,.2-.1.4-.1.6C336,293.7,359.2,340,380.5,368ZM224,512a64,64,0,0,0,64-64H160A64,64,0,0,0,224,512Z" style="fill:#fff"/></g><g id="Layer_3" data-name="Layer 3"><circle cx="319.5" cy="141.5" r="101.3" style="fill:#eb4975;stroke:#141414;stroke-miterlimit:10;stroke-width:14px"/></g></svg>