<?xml version="1.0" encoding="utf-8"?>
<!-- Generator: Adobe Illustrator 24.3.0, SVG Export Plug-In . SVG Version: 6.00 Build 0)  -->
<svg version="1.1" id="icon" xmlns="http://www.w3.org/2000/svg" xmlns:xlink="http://www.w3.org/1999/xlink" x="0px" y="0px"
	 viewBox="0 0 32 32" style="enable-background:new 0 0 32 32;" xml:space="preserve">
<style type="text/css">
	.st0{fill:#FFFFFF;}
</style>
<path class="st0" d="M12,6h-2C8.9,6,8,6.9,8,8v16c0,1.1,0.9,2,2,2h2c1.1,0,2-0.9,2-2V8C14,6.9,13.1,6,12,6z"/>
<path class="st0" d="M22,6h-2c-1.1,0-2,0.9-2,2v16c0,1.1,0.9,2,2,2h2c1.1,0,2-0.9,2-2V8C24,6.9,23.1,6,22,6z"/>
</svg>
