<?xml version="1.0" encoding="utf-8"?>
<!-- Generator: Adobe Illustrator 24.3.0, SVG Export Plug-In . SVG Version: 6.00 Build 0)  -->
<svg version="1.1" id="Layer_1" xmlns="http://www.w3.org/2000/svg" xmlns:xlink="http://www.w3.org/1999/xlink" x="0px" y="0px"
	 viewBox="0 0 236 236" style="enable-background:new 0 0 236 236;" xml:space="preserve">
<style type="text/css">
	.st0{fill:#FFFFFF;}
</style>
<path class="st0" d="M235,118c0,64.6-52.4,117-117,117c0,0,0,0,0,0C53.4,235,1,182.6,1,118c0,0,0,0,0,0C1,53.4,53.4,1,118,1
	c0,0,0,0,0,0C182.6,1,235,53.4,235,118L235,118z M217,118.5c0-54.4-44.1-98.5-98.5-98.5c0,0,0,0,0,0C64.1,20,20,64.1,20,118.5
	c0,0,0,0,0,0c0,54.4,44.1,98.5,98.5,98.5l0,0C172.9,217,217,172.9,217,118.5L217,118.5z"/>
<path class="st0" d="M157.2,111.3c3,2.1,4.1,4.9,3.3,8.2c-0.8,3.6-3.3,5-7.1,7.6c-15.5,10.8-31,21.6-46.5,32.4
	c-3.2,2.2-7.9,1-9.5-2.5c-0.5-1.1-0.7-2.8-0.7-5.1c0-22.3,0-44.5,0-66.8c0-8.8,4.5-12.5,12.3-7.1
	C125.2,88.9,141.2,100.1,157.2,111.3z"/>
</svg>
