<svg id="Layer_1" data-name="Layer 1" xmlns="http://www.w3.org/2000/svg" viewBox="0 0 234 234"><path d="M235,118A117,117,0,0,1,118,235h0A117,117,0,0,1,1,118H1A117,117,0,0,1,118,1h0A117,117,0,0,1,235,118Zm-18,.5A98.5,98.5,0,0,0,118.5,20h0A98.5,98.5,0,0,0,20,118.5h0A98.5,98.5,0,0,0,118.5,217h0A98.5,98.5,0,0,0,217,118.5Z" transform="translate(-1 -1)" style="fill:#fff"/><path d="M157.2,111.3c3,2.1,4.1,4.9,3.3,8.2-.8,3.6-3.3,5-7.1,7.6l-46.5,32.4a6.54,6.54,0,0,1-9.5-2.5,13.19,13.19,0,0,1-.7-5.1V85.1c0-8.8,4.5-12.5,12.3-7.1C125.2,88.9,141.2,100.1,157.2,111.3Z" transform="translate(-1 -1)" style="fill:#fff"/></svg>