<svg id="Layer_1" data-name="Layer 1" xmlns="http://www.w3.org/2000/svg" viewBox="0 0 100 100"><g id="Layer_1-2" data-name="Layer 1"><path d="M99,91a8,8,0,0,1-8,8H9a8,8,0,0,1-8-8V9A8,8,0,0,1,9,1H91a8,8,0,0,1,8,8Z" style="fill:#242a30"/><path d="M99,91a8,8,0,0,1-8,8H9a8,8,0,0,1-8-8V9A8,8,0,0,1,9,1H91a8,8,0,0,1,8,8Z" style="fill:none;stroke:#2f363c;stroke-miterlimit:10;stroke-width:2px"/></g><g id="Layer_2" data-name="Layer 2"><path d="M66.5,46.7H53.3V33.5a3.31,3.31,0,0,0-6.6,0V46.7H33.5a3.31,3.31,0,0,0,0,6.6H46.7V66.5a3.31,3.31,0,0,0,6.6,0V53.3H66.5a3.31,3.31,0,0,0,0-6.6Z" style="fill:#fff"/></g></svg>