<?xml version="1.0" encoding="utf-8"?>
<!-- Generator: Adobe Illustrator 24.3.0, SVG Export Plug-In . SVG Version: 6.00 Build 0)  -->
<svg version="1.1" xmlns="http://www.w3.org/2000/svg" xmlns:xlink="http://www.w3.org/1999/xlink" x="0px" y="0px"
	 viewBox="0 0 100 100" style="enable-background:new 0 0 100 100;" xml:space="preserve">
<style type="text/css">
	.st0{display:none;}
	.st1{display:inline;fill:#FFFFFF;}
	.st2{fill:#242A30;}
	.st3{fill:none;stroke:#2F363C;stroke-width:2;stroke-miterlimit:10;}
	.st4{fill:#FFFFFF;}
</style>
<g id="Layer_1">
	<g id="Layer_3_1_" class="st0">
		<path class="st1" d="M68.4,32.4c-1.7-1.3-4-0.9-5.2,0.9L46,58.4l-9.5-10.3c-1.4-1.6-3.7-1.7-5.2-0.2s-1.6,4-0.2,5.6
			c0,0,11.5,12.8,13.2,14.1c1.7,1.3,4,0.9,5.2-0.9l19.8-28.9C70.4,36.1,70.1,33.6,68.4,32.4z"/>
	</g>
	<g>
		<path class="st2" d="M99,91c0,4.4-3.6,8-8,8H9c-4.4,0-8-3.6-8-8V9c0-4.4,3.6-8,8-8h82c4.4,0,8,3.6,8,8V91z"/>
		<path class="st3" d="M99,91c0,4.4-3.6,8-8,8H9c-4.4,0-8-3.6-8-8V9c0-4.4,3.6-8,8-8h82c4.4,0,8,3.6,8,8V91z"/>
	</g>
</g>
<g id="Layer_2">
	<path class="st4" d="M66.5,46.7H53.3V33.5c0-1.7-1.5-3.1-3.3-3.1c-1.8,0-3.3,1.4-3.3,3.1v13.2H33.5c-1.7,0-3.1,1.5-3.1,3.3
		c0,1.8,1.4,3.3,3.1,3.3h13.2v13.2c0,1.7,1.5,3.1,3.3,3.1c1.8,0,3.3-1.4,3.3-3.1V53.3h13.2c1.7,0,3.1-1.5,3.1-3.3
		C69.6,48.2,68.2,46.7,66.5,46.7z"/>
</g>
</svg>
