<?xml version="1.0" encoding="utf-8"?>
<!-- Generator: Adobe Illustrator 24.3.0, SVG Export Plug-In . SVG Version: 6.00 Build 0)  -->
<svg version="1.1" xmlns="http://www.w3.org/2000/svg" xmlns:xlink="http://www.w3.org/1999/xlink" x="0px" y="0px"
	 viewBox="0 0 100 100" style="enable-background:new 0 0 100 100;" xml:space="preserve">
<style type="text/css">
	.st0{fill:#38C1F0;}
	.st1{display:none;}
	.st2{display:inline;}
	.st3{fill:#FFFFFF;}
</style>
<g id="Layer_1">
	<g id="Layer_1_1_">
		<g>
			<path class="st0" d="M100,84c0,8.8-7.2,16-16,16H16c-8.8,0-16-7.2-16-16V16C0,7.2,7.2,0,16,0h68c8.8,0,16,7.2,16,16V84z"/>
		</g>
	</g>
	<g id="Layer_3">
	</g>
	<g id="Layer_4" class="st1">
		<g class="st2">
			<path class="st3" d="M50,56.9c3.8,0,6.9-3.1,6.9-6.9V38.5c0-3.8-3.1-6.9-6.9-6.9s-6.9,3.1-6.9,6.9V50
				C43.1,53.8,46.2,56.9,50,56.9z"/>
			<path class="st3" d="M61.5,50v-4.6h-2.3v4.3c0,4.4-3,8.5-7.3,9.4c-5.9,1.2-11.2-3.3-11.2-9v-4.6h-2.3V50c0,5.6,4,10.2,9.2,11.3
				v4.8H43v2.3h13.8v-2.3h-4.6v-4.8C57.6,60.2,61.5,55.6,61.5,50z"/>
		</g>
	</g>
</g>
<g id="Layer_2" class="st1">
	<g class="st2">
		<path class="st3" d="M28,48.4c-0.4,0.4-0.7,1-0.7,1.6v9.1c0,0.6,0.2,1.2,0.7,1.6c0.4,0.4,1,0.7,1.6,0.7h2.3V47.7h-2.3
			C29,47.7,28.4,48,28,48.4z M60.2,38.7h-7.9v-4.5c0-1.2-1-2.3-2.3-2.3c-1.2,0-2.3,1-2.3,2.3v4.5h-7.9c-3.1,0-5.7,2.5-5.7,5.7v19.2
			c0,2.5,2,4.5,4.5,4.5h22.6c2.5,0,4.5-2,4.5-4.5V44.3C65.8,41.2,63.3,38.7,60.2,38.7z M45.4,61.3h-4.5v-2.3h4.5V61.3z M43.2,52.8
			c-1.6,0-2.8-1.3-2.8-2.8s1.3-2.8,2.8-2.8S46,48.4,46,50S44.7,52.8,43.2,52.8z M52.2,61.3h-4.5v-2.3h4.5V61.3z M59,61.3h-4.5v-2.3
			H59V61.3z M56.8,52.8c-1.6,0-2.8-1.3-2.8-2.8s1.3-2.8,2.8-2.8s2.8,1.3,2.8,2.8S58.3,52.8,56.8,52.8z M71.9,48.4
			c-0.4-0.4-1-0.7-1.6-0.7h-2.3v13.6h2.3c0.6,0,1.2-0.2,1.6-0.7c0.4-0.4,0.7-1,0.7-1.6V50C72.6,49.4,72.4,48.8,71.9,48.4z"/>
	</g>
</g>
<g id="Layer_3_1_">
	<path class="st3" d="M50,31.9C40,31.9,31.9,40,31.9,50S40,68.1,50,68.1S68.1,60,68.1,50S60,31.9,50,31.9z M58.2,51.4L48,57.7
		c-0.3,0.2-0.6,0.2-0.9,0.2c-1,0-1.7-0.8-1.7-1.7V43.8c0-0.9,0.7-1.7,1.7-1.7c0.3,0,0.6,0.1,0.9,0.2l10.2,6.2
		c0.5,0.3,0.8,0.9,0.8,1.4S58.7,51.1,58.2,51.4z"/>
</g>
</svg>
