<svg id="Layer_1" data-name="Layer 1" xmlns="http://www.w3.org/2000/svg" viewBox="0 0 100 100"><g id="Layer_1-2" data-name="Layer 1"><g id="Layer_1-3" data-name="Layer 1"><path d="M100,84a16,16,0,0,1-16,16H16A16,16,0,0,1,0,84V16A16,16,0,0,1,16,0H84a16,16,0,0,1,16,16Z" style="fill:#38c1f0"/></g></g><g id="Layer_3-2" data-name="Layer 3"><path d="M50,31.9A18.1,18.1,0,1,0,68.1,50,18.1,18.1,0,0,0,50,31.9Zm8.2,19.5L48,57.7a1.49,1.49,0,0,1-.9.2,1.69,1.69,0,0,1-1.7-1.7V43.8a1.69,1.69,0,0,1,1.7-1.7,2.92,2.92,0,0,1,.9.2l10.2,6.2a1.72,1.72,0,0,1,.8,1.4A1.9,1.9,0,0,1,58.2,51.4Z" style="fill:#fff"/></g></svg>