<svg id="Layer_1" data-name="Layer 1" xmlns="http://www.w3.org/2000/svg" viewBox="0 0 48 48"><path d="M24,0A24,24,0,1,0,48,24,24,24,0,0,0,24,0Zm0,44.1a20,20,0,1,1,20-20A20.06,20.06,0,0,1,24,44.1Z" style="fill:#9d9da4"/><path d="M22.8,31.9c-1.7,0-2.6.9-2.6,2.7a2.58,2.58,0,0,0,.7,2,2.49,2.49,0,0,0,1.9.7,2.35,2.35,0,0,0,1.9-.7,3,3,0,0,0,.7-2,2.72,2.72,0,0,0-.7-2A2.49,2.49,0,0,0,22.8,31.9Z" style="fill:#9d9da4"/><path d="M29.3,12.4a8.41,8.41,0,0,0-5.5-1.7,16.16,16.16,0,0,0-6.5,1.4,1.29,1.29,0,0,0-.6,1.7l.5,1a1.36,1.36,0,0,0,1.7.5h0l1.5-.6a10.07,10.07,0,0,1,3.1-.5,4.45,4.45,0,0,1,2.8.8,2.93,2.93,0,0,1,1,2.3,4,4,0,0,1-.6,2.2A13.47,13.47,0,0,1,24,22.1a8.8,8.8,0,0,0-2.5,2.7,6.31,6.31,0,0,0-.7,3.2c0,.9,1.1,1.1,1.1,1.1h.7s1.4,0,1.6-1.2h0a3,3,0,0,1,.5-1.8A8.94,8.94,0,0,1,26.9,24a18.15,18.15,0,0,0,2.7-2.4,8.17,8.17,0,0,0,1.2-2,5.87,5.87,0,0,0,.4-2.3A5.21,5.21,0,0,0,29.3,12.4Z" style="fill:#9d9da4"/></svg>