<?xml version="1.0" encoding="utf-8"?>
<!-- Generator: Adobe Illustrator 24.3.0, SVG Export Plug-In . SVG Version: 6.00 Build 0)  -->
<svg version="1.1" id="Layer_1" xmlns="http://www.w3.org/2000/svg" xmlns:xlink="http://www.w3.org/1999/xlink" x="0px" y="0px"
	 viewBox="0 0 32 18" style="enable-background:new 0 0 32 18;" xml:space="preserve">
<style type="text/css">
	.st0{fill:#FFFFFF;}
</style>
<g id="_19._Send">
	<path class="st0" d="M11,9.6c0.6,0,1.2-0.2,1.7-0.5l4.9-3.3c0.4-0.3,0.5-1,0.2-1.4c-0.3-0.4-0.8-0.5-1.3-0.3l-4.9,3.3
		c-0.3,0.2-0.8,0.2-1.1,0L5.5,4.2C5.1,3.9,4.5,4.1,4.2,4.6C4,5,4.1,5.5,4.4,5.8l4.9,3.3C9.8,9.4,10.4,9.6,11,9.6z"/>
	<path class="st0" d="M3,18h16c1.7,0,3-1.3,3-3V3c0-1.7-1.3-3-3-3H3C1.3,0,0,1.3,0,3v12C0,16.7,1.3,18,3,18z M19,2c0.6,0,1,0.4,1,1
		v12c0,0.6-0.4,1-1,1H3c-0.6,0-1-0.4-1-1V3c0-0.6,0.4-1,1-1H19z"/>
	<path class="st0" d="M25,12h2c0.6,0,1-0.4,1-1s-0.4-1-1-1h-2c-0.6,0-1,0.4-1,1S24.4,12,25,12z"/>
	<path class="st0" d="M25,8h4c0.6,0,1-0.4,1-1s-0.4-1-1-1h-4c-0.6,0-1,0.4-1,1S24.4,8,25,8z"/>
	<path class="st0" d="M25,4h6c0.6,0,1-0.4,1-1s-0.4-1-1-1h-6c-0.6,0-1,0.4-1,1S24.4,4,25,4z"/>
</g>
</svg>
