<svg id="Layer_1" data-name="Layer 1" xmlns="http://www.w3.org/2000/svg" viewBox="0 0 32 18"><g id="_19._Send" data-name=" 19. Send"><path d="M11,9.6a3.37,3.37,0,0,0,1.7-.5l4.9-3.3a1.08,1.08,0,0,0,.2-1.4,1.06,1.06,0,0,0-1.3-.3L11.6,7.4a1.08,1.08,0,0,1-1.1,0l-5-3.2a.92.92,0,0,0-1.3.4,1.06,1.06,0,0,0,.2,1.2L9.3,9.1A3.37,3.37,0,0,0,11,9.6Z" style="fill:#fff"/><path d="M3,18H19a3,3,0,0,0,3-3V3a3,3,0,0,0-3-3H3A3,3,0,0,0,0,3V15A3,3,0,0,0,3,18ZM19,2a.94.94,0,0,1,1,1V15a.94.94,0,0,1-1,1H3a.94.94,0,0,1-1-1V3A.94.94,0,0,1,3,2Z" style="fill:#fff"/><path d="M25,12h2a.94.94,0,0,0,1-1,.94.94,0,0,0-1-1H25a.94.94,0,0,0-1,1A.94.94,0,0,0,25,12Z" style="fill:#fff"/><path d="M25,8h4a.94.94,0,0,0,1-1,.94.94,0,0,0-1-1H25a.94.94,0,0,0-1,1A.94.94,0,0,0,25,8Z" style="fill:#fff"/><path d="M25,4h6a.94.94,0,0,0,1-1,.94.94,0,0,0-1-1H25a.94.94,0,0,0-1,1A.94.94,0,0,0,25,4Z" style="fill:#fff"/></g></svg>