<svg id="Layer_1" data-name="Layer 1" xmlns="http://www.w3.org/2000/svg" viewBox="0 0 100 100"><g id="Layer_2" data-name="Layer 2"><circle cx="50" cy="50" r="50" style="fill:#fff"/></g><g id="Layer_1-2" data-name="Layer 1"><g id="Layer_4" data-name="Layer 4"><path d="M50,56.9A6.91,6.91,0,0,0,56.9,50V38.5a6.9,6.9,0,0,0-13.8,0V50A6.91,6.91,0,0,0,50,56.9Z" style="fill:#141414"/><path d="M61.5,50V45.4H59.2v4.3a9.56,9.56,0,0,1-7.3,9.4,9.28,9.28,0,0,1-11.2-9V45.5H38.4V50a11.58,11.58,0,0,0,9.2,11.3v4.8H43v2.3H56.8V66.1H52.2V61.3A11.47,11.47,0,0,0,61.5,50Z" style="fill:#141414"/></g></g></svg>