<?xml version="1.0" encoding="utf-8"?>
<!-- Generator: Adobe Illustrator 24.3.0, SVG Export Plug-In . SVG Version: 6.00 Build 0)  -->
<svg version="1.1" xmlns="http://www.w3.org/2000/svg" xmlns:xlink="http://www.w3.org/1999/xlink" x="0px" y="0px"
	 viewBox="0 0 100 100" style="enable-background:new 0 0 100 100;" xml:space="preserve">
<style type="text/css">
	.st0{fill:#FFFFFF;}
	.st1{fill:#141414;}
</style>
<g id="Layer_2">
	<circle class="st0" cx="50" cy="50" r="50"/>
</g>
<g id="Layer_1">
	<g id="Layer_3">
	</g>
	<g id="Layer_4">
		<g>
			<path class="st1" d="M50,56.9c3.8,0,6.9-3.1,6.9-6.9V38.5c0-3.8-3.1-6.9-6.9-6.9s-6.9,3.1-6.9,6.9V50
				C43.1,53.8,46.2,56.9,50,56.9z"/>
			<path class="st1" d="M61.5,50v-4.6h-2.3v4.3c0,4.4-3,8.5-7.3,9.4c-5.9,1.2-11.2-3.3-11.2-9v-4.6h-2.3V50c0,5.6,4,10.2,9.2,11.3
				v4.8H43v2.3h13.8v-2.3h-4.6v-4.8C57.6,60.2,61.5,55.6,61.5,50z"/>
		</g>
	</g>
</g>
</svg>
