<svg id="Layer_1" data-name="Layer 1" xmlns="http://www.w3.org/2000/svg" viewBox="0 0 32 32"><g id="Layer_2" data-name="Layer 2"><path d="M10.1,20.1a10,10,0,1,1,10-10A10,10,0,0,1,10.1,20.1Zm0-18a8,8,0,1,0,8,8A8,8,0,0,0,10.1,2.1Z" transform="translate(2.9 2.9)" style="fill:#9d9da4"/><path d="M25.1,26.1a.91.91,0,0,1-.7-.3l-8-8a1,1,0,0,1,1.4-1.4l8,8a1,1,0,0,1,0,1.4h0A.91.91,0,0,1,25.1,26.1Z" transform="translate(2.9 2.9)" style="fill:#9d9da4"/></g><g id="frame"><rect width="32" height="32" style="fill:none"/></g></svg>