<?xml version="1.0" encoding="utf-8"?>
<!-- Generator: Adobe Illustrator 24.3.0, SVG Export Plug-In . SVG Version: 6.00 Build 0)  -->
<svg version="1.1" id="Layer_1" xmlns="http://www.w3.org/2000/svg" xmlns:xlink="http://www.w3.org/1999/xlink" x="0px" y="0px"
	 viewBox="0 0 26.2 26.2" style="enable-background:new 0 0 26.2 26.2;" xml:space="preserve">
<style type="text/css">
	.st0{fill:#9D9DA4;}
	.st1{fill:none;}
</style>
<g id="Layer_2_1_">
	<path class="st0" d="M10.1,20.1c-5.5,0-10-4.5-10-10s4.5-10,10-10s10,4.5,10,10S15.6,20.1,10.1,20.1z M10.1,2.1c-4.4,0-8,3.6-8,8
		s3.6,8,8,8s8-3.6,8-8S14.5,2.1,10.1,2.1z"/>
	<path class="st0" d="M25.1,26.1c-0.3,0-0.5-0.1-0.7-0.3l-8-8c-0.4-0.4-0.4-1,0-1.4s1-0.4,1.4,0l8,8c0.4,0.4,0.4,1,0,1.4
		c0,0,0,0,0,0C25.6,26,25.4,26.1,25.1,26.1z"/>
</g>
<g id="frame">
	<rect x="-2.9" y="-2.9" class="st1" width="32" height="32"/>
</g>
</svg>
