<svg id="Layer_1" data-name="Layer 1" xmlns="http://www.w3.org/2000/svg" viewBox="0 0 32 18"><g id="_19._Send" data-name=" 19. Send"><path d="M21,9.6a3.37,3.37,0,0,1-1.7-.5L14.4,5.8a1.08,1.08,0,0,1-.2-1.4,1.06,1.06,0,0,1,1.3-.3l4.9,3.3a1.08,1.08,0,0,0,1.1,0l4.9-3.3a1,1,0,0,1,1.4.4,1.19,1.19,0,0,1-.2,1.3L22.7,9.1A3.37,3.37,0,0,1,21,9.6Z" style="fill:#fff"/><path d="M29,18H13a3,3,0,0,1-3-3V3a3,3,0,0,1,3-3H29a3,3,0,0,1,3,3V15A3,3,0,0,1,29,18ZM13,2a.94.94,0,0,0-1,1V15a.94.94,0,0,0,1,1H29a.94.94,0,0,0,1-1V3a.94.94,0,0,0-1-1Z" style="fill:#fff"/><path d="M7,12H5a.94.94,0,0,1-1-1,.94.94,0,0,1,1-1H7a.94.94,0,0,1,1,1A.94.94,0,0,1,7,12Z" style="fill:#fff"/><path d="M7,8H3A.94.94,0,0,1,2,7,.94.94,0,0,1,3,6H7A.94.94,0,0,1,8,7,.94.94,0,0,1,7,8Z" style="fill:#fff"/><path d="M7,4H1A.94.94,0,0,1,0,3,.94.94,0,0,1,1,2H7A.94.94,0,0,1,8,3,.94.94,0,0,1,7,4Z" style="fill:#fff"/></g></svg>