<?xml version="1.0" encoding="utf-8"?>
<!-- Generator: Adobe Illustrator 24.3.0, SVG Export Plug-In . SVG Version: 6.00 Build 0)  -->
<svg version="1.1" id="Layer_1" xmlns="http://www.w3.org/2000/svg" xmlns:xlink="http://www.w3.org/1999/xlink" x="0px" y="0px"
	 viewBox="0 0 32 18" style="enable-background:new 0 0 32 18;" xml:space="preserve">
<style type="text/css">
	.st0{fill:#FFFFFF;}
</style>
<g id="_19._Send">
	<path class="st0" d="M21,9.6c-0.6,0-1.2-0.2-1.7-0.5l-4.9-3.3c-0.4-0.3-0.5-1-0.2-1.4c0.3-0.4,0.8-0.5,1.3-0.3l4.9,3.3
		c0.3,0.2,0.8,0.2,1.1,0l4.9-3.3c0.5-0.3,1.1-0.1,1.4,0.4C28,5,27.9,5.5,27.6,5.8l-4.9,3.3C22.2,9.4,21.6,9.6,21,9.6z"/>
	<path class="st0" d="M29,18H13c-1.7,0-3-1.3-3-3V3c0-1.7,1.3-3,3-3h16c1.7,0,3,1.3,3,3v12C32,16.7,30.7,18,29,18z M13,2
		c-0.6,0-1,0.4-1,1v12c0,0.6,0.4,1,1,1h16c0.6,0,1-0.4,1-1V3c0-0.6-0.4-1-1-1H13z"/>
	<path class="st0" d="M7,12H5c-0.6,0-1-0.4-1-1s0.4-1,1-1h2c0.6,0,1,0.4,1,1S7.6,12,7,12z"/>
	<path class="st0" d="M7,8H3C2.4,8,2,7.6,2,7s0.4-1,1-1h4c0.6,0,1,0.4,1,1S7.6,8,7,8z"/>
	<path class="st0" d="M7,4H1C0.4,4,0,3.6,0,3s0.4-1,1-1h6c0.6,0,1,0.4,1,1S7.6,4,7,4z"/>
</g>
</svg>
