<svg id="Layer_1" data-name="Layer 1" xmlns="http://www.w3.org/2000/svg" viewBox="0 0 447.99 460.1"><path d="M237.2,167.2a64,64,0,1,0,57.4,70,66.3,66.3,0,0,0,0-12.6A64.31,64.31,0,0,0,237.2,167.2Zm154.1,63.7a160.37,160.37,0,0,1-1.5,20.8L435,287.2a10.77,10.77,0,0,1,2.4,13.8l-42.8,74a10.76,10.76,0,0,1-13.1,4.6l-44.9-18.1a16.2,16.2,0,0,0-15.2,1.8,171.7,171.7,0,0,1-21.5,12.5,15.8,15.8,0,0,0-8.8,12.1l-6.7,47.9a11.12,11.12,0,0,1-10.7,9.2H188.2a11.2,11.2,0,0,1-10.7-8.9l-6.7-47.8a16,16,0,0,0-9-12.2,149.27,149.27,0,0,1-21.5-12.6,16,16,0,0,0-15.1-1.7L80.3,379.9a10.72,10.72,0,0,1-13.1-4.6l-42.8-74a10.79,10.79,0,0,1,2.5-13.8l38.2-30a16,16,0,0,0,6-14.1c-.4-4.2-.6-8.3-.6-12.5s.2-8.3.6-12.4A15.64,15.64,0,0,0,65,204.6l-38.2-30a10.87,10.87,0,0,1-2.4-13.7l42.8-74a10.76,10.76,0,0,1,13.1-4.6l44.9,18.1a16.2,16.2,0,0,0,15.2-1.8,171.7,171.7,0,0,1,21.5-12.5A15.8,15.8,0,0,0,170.7,74l6.7-47.9a11.12,11.12,0,0,1,10.7-9.2h85.5a11.2,11.2,0,0,1,10.7,8.9L291,73.6a16,16,0,0,0,9,12.2,149.27,149.27,0,0,1,21.5,12.6,16,16,0,0,0,15.1,1.7L381.5,82a10.72,10.72,0,0,1,13.1,4.6l42.8,74a10.79,10.79,0,0,1-2.5,13.8l-38.2,30a16,16,0,0,0-6,14.1C391.1,222.6,391.3,226.7,391.3,230.9Z" transform="translate(-6.92 -0.9)" style="fill:none;stroke:#fff;stroke-linecap:round;stroke-linejoin:round;stroke-width:32px"/></svg>