<svg id="Layer_1" data-name="Layer 1" xmlns="http://www.w3.org/2000/svg" xmlns:xlink="http://www.w3.org/1999/xlink" viewBox="0 0 512 512"><defs><linearGradient id="linear-gradient" x1="153.06" y1="358.83" x2="368.04" y2="143.84" gradientTransform="translate(0 18)" gradientUnits="userSpaceOnUse"><stop offset="0" stop-color="#b5053c"/><stop offset="0.23" stop-color="#c90441"/><stop offset="0.74" stop-color="#f0014b"/><stop offset="1" stop-color="#ff004f"/></linearGradient><linearGradient id="linear-gradient-2" x1="136.15" y1="348.04" x2="362.68" y2="121.51" gradientTransform="translate(0 18)" gradientUnits="userSpaceOnUse"><stop offset="0" stop-color="#00b2c9"/><stop offset="0.28" stop-color="#00c8d4"/><stop offset="0.74" stop-color="#00e6e4"/><stop offset="1" stop-color="#00f1ea"/></linearGradient><linearGradient id="linear-gradient-3" x1="9.24" y1="488.83" x2="510.67" y2="-12.59" gradientTransform="translate(0 18)" gradientUnits="userSpaceOnUse"><stop offset="0" stop-color="#dde3e4"/><stop offset="1" stop-color="#fcf7f7"/></linearGradient></defs><path d="M256,0C114.6,0,0,114.6,0,256S114.6,512,256,512,512,397.4,512,256,397.4,0,256,0Z" style="fill:#2c2c2c"/><path d="M393.7,187.5a72.38,72.38,0,0,1-72.4-72.4H269.6V317.5a44,44,0,1,1-43.9-44,43.26,43.26,0,0,1,12.4,1.8V225a93.28,93.28,0,1,0,80,104.9,86.53,86.53,0,0,0,.8-12.5l1.5-102.3A122.9,122.9,0,0,0,393.7,239Z" style="fill:url(#linear-gradient)"/><path d="M380.1,173.4A72.38,72.38,0,0,1,307.7,101H256V303.4a44,44,0,1,1-43.9-44,43.26,43.26,0,0,1,12.4,1.8V210.9a93.28,93.28,0,1,0,80,104.9,86.53,86.53,0,0,0,.8-12.5L306.8,201a122.9,122.9,0,0,0,73.3,23.9Z" style="fill:url(#linear-gradient-2)"/><path d="M380.1,186.2A72,72,0,0,1,335.5,158a72.8,72.8,0,0,1-26.4-42.9H269.7V317.5a44,44,0,0,1-81.6,22.8,44,44,0,0,1,36.4-79.1v-37A93.23,93.23,0,0,0,152.3,375a93.36,93.36,0,0,0,153.1-71.7L306.9,201a122.9,122.9,0,0,0,73.3,23.9Z" style="fill:url(#linear-gradient-3)"/></svg>