<svg id="Layer_1" data-name="Layer 1" xmlns="http://www.w3.org/2000/svg" xmlns:xlink="http://www.w3.org/1999/xlink" viewBox="0 0 1000 1000"><defs><linearGradient id="linear-gradient" x1="146.46" y1="349.54" x2="853.54" y2="-357.54" gradientTransform="translate(0 504)" gradientUnits="userSpaceOnUse"><stop offset="0" stop-color="#ffd521"/><stop offset="0.06" stop-color="#ffd020"/><stop offset="0.12" stop-color="#fec01e"/><stop offset="0.2" stop-color="#fca71b"/><stop offset="0.28" stop-color="#fa8316"/><stop offset="0.37" stop-color="#f85510"/><stop offset="0.46" stop-color="#f51e09"/><stop offset="0.5" stop-color="#f30005"/><stop offset="0.5" stop-color="#f20007"/><stop offset="0.6" stop-color="#e1003b"/><stop offset="0.69" stop-color="#d30067"/><stop offset="0.78" stop-color="#c70088"/><stop offset="0.86" stop-color="#bf00a0"/><stop offset="0.94" stop-color="#bb00af"/><stop offset="1" stop-color="#b900b4"/></linearGradient></defs><path d="M500,1000h0C223.9,1000,0,776.1,0,500H0C0,223.9,223.9,0,500,0h0c276.1,0,500,223.9,500,500h0C1000,776.1,776.1,1000,500,1000Z" style="fill:url(#linear-gradient)"/><path d="M500,259c78.5,0,87.8.3,118.8,1.7,28.7,1.3,44.3,6.1,54.6,10.2a90.81,90.81,0,0,1,33.8,22c10.3,10.3,16.6,20.1,22,33.8,4,10.3,8.8,25.9,10.2,54.6,1.4,31,1.7,40.3,1.7,118.8s-.3,87.8-1.7,118.8c-1.3,28.7-6.1,44.3-10.2,54.6a90.81,90.81,0,0,1-22,33.8c-10.3,10.3-20.1,16.6-33.8,22-10.3,4-25.9,8.8-54.6,10.2-31,1.4-40.3,1.7-118.8,1.7s-87.8-.3-118.8-1.7c-28.7-1.3-44.3-6.1-54.6-10.2a90.81,90.81,0,0,1-33.8-22c-10.3-10.3-16.6-20.1-22-33.8-4-10.3-8.8-25.9-10.2-54.6-1.4-31-1.7-40.3-1.7-118.8s.3-87.8,1.7-118.8c1.3-28.7,6.1-44.3,10.2-54.6a90.81,90.81,0,0,1,22-33.8c10.3-10.3,20.1-16.6,33.8-22,10.3-4,25.9-8.8,54.6-10.2,31-1.5,40.3-1.7,118.8-1.7m0-53c-79.9,0-89.8.3-121.2,1.8s-52.6,6.4-71.4,13.7a141.55,141.55,0,0,0-52,33.9,143.18,143.18,0,0,0-33.9,52.1c-7.2,18.7-12.2,40.1-13.7,71.4S206,420.2,206,500.1s.3,89.8,1.8,121.2,6.4,52.6,13.7,71.4a150.53,150.53,0,0,0,86,85.8c18.7,7.2,40.1,12.2,71.4,13.7s41.3,1.8,121.2,1.8,89.8-.3,121.2-1.8,52.6-6.4,71.4-13.7a150.53,150.53,0,0,0,85.8-86c7.2-18.7,12.2-40.1,13.7-71.4s1.8-41.3,1.8-121.2-.3-89.8-1.8-121.2-6.4-52.6-13.7-71.4a150.53,150.53,0,0,0-86-85.8c-18.7-7.2-40.1-12.2-71.4-13.7S579.9,206,500,206Z" style="fill:#fff"/><path d="M500,349A151,151,0,1,0,651,500,151,151,0,0,0,500,349Zm0,249a98,98,0,1,1,98-98A98,98,0,0,1,500,598Z" style="fill:#fff"/><circle cx="657" cy="343.1" r="35.3" style="fill:#fff"/></svg>