<?xml version="1.0" encoding="utf-8"?>
<!-- Generator: Adobe Illustrator 24.3.0, SVG Export Plug-In . SVG Version: 6.00 Build 0)  -->
<svg version="1.1" id="Layer_1" xmlns="http://www.w3.org/2000/svg" xmlns:xlink="http://www.w3.org/1999/xlink" x="0px" y="0px"
	 viewBox="0 0 1000 1000" style="enable-background:new 0 0 1000 1000;" xml:space="preserve">
<style type="text/css">
	.st0{fill:url(#SVGID_1_);}
	.st1{fill:#FFFFFF;}
</style>
<linearGradient id="SVGID_1_" gradientUnits="userSpaceOnUse" x1="146.4625" y1="146.4625" x2="853.5375" y2="853.5375" gradientTransform="matrix(1 0 0 -1 0 1000)">
	<stop  offset="0" style="stop-color:#FFD521"/>
	<stop  offset="5.510481e-02" style="stop-color:#FFD020"/>
	<stop  offset="0.1241" style="stop-color:#FEC01E"/>
	<stop  offset="0.2004" style="stop-color:#FCA71B"/>
	<stop  offset="0.2821" style="stop-color:#FA8316"/>
	<stop  offset="0.3681" style="stop-color:#F85510"/>
	<stop  offset="0.4563" style="stop-color:#F51E09"/>
	<stop  offset="0.5" style="stop-color:#F30005"/>
	<stop  offset="0.5035" style="stop-color:#F20007"/>
	<stop  offset="0.5966" style="stop-color:#E1003B"/>
	<stop  offset="0.6879" style="stop-color:#D30067"/>
	<stop  offset="0.7757" style="stop-color:#C70088"/>
	<stop  offset="0.8589" style="stop-color:#BF00A0"/>
	<stop  offset="0.9357" style="stop-color:#BB00AF"/>
	<stop  offset="1" style="stop-color:#B900B4"/>
</linearGradient>
<path class="st0" d="M500,1000L500,1000C223.9,1000,0,776.1,0,500l0,0C0,223.9,223.9,0,500,0l0,0c276.1,0,500,223.9,500,500l0,0
	C1000,776.1,776.1,1000,500,1000z"/>
<g>
	<path class="st1" d="M500,259c78.5,0,87.8,0.3,118.8,1.7c28.7,1.3,44.3,6.1,54.6,10.2c13.7,5.3,23.5,11.7,33.8,22
		c10.3,10.3,16.6,20.1,22,33.8c4,10.3,8.8,25.9,10.2,54.6c1.4,31,1.7,40.3,1.7,118.8s-0.3,87.8-1.7,118.8
		c-1.3,28.7-6.1,44.3-10.2,54.6c-5.3,13.7-11.7,23.5-22,33.8c-10.3,10.3-20.1,16.6-33.8,22c-10.3,4-25.9,8.8-54.6,10.2
		c-31,1.4-40.3,1.7-118.8,1.7s-87.8-0.3-118.8-1.7c-28.7-1.3-44.3-6.1-54.6-10.2c-13.7-5.3-23.5-11.7-33.8-22
		c-10.3-10.3-16.6-20.1-22-33.8c-4-10.3-8.8-25.9-10.2-54.6c-1.4-31-1.7-40.3-1.7-118.8s0.3-87.8,1.7-118.8
		c1.3-28.7,6.1-44.3,10.2-54.6c5.3-13.7,11.7-23.5,22-33.8c10.3-10.3,20.1-16.6,33.8-22c10.3-4,25.9-8.8,54.6-10.2
		C412.2,259.2,421.5,259,500,259 M500,206c-79.9,0-89.8,0.3-121.2,1.8c-31.3,1.5-52.6,6.4-71.4,13.7c-19.3,7.4-35.7,17.5-52,33.9
		c-16.4,16.4-26.4,32.7-33.9,52.1c-7.2,18.7-12.2,40.1-13.7,71.4c-1.5,31.4-1.8,41.3-1.8,121.2s0.3,89.8,1.8,121.2
		c1.5,31.3,6.4,52.6,13.7,71.4c7.5,19.2,17.6,35.7,33.9,51.9c16.4,16.4,32.7,26.4,52.1,33.9c18.7,7.2,40.1,12.2,71.4,13.7
		c31.4,1.5,41.3,1.8,121.2,1.8s89.8-0.3,121.2-1.8c31.3-1.5,52.6-6.4,71.4-13.7c19.2-7.5,35.7-17.6,51.9-33.9
		c16.4-16.4,26.4-32.7,33.9-52.1c7.2-18.7,12.2-40.1,13.7-71.4c1.5-31.4,1.8-41.3,1.8-121.2s-0.3-89.8-1.8-121.2
		c-1.5-31.3-6.4-52.6-13.7-71.4c-7.5-19.2-17.6-35.7-33.9-51.9c-16.4-16.4-32.7-26.4-52.1-33.9c-18.7-7.2-40.1-12.2-71.4-13.7
		C589.8,206.3,579.9,206,500,206L500,206z"/>
	<path class="st1" d="M500,349c-83.4,0-151,67.6-151,151s67.6,151,151,151s151-67.6,151-151S583.4,349,500,349z M500,598
		c-54.1,0-98-43.8-98-98s43.9-98,98-98s98,43.8,98,98S554.1,598,500,598z"/>
	<circle class="st1" cx="657" cy="343.1" r="35.3"/>
</g>
</svg>
