<svg id="Layer_1" data-name="Layer 1" xmlns="http://www.w3.org/2000/svg" viewBox="0 0 100 100"><g id="Layer_1-2" data-name="Layer 1"><g id="Layer_1-3" data-name="Layer 1"><g id="Layer_1-4" data-name="Layer 1"><path d="M100,84a16,16,0,0,1-16,16H16A16,16,0,0,1,0,84V16A16,16,0,0,1,16,0H84a16,16,0,0,1,16,16Z" style="fill:#242a30"/></g></g></g><g id="Layer_2" data-name="Layer 2"><path d="M46,30.6A2.33,2.33,0,0,1,47.5,33V66.3a3.31,3.31,0,0,1-.5,2.4,2.48,2.48,0,0,1-3.3.5c-.9-.6-1-1.5-1-2.7V33.9c0-1.4,0-2.2,1-3a2.15,2.15,0,0,1,2.3-.3Z" style="fill:#fff"/><path d="M33.1,60.9a3.42,3.42,0,0,1-.2-1.5V40.5a2.72,2.72,0,0,1,.7-2,2.41,2.41,0,0,1,3-.3c1.3.8,1.1,1.9,1.1,3.5V60a1.75,1.75,0,0,1-.4,1.2,2.45,2.45,0,0,1-4.2-.3Z" style="fill:#fff"/><path d="M63.7,38a2.13,2.13,0,0,1,1.9-.1,2.61,2.61,0,0,1,1.5,2.6V59.4a4.14,4.14,0,0,1-.1,1,2.28,2.28,0,0,1-2.4,1.8,2.36,2.36,0,0,1-2.2-1.8c0-.2-.1-.5-.1-.8V40.4A2.59,2.59,0,0,1,63.7,38Z" style="fill:#fff"/><path d="M55.9,40.5a2.34,2.34,0,0,1,1.4,2.3V56.9a3.13,3.13,0,0,1-.4,1.9,2.54,2.54,0,0,1-4,0,3.57,3.57,0,0,1-.5-2.3V45a19.58,19.58,0,0,1,.1-3c0-.3.3-.6.6-1a2.32,2.32,0,0,1,2.8-.5Z" style="fill:#fff"/></g></svg>