<?xml version="1.0" encoding="utf-8"?>
<!-- Generator: Adobe Illustrator 24.3.0, SVG Export Plug-In . SVG Version: 6.00 Build 0)  -->
<svg version="1.1" xmlns="http://www.w3.org/2000/svg" xmlns:xlink="http://www.w3.org/1999/xlink" x="0px" y="0px"
	 viewBox="0 0 100 100" style="enable-background:new 0 0 100 100;" xml:space="preserve">
<style type="text/css">
	.st0{fill:#242A30;}
	.st1{display:none;}
	.st2{display:inline;}
	.st3{fill:#FFFFFF;}
</style>
<g id="Layer_1">
	<g id="Layer_1_2_">
		<g id="Layer_1_1_">
			<g>
				<path class="st0" d="M100,84c0,8.8-7.2,16-16,16H16c-8.8,0-16-7.2-16-16V16C0,7.2,7.2,0,16,0h68c8.8,0,16,7.2,16,16V84z"/>
			</g>
		</g>
		<g id="Layer_3">
		</g>
		<g id="Layer_4" class="st1">
			<g class="st2">
				<path class="st3" d="M50,56.9c3.8,0,6.9-3.1,6.9-6.9V38.5c0-3.8-3.1-6.9-6.9-6.9s-6.9,3.1-6.9,6.9V50
					C43.1,53.8,46.2,56.9,50,56.9z"/>
				<path class="st3" d="M61.5,50v-4.6h-2.3v4.3c0,4.4-3,8.5-7.3,9.4c-5.9,1.2-11.2-3.3-11.2-9v-4.6h-2.3V50c0,5.6,4,10.2,9.2,11.3
					v4.8H43v2.3h13.8v-2.3h-4.6v-4.8C57.6,60.2,61.5,55.6,61.5,50z"/>
			</g>
		</g>
	</g>
</g>
<g id="Layer_2">
	<g>
		<path class="st3" d="M46,30.6c1,0.4,1.5,1.2,1.5,2.4c0,11.1,0,22.2,0,33.3c0,0.9,0.1,1.7-0.5,2.4c-0.8,1-2.2,1.2-3.3,0.5
			c-0.9-0.6-1-1.5-1-2.7c0-10.9,0-21.7,0-32.6c0-1.4,0-2.2,1-3C44.4,30.3,45.2,30.3,46,30.6L46,30.6z"/>
		<path class="st3" d="M33.1,60.9c-0.2-0.3-0.2-1-0.2-1.5c0-6.3,0-12.6,0-18.9c0-0.8,0.2-1.5,0.7-2c0.8-0.8,2-0.9,3-0.3
			c1.3,0.8,1.1,1.9,1.1,3.5c0,6.1,0,12.2,0,18.3c0,0.4-0.1,0.9-0.4,1.2C36.3,62.7,34,62.6,33.1,60.9L33.1,60.9z"/>
		<path class="st3" d="M63.7,38c0.6-0.3,1.3-0.4,1.9-0.1c1,0.5,1.5,1.3,1.5,2.6c0,9.6,0,15.9,0,18.9c0,0.2,0,0.6-0.1,1
			c-0.1,1.1-1.4,1.9-2.4,1.8c-1-0.1-2.1-0.8-2.2-1.8c0-0.2-0.1-0.5-0.1-0.8c0-6.4,0-12.8,0-19.2C62.3,39.3,62.8,38.5,63.7,38
			L63.7,38z"/>
		<path class="st3" d="M55.9,40.5c0.9,0.4,1.4,1.2,1.4,2.3c0,4.7,0,9.4,0,14.1c0,0.7,0,1.3-0.4,1.9c-1,1.3-2.9,1.3-4,0
			c-0.5-0.6-0.5-1.5-0.5-2.3c0-3.8,0-7.7,0-11.5c0-1.6,0-2.6,0.1-3c0-0.3,0.3-0.6,0.6-1C54,40.2,54.9,40,55.9,40.5L55.9,40.5z"/>
	</g>
</g>
</svg>
