<svg id="Layer_1" data-name="Layer 1" xmlns="http://www.w3.org/2000/svg" viewBox="0 0 12 12"><g id="Layer_2" data-name="Layer 2"><path d="M8,2a6,6,0,1,0,6,6A6,6,0,0,0,8,2ZM8,13A5,5,0,0,1,3,8,5,5,0,0,1,8,3a5,5,0,0,1,5,5A5,5,0,0,1,8,13Z" transform="translate(-2 -2)" style="fill:#fff"/><path d="M8,6.8a.47.47,0,0,0-.5.5v3.4a.5.5,0,0,0,1,0V7.3A.54.54,0,0,0,8,6.8Z" transform="translate(-2 -2)" style="fill:#fff"/><path d="M8,4.8a.47.47,0,0,0-.5.5v.1a.47.47,0,0,0,.5.5H8a.47.47,0,0,0,.5-.5V5.3A.47.47,0,0,0,8,4.8Z" transform="translate(-2 -2)" style="fill:#fff"/></g></svg>