<svg id="Layer_1" data-name="Layer 1" xmlns="http://www.w3.org/2000/svg" viewBox="0 0 16 67"><g id="Layer_1-2" data-name="Layer 1"><path id="tab" d="M6,0H16V67H6a6,6,0,0,1-6-6V6A6,6,0,0,1,6,0Z" style="fill:#fff"/></g><g id="Layer_2" data-name="Layer 2"><g id="Layer_2-2" data-name="Layer 2"><path d="M9.5,38.6c-.1,0-.2-.1-.3-.2L6.1,33.9a.61.61,0,0,1,0-.8l3.1-4.5c.2-.2.4-.2.5,0a.61.61,0,0,1,0,.8L7,33.5l2.8,4.1a.61.61,0,0,1,0,.8C9.7,38.5,9.7,38.6,9.5,38.6Z" style="fill:#141414;stroke:#000;stroke-miterlimit:10"/></g></g></svg>