<?xml version="1.0" encoding="utf-8"?>
<!-- Generator: Adobe Illustrator 24.3.0, SVG Export Plug-In . SVG Version: 6.00 Build 0)  -->
<svg version="1.1" xmlns="http://www.w3.org/2000/svg" xmlns:xlink="http://www.w3.org/1999/xlink" x="0px" y="0px"
	 viewBox="0 0 16 67" style="enable-background:new 0 0 16 67;" xml:space="preserve">
<style type="text/css">
	.st0{fill:#FFFFFF;}
	.st1{fill:#141414;stroke:#000000;stroke-miterlimit:10;}
</style>
<g id="Layer_1">
	<path id="tab" class="st0" d="M6,0h10l0,0v67l0,0H6c-3.3,0-6-2.7-6-6V6C0,2.7,2.7,0,6,0z"/>
</g>
<g id="Layer_2">
	<g id="Layer_2_1_">
		<g>
			<path class="st1" d="M9.5,38.6c-0.1,0-0.2-0.1-0.3-0.2l-3.1-4.5c-0.2-0.2-0.2-0.6,0-0.8l3.1-4.5c0.2-0.2,0.4-0.2,0.5,0
				c0.2,0.2,0.2,0.6,0,0.8L7,33.5l2.8,4.1c0.2,0.2,0.2,0.6,0,0.8C9.7,38.5,9.7,38.6,9.5,38.6z"/>
		</g>
	</g>
</g>
</svg>
