<svg id="Layer_1" data-name="Layer 1" xmlns="http://www.w3.org/2000/svg" viewBox="0 0 16 67"><g id="Layer_1-2" data-name="Layer 1"><path id="tab" d="M10,0H0V67H10a6,6,0,0,0,6-6V6A6,6,0,0,0,10,0Z" style="fill:#fff"/></g><g id="Layer_2" data-name="Layer 2"><g id="Layer_2-2" data-name="Layer 2"><path d="M6.5,38.6c.1,0,.2-.1.3-.2l3.1-4.5a.61.61,0,0,0,0-.8L6.8,28.6c-.2-.2-.4-.2-.5,0a.61.61,0,0,0,0,.8L9,33.5,6.2,37.6a.61.61,0,0,0,0,.8C6.3,38.5,6.3,38.6,6.5,38.6Z" style="fill:#141414;stroke:#000;stroke-miterlimit:10"/></g></g></svg>