<?xml version="1.0" encoding="utf-8"?>
<!-- Generator: Adobe Illustrator 24.3.0, SVG Export Plug-In . SVG Version: 6.00 Build 0)  -->
<svg version="1.1" xmlns="http://www.w3.org/2000/svg" xmlns:xlink="http://www.w3.org/1999/xlink" x="0px" y="0px"
	 viewBox="0 0 16 67" style="enable-background:new 0 0 16 67;" xml:space="preserve">
<style type="text/css">
	.st0{fill:#FFFFFF;}
	.st1{fill:#141414;stroke:#000000;stroke-miterlimit:10;}
</style>
<g id="Layer_1">
	<path id="tab" class="st0" d="M10,0H0l0,0v67l0,0h10c3.3,0,6-2.7,6-6V6C16,2.7,13.3,0,10,0z"/>
</g>
<g id="Layer_2">
	<g id="Layer_2_1_">
		<g>
			<path class="st1" d="M6.5,38.6c0.1,0,0.2-0.1,0.3-0.2l3.1-4.5c0.2-0.2,0.2-0.6,0-0.8l-3.1-4.5c-0.2-0.2-0.4-0.2-0.5,0
				c-0.2,0.2-0.2,0.6,0,0.8L9,33.5l-2.8,4.1c-0.2,0.2-0.2,0.6,0,0.8C6.3,38.5,6.3,38.6,6.5,38.6z"/>
		</g>
	</g>
</g>
</svg>
